<svg width="70" height="70" viewBox="0 0 70 70" fill="none" xmlns="http://www.w3.org/2000/svg">
<path d="M30.3524 52.0078C30.7072 51.8661 31.1114 51.8243 31.5185 51.8955C31.5846 51.9075 31.5959 52.2116 31.6435 52.2227C31.9785 52.2992 32.2464 51.9996 32.5946 52.1924C32.8261 52.3233 32.8778 52.8394 33.0956 53.3067C33.1266 53.3722 33.244 53.3565 33.3183 53.6406C33.4172 54.0192 33.5011 54.4214 33.5888 54.8291C33.5878 54.8218 33.5877 54.814 33.5868 54.8067C33.9562 54.7746 34.3388 54.9206 34.7069 54.8604C34.7526 54.8523 34.6767 54.5413 34.7255 54.5244C34.933 54.4553 35.1353 54.6664 35.3515 54.5635C35.5171 54.4828 35.6943 54.1388 35.8778 54.0488C36.0112 54.7179 36.2705 54.4852 36.4716 54.5479C36.5405 54.5695 36.5346 54.7492 36.5819 54.8086C36.7611 55.028 36.687 54.4335 36.7401 54.3399C36.9761 53.946 36.9522 55.2925 37.1972 55.2715C37.2079 55.2696 37.4167 54.5673 37.4462 54.5215C37.6165 54.2413 37.4534 54.7723 37.5409 54.832C37.7015 54.9419 37.7962 55.1217 38.0155 54.9346C38.0787 54.8789 38.2748 54.4524 38.3446 54.8115C38.3532 54.8592 38.3133 55.0921 38.3231 55.1074C38.5001 55.3662 38.6167 54.631 38.789 54.4033C38.9621 54.1767 39.0717 54.721 39.079 54.874C39.1052 55.2706 38.969 55.0195 38.956 55.0557C38.8086 55.4838 38.9589 55.4338 39.0526 55.4922C38.919 56.2105 39.0612 56.1962 39.1513 55.5498C39.1604 55.4795 39.0662 55.5284 39.0526 55.4922C39.2871 54.8083 39.4907 54.7583 39.5067 55.4531C39.5118 55.7788 39.3445 56.1123 39.6151 56.0469C39.7387 56.0187 39.8344 55.5223 39.9735 55.4199C40.3002 55.1896 40.4552 55.7371 40.7089 55.7568C40.8031 55.7645 40.8204 55.4756 40.8895 55.4727C41.0775 55.4663 41.1343 55.7141 41.3329 55.6875C41.3514 55.685 41.4347 55.4064 41.4862 55.4258C41.8022 55.5407 42.0194 55.7804 42.2772 55.9863C42.9289 56.4856 43.5577 57.446 43.3065 58.2275C43.2658 58.38 43.2192 58.5279 43.1728 58.6699C43.0679 59.0195 42.9492 59.5878 42.7606 59.8076C42.4324 60.2128 41.784 60.301 41.6308 60.5967C41.5244 60.7932 41.7586 60.9658 41.8241 61.1748C41.9458 61.5847 41.256 61.2797 41.161 61.2197C41.1582 61.218 41.2469 61.0521 41.08 61C40.8401 60.7996 41.1617 61.2174 41.161 61.2197C41.0978 61.1855 40.7945 61.3466 40.7743 61.4297C40.7638 61.4759 40.9465 61.6793 40.9384 61.7002C40.7266 62.1723 40.3854 62.4907 39.9462 62.6182C39.9368 62.6176 39.7823 62.3538 39.7626 62.3555C39.4817 62.3722 39.5431 62.7721 39.4765 63.0693C39.4114 63.3647 39.2287 63.3822 38.869 62.9824C38.7688 63.1144 38.4662 63.0148 38.2948 62.9463C38.1232 62.8789 38.3804 63.4079 38.3788 63.4287C38.3163 63.6661 38.2095 63.7385 38.0731 63.7637C37.9423 63.7826 37.7797 63.747 37.6181 63.7979C37.471 63.8428 37.2355 64.0577 37.1161 64.1904C37.0207 64.297 36.8883 64.208 36.8183 64.3428C36.8096 64.3621 36.9417 64.5893 36.9423 64.6016C36.9612 64.9466 36.7311 64.337 36.6542 64.2461C36.3756 63.9151 36.2189 63.7437 36.1513 63.9981C36.1365 64.0586 36.4419 64.9429 36.4003 65.0264C36.3441 65.1312 36.2293 64.8156 36.1737 64.9326C36.1688 64.9424 36.2612 65.1272 36.2011 65.1465C35.922 65.2392 35.5838 65.2693 35.3173 65.419C35.2807 65.4389 35.469 65.7107 35.4179 65.7442C35.1781 65.9009 34.8883 66.023 34.5702 66C34.4915 65.9934 34.4352 65.7678 34.3935 65.7119C34.1403 65.3751 34.2692 65.9728 34.2538 65.9922C33.9005 66.4653 33.3219 66.1276 32.9247 66.5684C32.9056 66.5941 32.9287 67.2735 32.6317 66.8008C32.6111 66.7696 32.3126 66.2824 32.369 66.6729C32.3734 66.6986 32.5358 66.9444 32.4228 66.957C32.3086 66.9695 32.2069 67.2139 31.9501 66.9688C31.868 66.8914 31.575 66.4021 31.5849 66.8721C31.5899 66.9048 31.6928 67.9369 31.3905 67.3027C31.3406 67.1981 31.1255 66.4922 31.0722 66.9072C31.062 66.9877 31.1725 67.1253 31.1161 67.251C31.0292 67.4449 30.7912 67.3105 30.704 67.6768C30.69 67.7413 30.6879 68.2619 30.4765 67.9238C30.4443 67.8701 30.4144 67.625 30.3505 67.6123C30.304 67.6035 30.2587 67.6015 30.2147 67.6035C30.011 67.6044 29.8287 67.7469 29.5995 67.6514C29.5037 67.6115 29.4554 67.214 29.3485 67.1289C29.2417 67.0439 29.0478 66.9827 28.9989 67.1797C28.9501 67.3772 29.1819 67.975 29.0585 68.0547C28.5132 68.3979 27.8478 68.1474 27.2421 68.1924C27.1518 68.199 27.2623 68.4108 27.1308 68.4365C26.6508 68.5341 25.8053 68.8597 25.3134 68.419C24.9262 68.0667 25.3377 67.7331 25.0595 67.6006C24.9282 67.537 24.849 68.2839 24.8173 68.3096C24.5219 68.5677 24.2817 68.2531 24.0009 68.3633C23.9414 68.3864 24.0105 68.6842 23.9589 68.7002C23.7814 68.7574 23.593 68.6266 23.4179 68.6504C23.3397 68.6618 23.3522 68.8904 23.2792 68.8721C23.105 68.8305 22.944 68.7298 22.7831 68.5078C22.7689 68.4876 22.8868 68.2085 22.7577 68.1914C22.5455 68.1644 22.3043 67.9347 22.0282 68.1211C21.9468 68.1772 21.8719 68.6954 21.7489 68.3145C21.7225 68.2341 21.8639 67.6222 21.5849 68.126C21.5438 68.2119 21.0406 68.8633 20.9462 68.3545C20.9231 68.2215 20.933 67.6947 20.8124 67.7442C20.7938 67.7528 20.7775 68.0393 20.6776 68.0391C20.3263 68.0314 19.9826 67.8786 19.5468 67.7539C19.4297 67.7198 19.4563 68.0623 19.2792 67.9981C18.7823 67.8212 18.1613 67.2722 17.8026 66.6611C17.6721 66.4378 17.9724 66.4331 17.9813 66.4014C18.1595 65.9327 17.6045 66.1138 17.5185 66.0352C17.3805 65.9106 17.2861 65.7664 17.2216 65.6172C16.9936 65.0859 17.0455 64.6166 16.9638 64.2842C16.9341 64.1544 16.6695 64.2674 16.6425 64.2432C16.3872 63.9865 16.89 64.155 16.9374 64.001C17.0793 63.5938 17.0811 63.3229 17.0653 63.0811C17.0596 62.9948 16.7351 63.0627 16.7333 62.9844C16.7318 62.9329 16.7322 62.8821 16.7333 62.832C16.7442 62.4098 16.8513 61.9704 17.0888 61.5869C17.1397 61.5066 17.3669 61.6108 17.4257 61.6045C17.8323 61.5657 17.3553 61.2729 17.3163 61.2149C17.1386 60.9659 17.3686 60.9421 17.3778 60.7617C17.4159 59.8642 18.0229 58.8334 18.5976 58.1416C19.3483 57.2248 20.1609 56.739 20.9989 56.0654C21.0534 56.023 20.8096 55.7961 20.8554 55.7549C20.9906 55.6403 21.1302 55.5408 21.2782 55.4483C21.6854 55.1921 22.1215 55.0193 22.4999 54.7393C22.54 54.7104 22.3351 54.469 22.3954 54.4131C22.5191 54.2962 22.7103 54.219 22.9003 54.2354C22.9925 54.2429 23.0138 54.5263 23.1034 54.5303C23.3101 54.5397 23.4965 54.4752 23.6435 54.3525C23.7048 54.2988 23.4648 54.0634 23.5575 54.0166C24.1845 53.6933 24.803 53.3773 25.5907 53.5108C25.6454 53.5212 25.9121 54.1021 25.9608 53.9541C25.9045 53.7851 25.8301 53.5891 25.7655 53.4102C26.6541 52.9626 27.64 52.8641 28.5692 52.6123C28.6082 52.6012 28.4408 52.298 28.5165 52.2754C28.9547 52.1455 29.3568 51.9283 29.8944 52.127C29.9478 52.1462 30.0883 52.7277 30.1923 52.6045C30.212 52.5811 30.383 52.4508 30.3993 52.3125C30.401 52.2917 30.2917 52.0338 30.3524 52.0078ZM36.3056 56.8379C36.1606 56.4931 36.2969 55.0504 35.9452 55.4004C35.7986 55.542 35.7156 57.3733 35.4286 56.4424C34.9825 56.7049 34.5013 56.267 34.077 56.6611C34.0581 56.6834 34.0606 57.1928 34.0136 57.1924C33.9883 57.1917 33.9641 57.1617 33.9394 57.124C33.921 57.1186 33.9052 57.1279 33.8964 57.1777C33.8695 57.3351 33.9771 57.6592 33.8642 57.7285C33.6019 57.8865 33.209 57.8851 32.8935 57.8291C32.7951 57.8118 32.7926 57.6207 32.7226 57.6006C32.5848 57.5621 32.4965 57.6795 32.3573 57.6279C32.3109 57.61 32.2832 57.314 32.2362 57.3008C32.2295 57.2991 32.2224 57.2983 32.2157 57.2969C32.2341 57.3686 32.2603 57.4492 32.2558 57.4668C32.2247 57.594 32.1297 57.4227 32.1034 57.5586C32.0969 57.5915 32.1452 57.8104 32.1425 57.8496C32.1205 58.1908 31.8595 57.7356 31.8153 57.6543C31.6461 57.3509 31.6597 57.6439 31.5565 57.5322C31.5145 57.4861 31.5048 57.4277 31.4989 57.3711C31.2662 57.3754 31.0363 57.389 30.8085 57.4082C30.8167 57.439 30.8237 57.4607 30.8212 57.4629C30.6801 57.5659 30.4679 57.2819 30.4862 57.8818C30.4381 57.6909 30.4003 57.5517 30.372 57.4531C30.3398 57.4571 30.3074 57.4597 30.2753 57.4639C30.2718 57.6566 30.261 57.8935 30.1435 57.7813C30.1344 57.7724 30.1049 57.6458 30.0761 57.4922C29.9346 57.5126 29.7937 57.5342 29.6532 57.5586C29.888 57.892 30.0291 58.4964 29.7362 58.4443C29.6634 58.4312 29.8194 58.0339 29.7138 57.9395C29.5208 57.7677 29.5412 58.5448 29.3104 58.165C29.2855 58.1234 29.3043 57.8403 29.327 57.6182C28.9073 57.699 28.4901 57.7932 28.0712 57.8926C27.6966 57.9813 27.1627 57.8993 26.8397 58.1563C26.8021 58.1865 26.9244 58.4148 26.9247 58.4385C26.9216 58.7912 26.7662 58.2926 26.6571 58.2627C26.2243 58.146 25.8469 58.2844 25.581 58.5176C25.4684 58.6176 25.8152 59.0203 25.5644 58.8213C25.547 58.808 25.4631 58.5457 25.4149 58.5352C25.3055 58.5141 25.1727 58.6313 25.1015 58.6426C24.9616 58.6632 24.9424 58.6757 24.829 58.7295C24.6716 58.8017 24.4259 58.7773 24.2938 58.9199C24.266 58.9512 24.4451 59.1724 24.414 59.2442C24.3823 59.3157 24.2313 59.3735 24.1503 59.3438C24.07 59.3133 23.9809 59.1107 23.9472 59.0713C23.6624 58.7421 23.7948 59.3511 23.7841 59.375C23.766 59.4071 23.7465 59.4362 23.7265 59.4629C23.5399 59.7604 23.1528 59.6946 22.9218 59.918C22.7382 60.0979 22.6497 60.3764 22.5019 60.5625C22.3244 60.7838 22.0659 60.9329 21.9638 61.2188C21.9553 61.2486 22.2687 61.3513 22.2577 61.3858C22.1365 61.7529 21.9865 62.107 21.6796 62.4785C21.6484 62.5159 21.3762 62.4012 21.328 62.4365C21.0563 62.6319 20.4829 63.018 21.4306 63.3027C21.4952 63.3228 21.567 63.3419 21.6464 63.3604C21.5781 63.5488 21.5143 63.7449 21.2636 63.8447C21.1024 63.9109 20.7834 63.8729 20.9237 63.9414C20.9551 63.9518 21.2281 63.909 21.2538 63.917C21.3016 63.9299 21.3052 63.8939 21.2909 63.8447C21.3007 63.8469 21.3132 63.8488 21.3769 63.8047C21.3925 63.7938 21.4745 63.7225 21.5409 63.666C21.4864 63.7253 21.4383 63.7824 21.4364 63.8008C21.2975 64.104 21.4967 64.0736 21.6395 64.1318C21.676 64.1465 21.7466 63.8198 21.7811 63.8203C21.9579 63.8319 22.1609 63.9066 22.3769 64.0859C22.4252 64.1265 22.3381 64.3984 22.3593 64.4346C22.4668 64.5811 22.5499 64.0523 22.6503 64.1777C22.6721 64.2034 22.6369 64.4419 22.6386 64.4707C22.6769 64.8944 22.7872 64.3078 22.8046 64.2959C23.0416 64.1329 23.1741 64.7561 23.4179 64.6699C23.4462 64.6587 23.3837 64.3523 23.4618 64.3389C23.9859 64.2538 24.5517 64.3005 25.1259 64.4863C25.215 64.5147 25.1792 64.7501 25.1874 64.7783C25.325 65.2102 25.3172 64.613 25.3417 64.5869C25.5405 64.4015 25.8144 64.8683 25.8661 64.1455C26.8312 64.2582 27.6727 63.6908 28.7313 64.0996C28.7452 64.1068 28.7895 64.3948 28.8163 64.4024C29.1394 64.4958 28.979 64.0648 29.0341 63.4785C29.0431 63.3796 29.1819 63.629 29.2792 63.8154C29.3244 63.9058 29.3612 63.9813 29.369 63.9961C29.4572 64.1613 29.5194 64.5956 29.5429 64.626C29.7422 64.8599 29.3549 63.471 29.5058 63.4277C29.5114 63.4286 29.5623 63.6889 29.5829 63.7119C29.6475 63.7798 29.6614 63.6664 29.7274 63.7422C29.8792 63.9182 30.1249 64.5753 30.1522 64.1397C30.1547 64.0832 29.8796 63.312 30.0321 63.3027C30.0939 63.2998 30.3394 63.2018 30.4286 63.2256C30.5167 63.251 30.5575 63.5154 30.5663 63.5244C30.8781 63.7825 30.855 63.9445 31.1347 64.3916C31.4156 64.8355 30.9584 63.699 30.9491 63.5547C30.9406 63.4123 31.1855 63.6257 31.2577 63.7051C31.3295 63.7846 31.346 63.9586 31.3983 63.999C31.7458 64.2595 31.2682 63.3953 31.2645 63.1875C31.2515 62.6973 31.7145 63.4891 31.8993 63.5098C31.9483 63.5154 31.8371 63.339 31.8642 63.3057C31.9751 63.1791 32.1717 63.404 32.2284 63.0967C32.2385 63.0462 32.1469 62.4899 32.3905 62.8213C32.4256 62.8701 32.4834 63.0912 32.5634 63.1113C32.683 63.1419 32.8643 63.115 32.9286 63.0029C32.9758 62.9198 32.7418 62.6159 32.8778 62.6817C32.9385 62.7112 32.9557 62.943 33.0624 62.9815C33.169 63.02 33.3542 62.9249 33.4228 62.8848C33.4899 62.8439 33.3325 62.6063 33.33 62.5859C33.319 62.4713 33.3963 62.2857 33.4091 62.2783C33.9981 61.9643 34.7666 62.1198 35.286 61.6846C35.3259 61.65 35.163 61.3985 35.1679 61.3906C35.2695 61.202 35.4992 61.9742 35.7294 62.1563C35.4423 61.6224 35.5568 61.6868 35.6376 61.5723C35.6766 61.5163 35.542 61.3209 35.536 61.2969C35.4562 60.938 35.7186 61.3213 35.7753 61.3984C35.983 61.6819 35.8572 61.2873 35.997 61.4756C36.1364 61.6629 36.2074 62.009 36.3124 61.9512C36.2443 61.7422 35.9101 61.2762 35.9491 61.1533C36.0313 60.8997 36.297 60.8171 36.5663 60.7803C36.7871 60.7517 37.0073 60.7528 37.1249 60.7139C37.3836 60.6276 37.4379 60.5507 37.6132 60.542C37.9273 60.5261 37.6316 60.2109 37.6786 59.96C37.7269 59.7072 38.188 60.6373 38.3241 60.8154C38.4607 60.9927 38.3669 60.7825 38.4569 60.8701C38.5476 60.958 38.567 61.1237 38.6552 61.124C38.7457 61.123 38.7132 60.6764 38.6083 60.4668C38.3893 60.0214 38.0381 59.6326 38.2909 59.6856C38.3074 59.693 38.4256 59.9359 38.4745 59.9365C38.8656 59.9312 39.1565 59.7416 39.5331 59.6797C39.5854 59.6717 39.7413 59.9342 39.7743 59.9317C40.1236 59.898 39.7211 59.5658 39.4628 59.041C39.9294 59.6342 40.2981 59.9305 40.4745 59.7744C40.5802 59.6791 40.3332 59.4588 40.2313 59.2334C40.1999 59.1663 40.4242 59.2605 40.3251 59.1397C39.9956 58.7501 39.5348 58.415 39.8231 58.4346C39.8371 58.4359 40.0249 58.6402 40.0575 58.6299C40.268 58.5559 39.8753 58.1972 39.9149 58.0322C39.9273 57.98 40.0011 57.9495 40.0878 57.9209C39.9245 57.8204 39.7976 57.6623 39.5194 57.8721C39.503 57.8864 39.3083 58.4371 39.371 58.0068C39.3745 57.9769 39.5457 57.7497 39.4237 57.6895C39.3049 57.6295 39.1337 57.2538 38.8817 57.4756C38.8201 57.5285 38.6092 57.9713 38.5976 57.5879C38.5958 57.5357 38.6433 57.3722 38.6444 57.2764C38.6447 56.9708 38.5001 57.5494 38.5253 57.0391C38.5514 56.529 38.4495 56.125 38.1903 56.4404C38.1818 56.4495 38.0678 56.9093 38.0067 56.8945C37.9097 56.8691 37.7765 56.7544 37.6708 56.7471C37.6207 56.7451 37.6243 57.0389 37.6151 57.044C37.2703 57.1764 37.0563 56.9009 36.6933 56.7783C36.6236 56.7558 36.4355 57.1528 36.3056 56.8379ZM28.581 64.4268C28.5695 64.3994 28.3768 64.4141 28.3759 64.4414C28.3924 64.9943 28.79 64.9654 28.581 64.4268ZM32.0995 63.9805C32.0922 63.9667 32.0308 63.9769 32.0653 64.0576C32.1777 64.3185 32.2258 64.2121 32.0995 63.9805ZM21.6239 63.5977C21.6119 63.6086 21.5782 63.6343 21.5409 63.666C21.6513 63.5461 21.7881 63.4192 21.6239 63.5977ZM37.4911 62.6123C37.3597 62.5381 37.7328 63.2983 37.747 63.1192C37.7478 63.1126 37.7481 63.1047 37.7479 63.0957C37.7462 63.0791 37.5357 62.6466 37.5243 62.6367C37.511 62.6248 37.5 62.6169 37.4911 62.6123ZM36.9032 61.542C36.895 61.5308 36.8156 61.5561 36.8192 61.5693C36.9288 61.8863 37.0907 61.8346 36.9032 61.542ZM40.3134 57.8438C40.3553 57.8267 40.3904 57.8091 40.4101 57.7852C40.4402 57.7954 40.4694 57.8038 40.497 57.8125C40.449 57.8705 40.3949 57.9393 40.37 57.9668L40.704 58.6943C40.7013 58.6444 40.7244 58.5532 40.7763 58.415C40.7954 58.4339 40.8156 58.451 40.8358 58.4678L40.7978 58.3858C40.7907 58.395 40.7834 58.4044 40.7763 58.4141C40.6792 58.3316 40.5455 58.2987 40.4726 58.1729C40.45 58.1345 40.5509 57.9649 40.579 57.9092L40.5399 57.8252C40.5593 57.8311 40.5776 57.8377 40.5956 57.8428C40.6277 57.6882 40.5821 57.7146 40.5204 57.7832L40.4843 57.7031C40.4696 57.7303 40.4562 57.7611 40.4325 57.79C40.3491 57.7488 40.2859 57.7174 40.246 57.6963L40.3134 57.8438ZM40.5399 57.8252C40.526 57.821 40.5116 57.8171 40.497 57.8125C40.5052 57.8025 40.5124 57.7921 40.5204 57.7832L40.5399 57.8252ZM34.5058 55.1231C34.3639 54.7797 34.3657 55.5749 34.4257 55.709C34.6164 56.1512 34.6443 55.4673 34.5058 55.1231ZM32.7597 53.5508C32.7244 53.217 32.5523 53.2318 32.6708 53.5586C32.6771 53.571 32.7591 53.5642 32.7597 53.5508Z" fill="white"/>
<path d="M34.2494 4.31445C34.3914 4.07345 34.5612 3.98233 34.5453 4.30078C34.5447 4.31729 34.5419 4.33475 34.5404 4.35351C34.6024 4.3638 34.6635 4.37401 34.7221 4.38476C34.8977 4.4218 35.0563 4.46032 35.1195 4.5664C35.1312 4.58906 35.1363 4.61566 35.1371 4.64746C35.247 4.72883 35.3561 4.81296 35.473 4.88379C35.4308 4.91849 35.41 4.95259 35.4223 4.98632C35.4239 4.99162 35.5503 4.99058 35.7016 4.99023C35.7761 5.01236 35.8561 5.02422 35.9447 5.02246C35.9477 5.01226 35.9498 5.00206 35.9525 4.99218C35.9679 4.99212 35.9829 4.99223 35.9975 4.99218C36.0895 4.90107 36.3279 4.62951 36.3686 4.66113C36.438 4.71671 36.3527 4.944 36.3949 4.99023C36.5699 5.18717 36.8805 5.15495 37.0619 5.33593C37.1302 5.40461 36.9503 5.57623 37.0268 5.65625C37.0998 5.73404 37.3719 5.53968 37.3793 5.75976C37.3849 5.92848 36.9923 6.47306 37.0092 6.60742C37.4971 6.17284 37.5529 6.24816 37.8002 6.28906C37.8483 6.29786 38.0067 6.13254 38.0404 6.1289C38.1807 6.12152 38.0656 6.28553 38.2113 6.27929C38.2468 6.27833 38.4377 6.16289 38.4789 6.15722C38.5844 6.14171 38.6336 6.17824 38.6439 6.23339C38.6714 6.27352 38.7065 6.40532 38.7201 6.45214C38.7088 6.61579 38.4441 6.75942 38.3832 6.7832C38.0521 6.92173 38.335 6.98813 38.1928 7.0791C38.0502 7.1551 37.907 6.99803 37.8139 7.08691C37.6221 7.25899 37.585 7.50927 37.5023 7.71191C37.4723 7.79175 37.7718 7.83685 37.7738 7.85058C37.7776 7.93444 37.7147 7.9951 37.6801 8.05859C37.6319 8.14794 37.6392 8.23575 37.9291 8.43164C36.4733 7.91896 38.0299 8.60141 37.5863 8.72949C37.5495 8.73853 36.9573 8.32198 36.8939 8.22265C36.8288 8.12975 37.062 8.17758 36.9447 8.0332C36.931 8.01372 36.7557 7.90463 36.5902 7.80273C36.574 7.97212 36.4854 8.16907 36.5668 8.29296C36.6174 8.3701 36.8571 8.21075 36.9008 8.26074C37.0172 8.39239 36.8585 8.58643 37.0053 8.71093C37.0189 8.72214 37.2862 8.60644 37.3041 8.65332C37.3618 8.80089 37.3768 8.95163 37.3871 9.10449C37.6394 9.27113 37.7922 9.49491 37.5473 9.63574C37.4956 9.66193 37.4619 9.49446 37.4057 9.3623C37.4138 9.49422 37.427 9.62802 37.4643 9.76367C37.5157 9.94992 37.7642 10.239 37.7885 10.4424C37.8323 10.794 37.5431 11.321 37.7191 11.5859C37.8335 11.7608 38.1011 11.6448 38.3129 11.6768C38.724 11.7415 38.137 12.1997 38.0434 12.2617C38.0404 12.2638 37.9319 12.114 37.8109 12.2393C37.526 12.3659 38.0383 12.2607 38.0434 12.2617C38.0107 12.285 38.0025 12.4029 38.0121 12.5107C38.0208 12.6021 38.0414 12.6873 38.0727 12.7119C38.1106 12.7413 38.3719 12.6579 38.3871 12.6748C38.7349 13.0801 38.9072 13.5665 38.8646 14.0811C38.8571 14.0909 38.5605 14.1288 38.5521 14.1504C38.465 14.4517 38.8611 14.5734 39.1137 14.7734C39.3656 14.9736 39.3142 15.1665 38.81 15.3652C38.8962 15.524 38.6944 15.7891 38.5697 15.9434C38.4445 16.0915 39.0382 16.048 39.0512 16.0586C39.4654 16.391 39.1488 16.6475 39.1332 17.0293C39.1251 17.2141 39.2452 17.5606 39.3285 17.751C39.3955 17.9035 39.2646 18.0021 39.3666 18.1387C39.3803 18.157 39.643 18.1132 39.6537 18.1182C39.9833 18.2503 39.3335 18.2309 39.2201 18.2744C38.812 18.4288 38.595 18.522 38.8109 18.709C38.8602 18.7497 39.8014 18.7972 39.8637 18.8779C39.9428 18.9826 39.6064 18.973 39.6977 19.0811C39.7067 19.0898 39.9102 19.0693 39.9076 19.1396C39.8985 19.4722 39.8128 19.8453 39.8646 20.1826C39.872 20.2282 40.1903 20.1393 40.2055 20.2051C40.2738 20.5237 40.293 20.8661 40.1693 21.1904C40.1371 21.2682 39.9054 21.2431 39.8393 21.2656C39.4407 21.4027 40.0423 21.4912 40.0609 21.5146C40.3996 22.0513 39.9019 22.5317 40.2133 23.0859C40.2347 23.1156 40.8899 23.293 40.3549 23.4541C40.3209 23.4644 39.8215 23.6107 40.1117 23.6768C40.1263 23.6798 40.1428 23.6829 40.1615 23.6855C40.1743 23.6872 40.2534 23.664 40.3256 23.6562C40.3294 23.6558 40.3336 23.6556 40.3373 23.6553C40.4022 23.6498 40.4582 23.6592 40.4496 23.7129C40.4313 23.8289 40.6413 23.9953 40.3402 24.1865C40.2452 24.2456 39.6986 24.4254 40.1576 24.5273C40.1896 24.5337 41.2181 24.6658 40.5316 24.8164C40.4176 24.8411 39.6831 24.8984 40.0766 25.043C40.153 25.0706 40.311 24.9916 40.4223 25.0732C40.5937 25.2002 40.4142 25.3948 40.7582 25.5342C40.819 25.5581 41.3299 25.636 40.9613 25.7754C40.903 25.7971 40.6553 25.7909 40.6332 25.8477C40.5268 26.1165 40.7157 26.3601 40.5717 26.6387C40.521 26.7369 40.1208 26.7289 40.0238 26.8359C39.9269 26.9406 39.843 27.1405 40.0336 27.2227C40.2247 27.3046 40.8462 27.1336 40.9115 27.2783C41.1954 27.9096 40.8886 28.5862 40.8988 29.2422C40.9004 29.34 41.1184 29.2374 41.1371 29.3799C41.2054 29.8973 41.5065 30.78 41.0717 31.2852C40.7229 31.6849 40.3853 31.2597 40.2563 31.5518C40.195 31.6924 40.9403 31.7637 40.9701 31.7939C41.2367 32.0872 40.9339 32.3409 41.0619 32.6143C41.0885 32.6709 41.3805 32.5843 41.3998 32.6328C41.4682 32.7983 41.3532 32.9917 41.3939 33.1533C41.4132 33.2256 41.6391 33.1888 41.6283 33.2578C41.6051 33.4224 41.5238 33.5742 41.3266 33.7529C41.3086 33.7692 41.0173 33.7014 41.018 33.8213C41.0212 34.0162 40.8345 34.279 41.0736 34.4785C41.1456 34.5378 41.6662 34.4882 41.3217 34.666C41.2497 34.7033 40.6215 34.7279 41.1771 34.8389C41.2695 34.8574 42.0249 35.0622 41.5697 35.2451C41.4499 35.2934 40.9499 35.4366 41.0365 35.5078C41.0504 35.5173 41.3255 35.4462 41.3598 35.5088C41.4742 35.731 41.469 35.9778 41.5805 36.207C41.6115 36.2674 41.8903 36.1445 41.9262 36.2363C42.0253 36.4891 41.984 36.8221 41.9193 37.0859C41.8943 37.1823 41.6512 37.1423 41.6244 37.1514C41.2126 37.3038 41.7878 37.3118 41.8266 37.3447C42.0491 37.5513 41.7988 37.7514 41.891 37.9531C41.9168 38.0082 42.1839 37.9402 42.2094 37.9492C42.4589 38.0442 41.961 38.0052 41.9145 38.0859C41.7831 38.3127 41.8287 38.546 41.8852 38.7559C41.9063 38.8329 42.2132 38.713 42.2289 38.7822C42.3255 39.1921 42.3386 39.631 42.2055 40.0537C42.1798 40.1333 41.9328 40.1104 41.8783 40.1318C41.5006 40.2817 42.0476 40.3899 42.102 40.4219C42.349 40.5671 42.1407 40.6544 42.1957 40.7988C42.4696 41.5059 42.4191 42.4205 42.4008 43.1143C42.3787 44.0227 42.2172 44.7372 42.3646 45.5879C42.3739 45.6414 42.6925 45.5539 42.7045 45.5996C42.8442 46.1963 42.778 46.8051 42.933 47.3984C42.9456 47.4465 43.2446 47.3448 43.2748 47.4209C43.3379 47.5776 43.3432 47.7918 43.2621 47.9658C43.2231 48.0511 42.9484 47.9705 42.9145 48.0557C42.8349 48.2536 42.8334 48.4563 42.9027 48.6484C42.9329 48.7292 43.2338 48.5722 43.2484 48.6797C43.3535 49.4004 43.4823 50.1245 43.1508 50.9004C43.1281 50.9545 42.4949 51.065 42.6273 51.1602C42.8052 51.1502 43.0139 51.1281 43.2035 51.1123C43.2686 51.4338 43.3049 51.7836 43.3217 52.1055C43.3616 52.8412 43.3236 53.5795 43.3744 54.3144C43.3798 54.3574 43.7072 54.2483 43.7152 54.333C43.7619 54.8425 43.9051 55.3201 43.6215 55.8701C43.5939 55.9253 42.996 55.9608 43.101 56.1016C43.1198 56.124 43.2228 56.3467 43.3578 56.3926C43.3806 56.3977 43.6511 56.3297 43.6664 56.4014C43.7514 56.8236 43.7334 57.2765 43.6059 57.7178C43.5848 57.7918 43.282 57.7453 43.2641 57.7978C43.1416 58.1627 43.4031 58.5176 43.1664 58.8828C43.0067 59.1271 42.4881 59.091 41.9955 59.2588C41.926 59.2813 41.9263 59.4324 41.6332 59.4639C40.8965 59.5302 40.0846 59.5308 39.3002 59.6123C39.2156 59.6167 39.2211 59.6635 39.1928 59.6309C39.1787 59.6103 39.1579 59.5923 39.1146 59.6006C39.0717 59.6011 39.0055 59.5905 38.9047 59.6436C38.88 59.6958 38.738 59.6181 38.5961 59.5967C38.4986 59.5855 38.2039 59.646 38.0775 59.6162C37.9517 59.5894 38.1966 59.5197 38.0463 59.46C37.8935 59.3999 37.5576 59.4655 37.5033 59.3193C37.38 58.9821 37.431 58.5073 37.5287 58.1387C37.5587 58.0205 37.7493 58.0575 37.7787 57.9795C37.8355 57.8244 37.7306 57.6918 37.8012 57.5342C37.826 57.481 38.1244 57.5145 38.143 57.459C38.2441 57.167 38.1419 56.9017 38.1752 56.6094C38.3274 55.2656 38.3118 53.9661 38.2973 52.6172C38.2965 52.5176 38.2952 52.4162 38.2943 52.3135C38.2888 51.826 38.497 51.2298 38.3314 50.7559C38.3114 50.7001 38.0578 50.7607 38.0355 50.7519C37.6949 50.6133 38.2185 50.6172 38.2758 50.4971C38.5032 50.0357 38.4764 49.536 38.3344 49.124C38.2729 48.9463 37.7819 49.181 38.0492 48.9678C38.0684 48.9532 38.3447 48.9711 38.3686 48.918C38.4219 48.7964 38.352 48.5938 38.3646 48.5039C38.3905 48.3321 38.3847 48.304 38.3715 48.1436C38.3557 47.9214 38.465 47.6576 38.3793 47.4287C38.3587 47.3813 38.0884 47.4747 38.0326 47.4004C37.977 47.3255 37.9787 47.1106 38.0375 47.0352C38.0961 46.9585 38.3177 46.9656 38.3676 46.9482C38.782 46.8029 38.1695 46.6199 38.1518 46.5898C37.8458 46.0429 38.1306 45.5204 38.0756 44.9893C38.0328 44.5833 37.8782 44.1613 37.8539 43.7734C37.8258 43.3076 37.9384 42.9076 37.8666 42.46C37.8582 42.414 37.5371 42.5017 37.5268 42.4453C37.4265 41.839 37.4002 41.2269 37.56 40.5937C37.5763 40.5302 37.8731 40.5798 37.9066 40.5146C38.1059 40.1185 38.6143 39.4667 37.3363 39.373C37.3597 39.1152 37.3797 38.8022 37.6098 38.5498C37.758 38.3877 38.0861 38.4977 37.934 38.332C37.9 38.2946 37.6301 38.3746 37.6 38.3164C37.4737 38.0713 37.535 37.7832 37.3676 37.5449C37.3328 37.4965 37.0875 37.5354 37.0414 37.5254C36.6695 37.4392 37.2429 37.1748 37.2816 37.126C37.5694 36.7552 37.4179 36.5215 37.3939 36.2051C37.3885 36.1319 37.0675 36.2511 37.0492 36.1826C36.965 35.8225 36.9549 35.4409 37.0658 35.0684C37.0913 34.9856 37.3807 35.0302 37.4076 34.9893C37.5215 34.8087 36.9854 34.8251 37.0844 34.6533C37.1053 34.6175 37.3463 34.6123 37.3734 34.6035C37.779 34.4652 37.1849 34.4395 37.1664 34.416C36.9567 34.1184 37.5524 33.8558 37.435 33.5615C37.4203 33.5261 37.1234 33.6388 37.1 33.5381C36.9471 32.8637 36.959 32.1354 37.1361 31.4365C37.1637 31.3281 37.4005 31.3805 37.4281 31.3711C37.8578 31.2198 37.2651 31.2084 37.2348 31.1768C37.0473 30.9233 37.5185 30.624 36.7943 30.5088C36.9257 29.3428 36.4178 28.2458 36.9389 27.0508C36.9448 27.0355 37.2389 27.0323 37.2494 27.0019C37.3788 26.6372 36.9318 26.7489 36.3549 26.5752C36.2108 26.5309 36.8619 26.2955 36.9105 26.2725C37.0859 26.1973 37.5258 26.2141 37.559 26.1914C37.8186 26.0058 36.3848 26.171 36.3637 25.959C36.367 25.9522 36.6327 25.9548 36.6576 25.9346C36.7348 25.8714 36.6246 25.827 36.7104 25.7646C36.9089 25.6204 37.6027 25.5146 37.1781 25.3603C37.1231 25.3414 36.3114 25.4567 36.3314 25.2627C36.3399 25.1837 36.2944 24.8562 36.3383 24.7588C36.382 24.6592 36.6485 24.6988 36.6615 24.6914C36.9841 24.4026 37.1373 24.4855 37.6391 24.3096C38.139 24.1346 36.9209 24.287 36.7797 24.249C36.6589 24.216 36.8415 24.0558 36.9555 23.9785C36.9736 23.9656 36.9902 23.955 37.0033 23.9473C37.0985 23.8914 37.2712 23.9333 37.3236 23.8867C37.6659 23.5802 36.7056 23.8254 36.5033 23.7549C36.0251 23.5879 36.9149 23.3524 36.9857 23.1475C37.0048 23.0931 36.8037 23.1546 36.7797 23.1103C36.6887 22.9341 36.961 22.7993 36.683 22.6221C36.6375 22.5912 36.0768 22.473 36.4662 22.3281C36.5224 22.3075 36.752 22.3287 36.7953 22.2471C36.8604 22.1253 36.8904 21.9176 36.8031 21.7969C36.7387 21.7099 36.3775 21.8497 36.4818 21.7236C36.5286 21.6677 36.7546 21.7416 36.8246 21.6387C36.8945 21.5364 36.8625 21.2958 36.8461 21.2002C36.8297 21.1074 36.5523 21.1845 36.5326 21.1787C36.4195 21.1425 36.2671 20.9789 36.266 20.9639C36.1584 20.1764 36.5663 19.3926 36.3373 18.6367C36.3184 18.5796 36.033 18.6446 36.0209 18.6377C35.8774 18.4463 36.6825 18.5337 36.934 18.3623C36.3326 18.4402 36.4336 18.3409 36.3539 18.2031C36.3147 18.1374 36.0845 18.1974 36.06 18.1934C35.6961 18.1257 36.1458 18.0044 36.2387 17.9775C36.5772 17.8751 36.1628 17.8393 36.3891 17.7715C36.6135 17.7031 36.9636 17.7796 36.9457 17.6387C36.7258 17.6193 36.1707 17.7791 36.0688 17.6797C35.6851 17.3116 36.0526 16.5285 36.0619 16.2031C36.0718 15.8782 36.0204 15.7847 36.0746 15.5879C36.1722 15.2374 35.7711 15.4143 35.5521 15.2383C35.3328 15.0658 36.3713 15.0131 36.5873 14.9512C36.8026 14.8885 36.5716 14.8892 36.6869 14.834C36.8022 14.7786 36.9636 14.8359 36.9955 14.7412C37.0274 14.6453 36.5974 14.4683 36.3627 14.4785C35.8656 14.4988 35.3737 14.6896 35.5141 14.4414C35.5236 14.4269 35.7986 14.4195 35.8168 14.3662C35.9527 13.9428 35.8765 13.5353 35.9623 13.1035C35.9746 13.0435 36.2811 13.0204 36.2914 12.9844C36.297 12.9646 36.3006 12.9463 36.3031 12.9297C36.3487 12.635 35.8993 12.8455 35.3363 12.8125C36.0779 12.6657 36.5014 12.4524 36.4398 12.2002C36.4032 12.0501 36.0906 12.1605 35.8402 12.124C35.7656 12.1123 35.9553 11.9509 35.8012 11.9717C35.2949 12.042 34.7736 12.287 34.9232 11.9775C34.9346 11.9634 35.2076 11.9251 35.2133 11.8828C35.2507 11.6062 34.7326 11.7181 34.5961 11.4707C34.4892 11.2765 34.6938 10.8159 34.6752 10.5625C35.4919 10.3323 35.2393 10.1594 34.6508 10.2314C34.6287 10.07 34.5486 9.91162 34.5824 9.73925C34.5947 9.68025 34.8382 9.64485 34.8627 9.63086C35.2333 9.41401 34.6673 9.50661 34.6361 9.47949C34.322 9.17773 34.6488 8.76095 34.143 8.53222C34.1249 8.52444 33.5527 8.66876 33.9389 8.45507C33.9666 8.44103 34.2564 8.48025 34.2289 8.31152C34.2011 8.14187 34.4153 7.7464 34.0873 7.59375C34.0082 7.55802 33.5082 7.5472 33.8363 7.33398C33.8815 7.30538 34.048 7.27551 34.1322 7.22851C34.4009 7.07661 33.817 7.19968 34.2816 6.98144C34.6267 6.81839 34.8902 6.62848 34.8393 6.48632C34.8445 6.48158 34.8495 6.47648 34.8549 6.47168C34.7265 6.3413 34.5907 6.21362 34.4184 6.14648C34.3894 6.13707 34.3275 6.2983 34.2797 6.38086C34.2187 6.37848 34.1739 6.37163 34.1703 6.34961C34.151 6.23063 34.2028 6.04049 34.1693 5.92187C34.1531 5.86516 33.8783 5.97349 33.8705 5.96484C33.7905 5.85489 33.7528 5.74564 33.7406 5.63671C33.7125 5.38408 33.8058 5.12353 33.8383 4.8125C33.8487 4.74155 33.4173 4.51926 33.7436 4.33691C33.8468 4.28676 34.0381 4.29141 34.2494 4.31445ZM41.8002 58.7178C41.7867 58.7225 41.7821 58.8174 41.7963 58.8213C42.1322 58.8418 42.1401 58.6432 41.8002 58.7178ZM37.2426 27.5254C37.795 27.5902 37.8076 27.1282 37.2494 27.2842C37.2206 27.2922 37.215 27.5192 37.2426 27.5254ZM37.56 23.1611C37.8417 23.1293 37.7525 23.0365 37.4945 23.0937C37.4792 23.0971 37.4723 23.1709 37.56 23.1611ZM36.7641 16.8135C36.7508 16.8183 36.7483 16.9168 36.7621 16.918C37.0977 16.9376 37.1036 16.7366 36.7641 16.8135ZM38.517 16.5723C38.5031 16.5672 38.0215 16.6085 38.0082 16.6162C37.7365 16.7665 38.7787 16.6793 38.517 16.5723ZM34.6508 10.2324C34.659 10.3406 34.6859 10.4447 34.6957 10.5527C34.3449 10.5431 34.2714 10.4314 34.6508 10.2324ZM36.5287 6.83593C36.5229 6.85581 36.5084 6.87767 36.4857 6.90332L36.5785 7.17285C36.5449 7.1893 36.5065 7.20832 36.4643 7.23144C36.3679 7.28218 36.1382 7.48041 36.0385 7.54785C36.1876 7.5213 36.3457 7.49067 36.4262 7.5205C36.4514 7.52989 36.4729 7.54174 36.4916 7.55371C36.7382 7.60723 37.0919 7.72802 37.1264 7.73535C37.7626 7.8678 37.1328 7.45747 37.0922 7.4082C36.9278 7.16333 37.1061 7.06498 36.9584 6.93261C36.9105 6.89162 36.7135 6.85802 36.5287 6.83593ZM36.1576 7.14843C36.1398 7.15913 36.1204 7.16714 36.102 7.17675C36.0486 7.22943 35.9905 7.28668 35.9789 7.29101C35.9256 7.31045 35.9098 7.29448 35.9008 7.26953C35.7072 7.34753 35.5645 7.40305 35.7045 7.5498C35.7455 7.59255 35.8651 7.57567 35.9984 7.55273C36.0118 7.52636 36.0503 7.47037 36.1283 7.37597C36.1508 7.35665 36.3368 7.09671 36.3109 7.04785C36.2664 7.07863 36.2161 7.11316 36.1576 7.14843ZM36.5785 7.17285C36.9426 6.99444 36.8161 7.18681 36.6264 7.31152L36.5785 7.17285ZM37.3305 6.70312C37.1923 6.73439 37.2722 6.77331 37.4193 6.77734L37.3881 6.6875C37.3692 6.69219 37.3496 6.69748 37.3305 6.70312ZM37.518 6.66406L37.5551 6.77148C37.5759 6.76894 37.5973 6.76779 37.6186 6.76367C37.7643 6.72493 37.671 6.6466 37.518 6.66406ZM36.2064 6.49511C36.1362 6.50601 36.0818 6.51872 36.0395 6.53222C35.9501 6.67365 35.9123 6.7744 36.0141 6.72461C36.0225 6.71928 36.1068 6.61598 36.2064 6.49511ZM33.7855 6.13281C33.9961 6.12857 34.0537 6.39707 34.2367 6.42871C34.2483 6.43021 34.2628 6.41001 34.2797 6.38086C34.423 6.38643 34.6572 6.35619 34.6654 6.35937C34.7675 6.3938 34.8217 6.43731 34.8393 6.48632C34.8058 6.5165 34.774 6.54475 34.7455 6.57226C34.2536 6.67237 33.9872 6.5881 33.8422 6.52734C33.696 6.46004 33.6539 6.38992 33.6381 6.33203C33.6147 6.21565 33.7071 6.13946 33.7816 6.13281C33.7829 6.13272 33.7842 6.13287 33.7855 6.13281ZM35.0961 5.57421C35.1769 5.09578 34.7819 5.65854 34.7104 6.02148C34.6331 6.38102 35.0683 5.71777 35.0961 5.57421ZM36.5336 6.06738C36.5467 5.97641 36.4937 5.99989 36.4105 6.07519C36.4521 6.07177 36.4936 6.06984 36.5336 6.06738ZM35.9428 5.58496C35.9569 5.59446 35.9718 5.60589 35.9896 5.61523C35.9984 5.61946 36.0131 5.62104 36.0307 5.625C36.1033 5.49898 36.1533 5.37942 36.1459 5.27343C36.0791 5.37713 36.0105 5.48054 35.9428 5.58496ZM36.0131 4.72461C36.0025 4.79099 35.9834 4.88086 35.9525 4.99218C35.8723 4.99252 35.7833 4.99004 35.7016 4.99023C35.6187 4.96565 35.5447 4.92714 35.473 4.88379C35.5792 4.79648 35.8213 4.70713 36.0219 4.63379C36.0189 4.66073 36.0166 4.69117 36.0131 4.72461ZM36.2523 4.45703C36.4426 4.47937 36.2624 4.54583 36.0219 4.63379C36.0297 4.56298 36.0356 4.51335 36.0395 4.47851C36.1334 4.46679 36.2203 4.45376 36.2523 4.45703ZM36.0316 4.39453C36.0467 4.39617 36.0488 4.39378 36.0395 4.47851C35.8531 4.50177 35.6399 4.5253 35.7758 4.44629C35.8325 4.42075 36.011 4.40376 36.0316 4.39453Z" fill="white"/>
<path d="M55.4823 45.2195C55.6021 44.9427 56.8372 45.0431 56.6317 45.323C56.5945 45.374 56.2773 45.1144 56.1532 45.1619C55.9276 45.25 56.6582 45.506 56.2265 45.5505C56.1475 45.5586 55.4763 45.2363 55.4804 45.2185L55.4823 45.2195ZM36.7343 7.32301C37.0107 7.32128 37.3102 7.52772 37.5204 7.74391C37.5863 7.81122 37.4847 7.97177 37.5273 8.02613C37.6108 8.13227 37.7412 8.08322 37.8192 8.20289C37.8441 8.24412 37.7006 8.50379 37.7294 8.53981C37.8868 8.73482 38.1048 8.73607 38.289 8.87281C39.1955 9.54696 40.1456 10.0812 41.0692 10.7078C41.3754 10.9143 41.635 11.358 42.0146 11.4412C42.0596 11.4509 42.1657 11.2143 42.1835 11.2C42.4586 10.9835 42.1623 11.4116 42.2001 11.5144C42.3552 11.92 42.6554 12.1297 42.9804 12.2166C43.1188 12.2525 43.2764 11.747 43.2401 12.0642C43.2367 12.0869 43.0622 12.297 43.0771 12.3425C43.1148 12.4441 43.2732 12.4885 43.3173 12.5427C43.3999 12.6481 43.4197 12.6576 43.5165 12.7254C43.6487 12.8209 43.732 13.0415 43.9101 13.0886C43.9488 13.0982 44.0669 12.8385 44.1435 12.8328C44.2212 12.8283 44.3354 12.9362 44.3417 13.0213C44.3474 13.106 44.2019 13.2742 44.1806 13.3211C44.0929 13.5106 44.1603 13.52 44.2577 13.4802C44.3612 13.4366 44.5003 13.3368 44.5146 13.3377C45.0085 13.3847 45.1007 13.8712 45.4159 14.1091C45.6552 14.2889 45.9774 14.3982 46.1913 14.5867C46.4459 14.8125 46.5735 15.1112 46.8427 15.2976C46.8714 15.3167 47.0488 15.0363 47.0839 15.0603C47.4571 15.3165 47.7777 15.6325 47.9716 16.0916C47.9908 16.1378 47.7587 16.3213 47.7665 16.3806C47.8199 16.7398 47.7633 17.4478 48.7177 16.6072C48.8244 16.7665 48.9584 16.9541 48.912 17.2537C48.8821 17.4466 48.5954 17.613 48.7821 17.5994C48.8246 17.5953 48.9804 17.3652 49.0292 17.3767C49.2352 17.4258 49.3254 17.6287 49.5575 17.6472C49.6051 17.6505 49.7643 17.4617 49.8026 17.4353C50.1128 17.2291 49.8191 17.7702 49.8134 17.824C49.7759 18.2292 49.9937 18.257 50.1562 18.4197C50.1939 18.4565 50.374 18.1729 50.4189 18.199C50.6459 18.3463 50.827 18.5571 50.914 18.8445C50.9326 18.9089 50.6984 19.0777 50.6972 19.1189C50.6946 19.2968 51.0843 18.9297 51.0888 19.0945C51.0901 19.1287 50.9122 19.2934 50.8964 19.3162C50.6573 19.6646 51.108 19.2848 51.1337 19.2849C51.4225 19.3159 51.0964 19.8617 51.3134 19.9529C51.3399 19.9634 51.5136 19.7037 51.5751 19.7468C51.9878 20.0348 52.3001 20.469 52.4648 20.992C52.4902 21.0729 52.2865 21.1943 52.2694 21.2175C52.0042 21.5817 52.4655 21.2054 52.4999 21.2068C52.754 21.238 52.516 21.7114 53.1239 21.322C53.4089 21.882 53.9327 22.2201 54.2265 22.7654C54.3412 22.9771 54.4198 23.2163 54.4315 23.5047C54.4328 23.5176 54.1958 23.6917 54.1991 23.7166C54.2356 24.0171 54.5507 23.684 55.0927 23.4666C55.2298 23.4131 54.788 23.9375 54.7558 23.9763C54.6396 24.1219 54.2734 24.3613 54.2538 24.3943C54.1066 24.653 55.2266 23.743 55.3261 23.8689C55.3232 23.8768 55.1074 24.0201 55.0927 24.0476C55.0527 24.131 55.1594 24.0979 55.1122 24.1863C55.0019 24.3903 54.4645 24.8393 54.871 24.7009C54.9252 24.6816 55.5613 24.1688 55.6171 24.3084C55.6387 24.3636 55.8002 24.5622 55.7978 24.6511C55.795 24.7395 55.5521 24.8522 55.5458 24.863C55.3689 25.2172 55.2093 25.2423 54.8358 25.6091C54.461 25.9719 55.4598 25.2598 55.5946 25.2146C55.73 25.171 55.5682 25.4461 55.5019 25.5281C55.4363 25.6103 55.2741 25.6684 55.2421 25.7234C55.036 26.0853 55.7999 25.465 55.9999 25.4158C56.4749 25.3039 55.7706 25.8927 55.7616 26.0545C55.7603 26.0994 55.922 25.9684 55.9569 25.9871C56.0902 26.0682 55.8835 26.2782 56.1855 26.2879C56.2354 26.2865 56.7783 26.1482 56.4618 26.407C56.4157 26.4437 56.2001 26.5193 56.1806 26.5935C56.153 26.7062 56.1752 26.8637 56.2831 26.9158C56.3629 26.954 56.6675 26.7242 56.5995 26.8533C56.5685 26.9101 56.341 26.9371 56.2987 27.0349C56.2571 27.1329 56.3377 27.2927 56.371 27.3543C56.4044 27.4147 56.652 27.2725 56.6718 27.2703C56.786 27.2599 56.9646 27.3393 56.9687 27.3513C57.2302 27.9304 56.9216 28.5981 57.1962 29.1179C57.2175 29.1597 57.5034 29.0673 57.5097 29.073C57.6647 29.2017 56.8624 29.2462 56.623 29.4021C57.2131 29.2651 57.1192 29.3485 57.205 29.4422C57.2469 29.487 57.4725 29.4147 57.497 29.4148C57.8615 29.4248 57.4192 29.5653 57.329 29.5955C56.9976 29.7087 57.4099 29.6896 57.1884 29.7644C56.9678 29.8379 56.618 29.8211 56.6396 29.9187C56.8583 29.9098 57.4046 29.7364 57.5087 29.7986C57.6151 29.863 57.6667 29.9538 57.6855 30.0603C57.7361 30.3459 57.5389 30.718 57.5273 30.8923C57.5117 31.1323 57.5599 31.2022 57.498 31.3474C57.3853 31.6075 57.7928 31.4721 58.0009 31.6052C58.2087 31.7405 57.1715 31.7713 56.9521 31.8162C56.7329 31.8601 56.9627 31.8598 56.8437 31.8982C56.7248 31.9363 56.5691 31.8958 56.5292 31.9607C56.4897 32.0254 56.9 32.1562 57.1337 32.157C57.6289 32.1586 58.1366 32.0337 57.9706 32.2185C57.9574 32.2288 57.687 32.2225 57.663 32.2615C57.48 32.571 57.4894 32.8734 57.3231 33.1746C57.2981 33.2153 56.9962 33.1995 56.9784 33.2234C56.8 33.4739 57.3046 33.3571 57.8788 33.4578C57.1233 33.4711 56.6662 33.5698 56.6708 33.7488C56.6733 33.8568 57.0017 33.8219 57.2372 33.8816C57.3082 33.8998 57.0861 33.9877 57.2411 33.9949C57.7496 34.0192 58.3135 33.9203 58.0956 34.1218C58.0804 34.1301 57.8093 34.1154 57.7919 34.1443C57.6892 34.3345 58.2194 34.3383 58.2899 34.5408C58.3453 34.7 58.0286 34.9917 57.9784 35.1726C57.1303 35.1821 57.3266 35.3447 57.912 35.4089C57.8891 35.5261 57.9234 35.6534 57.8427 35.7664C57.8151 35.8053 57.5685 35.78 57.5419 35.7849C57.128 35.8586 57.6898 35.9096 57.7167 35.9353C57.9324 36.2111 57.4985 36.4265 57.914 36.697C57.9379 36.7067 58.5138 36.737 58.0858 36.7957C58.0561 36.7992 57.7898 36.7062 57.7655 36.8279C57.7414 36.9514 57.418 37.1696 57.6835 37.3504C57.7475 37.394 58.2205 37.5228 57.8427 37.5886C57.791 37.5971 57.6228 37.5764 57.5282 37.5877C57.2271 37.6238 57.8199 37.6842 57.3114 37.7175C56.8025 37.7508 56.4172 37.8493 56.7548 38.0379C56.7704 38.0444 57.2314 38.1149 57.2216 38.1677C57.2109 38.2173 57.1698 38.2775 57.1366 38.3357C57.1134 38.3769 57.0944 38.4174 57.0927 38.4539C57.0909 38.4957 57.3766 38.4934 57.3896 38.5007C57.5294 38.803 57.2499 38.9851 57.1034 39.2771C57.0761 39.33 57.4544 39.5393 57.1269 39.6101C56.7678 39.6855 55.3558 39.3865 55.662 39.6892C55.7862 39.8077 57.5739 40.2045 56.6083 40.2644C56.7827 40.6798 56.2462 40.9467 56.5058 41.3826C56.5194 41.4026 57.0066 41.549 56.994 41.5886C56.9716 41.6467 56.7321 41.6352 56.7079 41.6746C56.6031 41.8389 56.7702 42.0419 56.704 42.2078C56.6793 42.2707 56.4425 42.1986 56.413 42.2732C56.3846 42.3476 56.69 42.4663 56.5146 42.5388C56.3806 42.5936 55.7151 42.5327 55.6171 42.6199C56.2553 42.7628 56.2269 42.8315 56.3671 42.9968C56.3944 43.0287 56.623 43.0515 56.6474 43.0691C56.7511 43.1419 56.558 43.1449 56.6718 43.2175C56.6992 43.2351 56.9161 43.2841 56.9521 43.3015C57.2561 43.4502 56.7376 43.4672 56.6474 43.4695C56.3046 43.4794 56.5794 43.5814 56.4374 43.616C56.2955 43.6503 56.1576 43.5198 56.0634 43.5759C55.8686 43.6924 55.8591 43.8963 55.8134 44.0496C55.7976 44.1104 56.0946 44.1349 56.1005 44.1453C56.1449 44.2902 55.8063 44.3487 56.369 44.5525C54.852 44.2985 56.4952 44.6623 56.1552 44.7771C56.1276 44.786 55.4155 44.6427 55.3241 44.5632C55.233 44.4837 55.4732 44.4511 55.329 44.3367C55.2952 44.3097 54.655 44.0534 54.6181 44.03C54.3306 43.847 55.3912 44.0733 55.4511 44.0808C56.0935 44.1579 55.4079 43.8668 55.3661 43.822C55.1748 43.6176 55.3532 43.5215 55.2206 43.3572C55.1351 43.25 54.4435 43.0853 54.4794 43.0252C54.598 42.826 55.5832 42.9641 54.788 42.5759C54.6181 42.4932 53.8501 42.3704 54.4804 42.3464C54.5201 42.3452 55.0913 42.3482 54.7597 42.2078C54.7175 42.1901 54.4966 42.1426 54.4804 42.1277C54.3757 42.0291 54.562 42.0178 54.494 41.9207C54.4261 41.8236 54.32 41.7031 54.413 41.6287C54.469 41.5839 54.8972 41.5968 55.0038 41.5906C55.31 41.5741 54.8474 41.4005 55.2099 41.4236C55.5745 41.4456 56.0967 41.643 56.3505 41.5623C55.7736 41.4468 55.1823 41.323 54.6024 41.2048C54.6727 40.9477 54.9059 40.7236 54.9237 40.4568C54.9232 40.424 54.6078 40.4052 54.6015 40.3689C54.5759 40.2161 54.8182 40.1239 54.7519 39.9597C54.6991 39.8324 54.3863 39.6586 54.3183 39.5291C54.9956 39.5452 54.7927 39.3327 54.869 39.2097C54.8958 39.1665 55.0735 39.1901 55.1356 39.1638C55.3654 39.0633 54.7687 39.0554 54.6786 39.0115C54.297 38.8259 55.6374 38.955 55.622 38.7742C55.6081 38.7608 54.9198 38.5837 54.8749 38.5652C54.5934 38.4421 55.1251 38.5719 55.1835 38.5154C55.29 38.4116 55.4672 38.3472 55.2685 38.198C55.2662 38.1963 55.263 38.1941 55.2597 38.1922C55.176 38.1442 54.7834 38.0291 55.12 37.9802C55.1662 37.9736 55.3979 37.9946 55.4159 37.988C55.6568 37.8582 54.9131 37.8066 54.6659 37.7107C54.4191 37.6158 54.939 37.5191 55.0888 37.4998C55.4737 37.4514 55.2524 37.5597 55.287 37.5662C55.7317 37.634 55.661 37.5357 55.7021 37.4656C56.4328 37.4915 56.394 37.3855 55.7421 37.3923C55.6709 37.3932 55.7361 37.4527 55.7021 37.4656C54.9888 37.3665 54.9025 37.2567 55.5771 37.1619C55.8931 37.1169 56.2573 37.1852 56.1298 37.0027C56.0716 36.9204 55.5674 36.935 55.4325 36.8611C55.1248 36.6934 55.5981 36.4992 55.5273 36.3318C55.5013 36.2715 55.2255 36.325 55.1981 36.2839C55.1249 36.1757 55.3318 36.0826 55.2265 35.9734C55.2116 35.9643 54.9304 35.9854 54.9247 35.9529C54.8924 35.6998 55.0768 35.4775 55.078 35.2107C55.0785 35.0818 54.9142 34.8558 54.9423 34.7224C54.9898 34.4919 55.3982 34.1894 55.287 33.9949C55.2155 33.8687 54.9283 33.9118 54.7294 33.867C54.3442 33.7822 55.0152 33.5586 55.119 33.5261C55.1261 33.5305 55.2004 33.6298 55.3407 33.5642C55.6434 33.5123 55.1319 33.5268 55.119 33.5261C55.1863 33.5055 55.2375 33.2794 55.1796 33.239C55.1482 33.2173 54.881 33.2479 54.8651 33.2371C54.6013 32.9601 54.5083 32.6773 54.6083 32.3718C54.6133 32.3662 54.9183 32.3459 54.9267 32.3328C55.0458 32.1477 54.6632 32.0745 54.4276 31.9597C54.1922 31.8449 54.2533 31.7298 54.7646 31.5857C54.6871 31.4881 54.8982 31.3097 55.0263 31.2039C55.154 31.0988 54.5677 31.1641 54.5507 31.1589C54.16 30.983 54.4425 30.8092 54.4755 30.574C54.4766 30.5656 54.477 30.5571 54.4774 30.5486C54.4851 30.4292 54.3624 30.2237 54.2763 30.1199C54.2076 30.0388 54.3336 29.9566 54.2294 29.8923C54.2149 29.8839 53.9578 29.9483 53.9472 29.947C53.6194 29.9237 54.2618 29.8325 54.371 29.7898C54.7677 29.6339 54.9764 29.5379 54.7558 29.4627C54.703 29.4439 53.7806 29.5864 53.7167 29.5584C53.6353 29.5188 53.9642 29.4576 53.87 29.4177C53.8597 29.4151 53.6638 29.4673 53.663 29.4295C53.6568 29.2539 53.7173 29.0426 53.6405 28.8865C53.6288 28.8665 53.3324 29.0014 53.3134 28.9744C53.2263 28.845 53.1793 28.695 53.2587 28.4968C53.2791 28.4475 53.4977 28.3749 53.5565 28.3396C53.9098 28.1213 53.3348 28.3035 53.3202 28.2996C52.9442 28.1775 53.3133 27.7255 52.9257 27.5838C52.8973 27.5765 52.2964 27.8078 52.7255 27.4636C52.7574 27.4392 53.1906 27.0831 52.8407 27.2488C52.8177 27.2605 52.5976 27.4492 52.5868 27.3797C52.5748 27.3084 52.3585 27.3331 52.5663 27.0759C52.6321 26.9951 53.0488 26.6115 52.6317 26.7976C52.5975 26.8107 51.7075 27.2957 52.2392 26.8445C52.3267 26.7699 52.9256 26.3372 52.5546 26.4734C52.4833 26.5006 52.3743 26.6294 52.2597 26.6482C52.0844 26.679 52.1696 26.4654 51.8476 26.5877C51.7897 26.6091 51.3508 26.8599 51.6093 26.575C51.6497 26.5303 51.8532 26.3918 51.8554 26.3484C51.8607 26.1429 51.6266 26.1162 51.6513 25.8797C51.6591 25.7956 51.9829 25.5632 52.0253 25.447C52.0675 25.3312 52.0622 25.166 51.8798 25.2332C51.6991 25.3028 51.2643 25.769 51.163 25.7302C51.0887 25.7012 51.0262 25.6605 50.9726 25.6111C50.7136 25.3733 50.672 24.9321 50.4579 24.6336C50.4201 24.5813 50.2903 24.7738 50.2226 24.7078C49.9715 24.4609 49.398 24.1692 49.5273 23.6111C49.6305 23.1634 50.0601 23.1813 50.0399 22.9353C50.0287 22.8165 49.4325 23.2608 49.3993 23.2625C49.0793 23.274 49.2052 22.9375 48.996 22.8699C48.9528 22.8563 48.7686 23.0966 48.7343 23.0828C48.6158 23.0375 48.6216 22.8556 48.5253 22.7947C48.4816 22.7679 48.3281 22.9366 48.3075 22.8923C48.257 22.7872 48.2539 22.65 48.3261 22.4216C48.3326 22.4008 48.5779 22.2434 48.5273 22.1785C48.4439 22.0746 48.4701 21.8057 48.2089 21.8572C48.1305 21.873 47.7681 22.2487 47.9472 21.9207C47.9862 21.8506 48.4353 21.4177 47.9794 21.7302C47.9021 21.7818 47.2628 22.181 47.5185 21.7752C47.5858 21.6682 47.892 21.2516 47.7968 21.2722C47.7825 21.2765 47.6113 21.5012 47.5595 21.49C47.3811 21.4476 47.2792 21.3113 47.0995 21.2644C47.0509 21.2534 46.9012 21.5096 46.8358 21.4851C46.6557 21.418 46.5421 21.2135 46.4745 21.0291C46.4499 20.9606 46.6449 20.8123 46.6591 20.7898C46.8897 20.424 46.4695 20.8188 46.4286 20.8269C46.1793 20.8711 46.272 20.5925 46.1181 20.5496C46.076 20.5373 45.9137 20.7602 45.8915 20.7732C45.6723 20.8966 46.044 20.5714 46.0429 20.4959C46.0373 20.2848 45.9015 20.1934 45.7685 20.1228C45.7193 20.0982 45.5556 20.374 45.5136 20.3504C45.2643 20.2037 45.0621 19.9879 44.9657 19.6746C44.9483 19.615 45.132 19.4506 45.1601 19.4011C45.3569 19.0549 44.9268 19.3893 44.8749 19.4119C44.6375 19.5141 44.7426 19.3207 44.6396 19.2859C44.1321 19.1205 43.7557 18.6259 43.4481 18.2693C43.048 17.8068 42.8169 17.3375 42.3241 17.0515C42.2932 17.0334 42.1309 17.3165 42.1015 17.3054C41.963 17.2416 41.8392 17.1517 41.7235 17.0623C41.5317 16.9141 41.3494 16.757 41.1181 16.6716C41.0865 16.6629 40.9535 16.9416 40.8993 16.9314C40.7863 16.9119 40.6896 16.8277 40.6542 16.6873C40.6372 16.6196 40.838 16.4361 40.8183 16.3718C40.7709 16.2228 40.6724 16.1335 40.5409 16.1091C40.4849 16.0996 40.3833 16.4086 40.3241 16.3757C39.9153 16.1567 39.5087 15.9795 39.2978 15.3982C39.2835 15.3584 39.5649 14.7813 39.4452 14.8562C39.3559 15.0103 39.2564 15.1948 39.164 15.3611C38.5278 15.1338 38.0334 14.6491 37.4179 14.3474C37.3919 14.3366 37.3041 14.6654 37.2538 14.6433C36.9622 14.5133 36.6417 14.4854 36.4501 14.0496C36.4314 14.0055 36.6611 13.4551 36.5351 13.5037C36.5115 13.5129 36.3422 13.5339 36.2606 13.6414C36.2487 13.6585 36.1768 13.9289 36.1288 13.9197C35.8515 13.8613 35.5937 13.7009 35.3759 13.4441C35.3408 13.4021 35.4861 13.1376 35.4618 13.1052C35.2885 12.8776 34.966 13.0054 34.8319 12.6746C34.7427 12.4518 34.9631 11.9846 35.0468 11.4793C35.0585 11.4079 34.9696 11.3657 35.0595 11.0857C35.2855 10.3812 35.5914 9.62945 35.8271 8.87672C35.8778 8.7147 35.6946 8.84534 35.9003 8.48219C35.9143 8.45793 36.0489 8.35929 36.1161 8.23512C36.1627 8.14896 36.2312 7.85646 36.3026 7.75074C36.3739 7.64562 36.3281 7.89407 36.4276 7.77516C36.5279 7.65432 36.6148 7.32474 36.7343 7.32301ZM55.6591 43.1043C55.4541 43.1005 55.6541 43.2667 55.9091 43.2713C56.1136 43.2746 55.9137 43.1087 55.6591 43.1043ZM55.7968 42.0574C56.1784 42.0013 54.7303 41.6863 54.995 41.8806C55.01 41.8918 55.7745 42.0606 55.7968 42.0574ZM55.1356 40.658C54.7718 40.6721 55.5389 40.8696 55.6825 40.8611C56.1561 40.8308 55.5001 40.6422 55.1356 40.658ZM57.956 35.1755C58.2914 35.2483 58.3321 35.3433 57.913 35.4089C57.9346 35.3315 57.9366 35.2535 57.956 35.1755ZM56.8349 30.4158C56.5008 30.4285 56.4945 30.5694 56.8319 30.49C56.8452 30.4862 56.8482 30.4173 56.8349 30.4158ZM55.248 26.3054C55.0061 26.4537 55.1098 26.4709 55.3241 26.3181C55.3366 26.3087 55.3226 26.2592 55.248 26.3054ZM53.9989 23.3914C53.5311 23.6804 53.7015 23.9682 54.0898 23.5437C54.11 23.5218 54.0223 23.3767 53.9989 23.3914ZM35.3964 11.4324C35.2537 11.7347 35.3769 11.805 35.4608 11.4685C35.4639 11.4549 35.4024 11.4199 35.3964 11.4324Z" fill="white"/>
<ellipse cx="29.1197" cy="61.4729" rx="11.3141" ry="4.5" transform="rotate(-16.1705 29.1197 61.4729)" fill="white"/>
</svg>
