<svg width="429" height="398" viewBox="0 0 429 398" fill="none" xmlns="http://www.w3.org/2000/svg">
<path d="M311.084 262.532C311.678 262.337 313.402 264.578 312.666 264.638C312.533 264.648 312.444 263.733 312.185 263.592C311.711 263.334 312.429 264.951 311.709 264.278C311.577 264.153 311.05 262.547 311.083 262.529C311.083 262.53 311.084 262.531 311.084 262.532ZM324.214 223.934C324.077 223.088 324.963 224.188 325.067 224.256C325.891 224.711 326.156 224.299 326.672 224.136C326.79 224.1 326.401 223.429 326.509 223.368C327.073 223.057 327.738 222.926 328.409 223.099C328.561 223.139 328.603 223.796 328.682 223.85C329.024 224.072 328.793 222.869 329.119 223.063C329.186 223.103 329.28 223.651 329.304 223.708C329.673 224.604 329.51 223.253 329.547 223.214C329.982 222.702 330.581 224.029 331.025 223.752C331.079 223.716 330.832 223.048 330.995 222.991C332.081 222.619 333.329 222.695 334.43 223.215C334.606 223.295 334.502 223.827 334.516 223.891C334.722 224.899 334.782 223.536 334.835 223.484C335.274 223.103 335.652 224.244 335.958 222.626C336.082 222.669 336.241 222.704 336.356 222.733C339.069 223.117 339.826 224.69 340.398 225.58C340.928 226.585 341.088 227.576 340.682 228.61C340.671 228.638 340.018 228.775 339.998 228.828C339.776 229.459 340.753 229.085 342.087 229.206C342.422 229.245 340.976 229.851 340.868 229.89C340.478 230.058 339.484 230.153 339.408 230.198C338.829 230.541 342.068 229.914 342.13 230.288C342.118 230.3 341.519 230.348 341.464 230.387C341.292 230.508 341.543 230.562 341.35 230.682C340.901 230.959 339.32 231.219 340.279 231.399C340.407 231.424 342.256 231.154 342.202 231.491C342.187 231.576 342.215 231.839 342.204 232.063C342.258 232.289 342.1 232.903 342.062 233.133C342.011 233.237 341.955 233.326 341.896 233.362C341.735 233.459 341.201 233.168 341.17 233.168C340.29 233.268 340.026 233.02 338.852 232.802C337.683 232.581 340.338 233.476 340.608 233.656C340.875 233.835 340.162 233.873 339.924 233.856C339.686 233.842 339.356 233.63 339.213 233.642C338.282 233.725 340.457 234.291 340.827 234.573C341.701 235.244 339.67 234.742 339.378 234.927C339.299 234.979 339.761 235.092 339.779 235.171C339.836 235.491 339.172 235.407 339.608 235.918C339.681 236.001 340.739 236.709 339.829 236.512C339.698 236.483 339.244 236.226 339.092 236.289C338.865 236.382 338.638 236.631 338.724 236.87C338.788 237.047 339.635 237.236 339.323 237.293C339.183 237.318 338.78 236.989 338.557 237.051C338.335 237.112 338.21 237.452 338.167 237.591C338.126 237.726 338.747 237.919 338.784 237.947C338.984 238.112 339.156 238.491 339.145 238.513C338.709 239.665 337.239 240.186 337.011 241.387C336.992 241.482 337.623 241.747 337.628 241.765C337.73 242.182 336.245 241.107 335.607 241.01C336.842 241.638 336.562 241.634 336.59 241.899C336.603 242.029 337.099 242.235 337.145 242.271C337.781 242.806 336.805 242.398 336.603 242.318C335.859 242.026 336.62 242.582 336.123 242.386C335.631 242.19 335.031 241.669 334.937 241.853C335.34 242.148 336.546 242.648 336.649 242.893C337.037 243.829 335.561 244.317 335.212 244.67C334.864 245.028 334.849 245.216 334.545 245.357C333.993 245.608 334.899 245.98 335.083 246.499C335.264 247.019 333.391 245.562 332.943 245.316C332.498 245.068 332.904 245.4 332.642 245.289C332.381 245.176 332.16 244.886 332.003 244.931C331.847 244.973 332.393 245.774 332.801 246.118C333.668 246.845 334.732 247.389 334.186 247.443C334.154 247.445 333.684 247.032 333.588 247.059C332.844 247.281 332.445 247.772 331.737 247.999C331.639 248.028 331.136 247.549 331.073 247.56C330.421 247.679 331.454 248.251 332.297 249.277C330.981 248.159 330.058 247.627 329.821 247.904C329.677 248.072 330.288 248.515 330.605 248.967C330.7 249.103 330.198 248.9 330.452 249.148C331.283 249.961 332.381 250.671 331.723 250.652C331.693 250.65 331.243 250.2 331.175 250.221C330.733 250.356 331.62 251.183 331.447 251.607C331.309 251.941 330.356 251.9 330.007 252.1C328.583 250.783 328.676 251.336 329.552 252.357C329.343 252.499 329.21 252.749 328.914 252.79C328.812 252.804 328.445 252.374 328.395 252.34C327.606 251.786 328.462 252.772 328.46 252.846C328.408 253.607 327.386 253.23 327.658 254.304C327.675 254.349 328.572 255.337 327.789 254.729C327.735 254.685 327.443 254.118 327.224 254.26C327.006 254.402 326.162 254.202 326.321 254.902C326.359 255.071 326.925 256.032 326.225 255.511C326.13 255.44 325.891 255.136 325.723 254.998C325.187 254.559 326.046 255.616 325.184 254.835C324.32 254.054 323.565 253.565 323.824 254.397C323.836 254.429 324.473 255.293 324.378 255.352C324.226 255.445 323.886 255.44 323.752 255.562C323.69 255.623 324.162 256.096 324.16 256.116C323.996 256.622 323.555 256.647 323.074 256.707C323.07 256.712 323.054 256.721 323.049 256.726C322.886 256.735 322.712 256.75 322.543 256.787C322.422 256.814 322.657 257.76 322.062 257.289C321.415 256.77 319.785 253.902 319.77 254.854C319.767 255.235 321.804 258.89 320.279 257.299C320.05 257.83 319.521 257.846 319.074 258.005C319.178 258.186 319.275 258.367 319.3 258.497C319.351 258.791 318.979 258.344 318.963 258.728C318.929 259.123 319.411 259.756 318.966 260.078C318.443 260.406 317.672 260.871 315.897 261.081C315.979 261.211 316.066 261.342 316.072 261.377C316.12 261.66 315.821 261.336 315.887 261.636C315.903 261.709 316.16 262.149 316.187 262.233C316.427 262.964 315.614 262.109 315.473 261.959C314.938 261.393 315.202 262.007 314.935 261.818C314.698 261.649 314.659 261.297 314.495 261.165C314.315 261.154 314.128 261.134 313.938 261.106C313.71 261.165 313.519 261.304 313.337 261.393C313.221 261.454 313.636 261.993 313.631 262.02C313.482 262.307 312.879 261.819 313.428 263.069C311.505 260.126 313.456 263.447 312.765 263.034C312.709 262.999 311.845 261.583 311.825 261.313C311.806 261.043 312.221 261.402 312.172 260.992C312.169 260.963 312.111 260.809 312.034 260.606C310.501 260.045 309.034 259.137 308.417 258.189C307.677 257.22 308.398 257.393 308.049 256.793C307.521 255.766 307.129 255.161 307.015 254.532C307.014 254.492 307.017 254.45 307.023 254.407C307.046 254.266 307.731 254.195 307.742 254.057C307.806 253.314 307.481 252.751 307.488 252.071C307.558 248.757 308.123 246.134 308.959 243.68C309.241 242.866 310.091 242.076 310.091 241.208C310.089 241.106 309.512 240.981 309.47 240.948C308.855 240.435 309.955 240.897 310.165 240.769C310.995 240.257 311.326 239.534 311.383 238.797C311.405 238.483 310.21 238.313 310.934 238.284C310.985 238.283 311.531 238.593 311.624 238.544C311.833 238.431 311.869 238.069 311.972 237.958C312.174 237.747 312.187 237.704 312.301 237.472C312.462 237.156 312.922 236.914 312.96 236.517C312.967 236.43 312.345 236.241 312.305 236.075C312.266 235.909 312.47 235.627 312.658 235.593C312.846 235.559 313.271 235.835 313.383 235.87C314.321 236.174 313.314 235.211 313.305 235.142C313.265 234.47 313.67 234.082 314.081 233.724C314.347 233.482 314.617 233.253 314.802 232.964C315.174 232.377 315.395 231.622 315.839 231.103C316.365 230.497 317.066 230.209 317.553 229.602C317.605 229.538 316.989 229.091 317.054 229.011C317.742 228.155 318.627 227.457 319.789 227.187C319.905 227.161 320.209 227.765 320.347 227.772C321.202 227.787 322.665 228.365 321.429 225.736C321.864 225.588 322.401 225.403 323.023 225.722C323.423 225.928 323.561 226.675 323.674 226.263C323.699 226.17 323.323 225.656 323.387 225.559C323.66 225.15 324.186 225.117 324.437 224.642C324.49 224.542 324.233 224.038 324.214 223.934ZM329.965 252.07C330.416 252.709 330.342 252.919 329.554 252.357C329.701 252.274 329.819 252.16 329.965 252.07ZM312.749 260.839C313.228 261.505 313.241 261.29 313.164 260.952C313.027 260.919 312.888 260.88 312.749 260.839ZM329.796 231.994C329.795 232.029 330.034 232.622 329.988 232.703C329.824 232.977 329.566 232.995 329.414 233.269C329.377 233.344 329.698 233.927 329.637 234.017C329.468 234.263 329.133 234.222 328.824 234.136C328.711 234.103 328.534 233.581 328.503 233.528C327.991 232.695 328.49 233.904 328.497 233.991C328.506 234.497 328.084 234.021 327.983 234.261C327.956 234.325 328.288 234.854 328.307 234.911C328.477 235.44 328.005 234.417 327.882 234.343C327.535 234.134 327.361 234.295 327.23 234.473C327.186 234.539 327.639 235.108 327.596 235.158C327.35 235.462 327.011 235.616 326.472 235.529C326.37 235.511 326.058 235.045 325.968 234.954C325.326 234.323 325.964 235.376 326.015 235.484C326.234 235.992 325.872 235.651 325.826 235.814C325.626 236.598 324.846 236.95 324.263 237.363C323.646 237.796 322.964 238.09 322.545 238.693C322.448 238.836 322.361 238.995 322.292 239.166C322.269 239.229 322.947 239.535 322.933 239.593C322.731 240.318 322.139 240.828 322.022 241.577C322.015 241.638 322.685 241.863 322.691 241.968C322.707 242.186 322.573 242.384 322.29 242.468C322.153 242.51 321.651 242.149 321.523 242.198C321.225 242.312 321.083 242.517 321.101 242.772C321.11 242.881 321.83 243.02 321.793 243.137C321.541 243.947 321.409 244.698 320.294 245.208C320.218 245.242 318.792 244.9 319.03 245.095C319.421 245.21 319.883 245.333 320.302 245.449C320.236 246.594 319.58 247.514 319.49 248.401C319.487 248.436 320.265 248.385 320.262 248.449C320.251 248.829 320.484 249.062 319.772 249.471C319.756 249.48 319.677 249.498 319.567 249.522C319.257 249.051 318.663 248.342 317.297 247.639C316.716 247.394 316.967 248.298 316.584 248.159C315.18 247.673 314.006 247.849 313.622 247.942C313.191 248.053 313.167 248.128 313.357 248.37C313.656 248.683 314.185 249.731 314.863 250.677C314.959 250.81 315.134 250.74 315.48 251.316C316.117 252.382 316.735 253.558 317.389 254.718C317.417 254.7 317.444 254.681 317.47 254.661C317.525 254.616 317.08 254.042 317.128 253.979C317.329 253.716 317.838 254.003 317.996 253.657C318.119 253.385 317.926 252.596 318.029 252.297C319.007 253.494 319.035 252.849 319.338 252.812C319.443 252.799 319.67 253.142 319.803 253.214C320.297 253.475 319.424 252.426 319.359 252.21C319.169 251.597 319.906 252.519 320.491 253.113L320.259 253.291C320.571 253.559 320.84 253.751 320.921 253.652C320.933 253.634 320.076 252.217 320.034 252.118C319.766 251.475 320.425 252.535 320.603 252.545C320.928 252.562 321.312 252.75 321.213 252.205C321.182 252.042 320.668 251.14 321.298 251.64C321.382 251.706 321.724 252.12 321.759 252.136C322.334 252.339 321.226 251.044 320.969 250.501C320.712 249.961 321.683 250.672 321.95 250.888C322.639 251.448 322.119 251.24 322.17 251.309C322.781 252.135 322.813 251.872 322.98 251.838C324.11 253.069 324.203 252.851 323.15 251.798C323.034 251.683 323.053 251.875 322.98 251.838C321.983 250.531 321.999 250.234 323.218 251.194C323.789 251.644 324.274 252.336 324.333 251.864C324.359 251.649 323.528 250.853 323.418 250.526C323.156 249.791 324.201 250.275 324.32 249.921C324.361 249.792 323.838 249.426 323.851 249.323C323.886 249.05 324.35 249.253 324.331 248.928C324.325 248.895 323.826 248.469 323.866 248.416C324.162 248.007 324.767 247.983 325.131 247.605C325.311 247.417 325.336 246.846 325.565 246.695C325.95 246.445 327.047 246.629 327.12 246.173C327.169 245.877 326.62 245.508 326.338 245.142C325.786 244.441 327.232 245.125 327.456 245.23C327.464 245.234 327.449 245.504 327.789 245.62C328.386 246.001 327.458 245.234 327.456 245.23C327.599 245.302 327.985 245.047 327.939 244.9C327.913 244.82 327.402 244.464 327.395 244.429C327.3 243.63 327.501 243.085 328.074 242.774C328.099 242.78 328.653 243.184 328.685 243.177C329.139 243.068 328.554 242.407 328.287 241.895C328.02 241.38 328.273 241.303 329.372 241.812C329.36 241.553 329.974 241.575 330.34 241.596C330.707 241.614 329.563 240.878 329.548 240.851C329.066 239.992 329.868 240.169 330.227 239.792C330.401 239.612 330.457 239.112 330.451 238.812C330.445 238.576 330.782 238.622 330.691 238.362C330.677 238.326 330.135 238.063 330.117 238.045C329.574 237.523 330.833 238.306 331.087 238.394C332.009 238.707 332.512 238.854 332.239 238.398C332.175 238.289 330.364 237.157 330.302 237.004C330.226 236.806 330.882 237.2 330.786 236.981C330.778 236.963 330.356 236.753 330.416 236.679C330.693 236.329 331.141 236.034 331.292 235.597C331.314 235.538 330.603 235.294 330.623 235.205C330.714 234.8 330.927 234.395 331.409 234.165C331.53 234.11 331.985 234.375 332.136 234.417C333.05 234.666 331.881 233.954 331.861 233.912C331.72 233.487 331.919 233.24 332.154 233.012C332.063 232.903 331.962 232.754 331.844 232.554C331.822 232.517 331.798 231.989 331.699 231.879C331.488 231.883 331.321 231.875 331.485 231.808C331.283 231.72 331.043 231.584 330.954 231.997C330.919 232.162 331.214 233.316 330.862 232.556C330.789 232.397 330.455 231.002 330.606 232.245C330.623 232.453 330.823 234.134 330.387 233.142C330.271 232.88 329.825 231.791 329.796 231.994ZM334.617 242.921C334.002 242.467 333.803 242.683 334.513 243.036C334.542 243.049 334.641 242.94 334.617 242.921ZM319.714 249.758C319.768 249.748 319.806 249.744 319.813 249.751C319.879 249.833 319.899 249.917 319.874 250.014C319.83 249.959 319.781 249.871 319.714 249.758ZM318.579 249.811C318.404 249.756 319.18 249.605 319.567 249.522C319.624 249.609 319.673 249.688 319.714 249.758C319.532 249.791 319.162 249.895 319.128 249.9C318.832 249.94 318.62 249.825 318.579 249.811ZM331.995 241.647C332.643 241.835 330.599 240.592 330.999 241.038C331.022 241.062 331.963 241.638 331.995 241.647ZM314.611 251.212C314.323 250.51 314.218 250.488 314.53 251.213C314.541 251.243 314.621 251.243 314.611 251.212ZM338.198 234.367C337.59 234.14 337.71 234.339 338.286 234.513C338.32 234.523 338.387 234.437 338.198 234.367ZM334.191 230.305C334.015 230.146 333.961 231.841 333.936 231.896C333.833 232.09 333.728 232.132 333.623 232.116C333.666 232.139 333.713 232.162 333.761 232.187C333.732 232.183 333.698 232.178 333.659 232.174C333.544 232.164 333.338 232.203 333.142 232.214L333.119 232.386C333.447 232.348 333.812 232.299 333.893 232.252C334.146 232.372 334.454 232.495 334.805 232.598C334.703 232.5 334.607 232.373 334.518 232.207C334.048 231.348 334.544 230.644 334.191 230.305ZM333.761 232.187C333.904 232.207 333.934 232.228 333.893 232.252C333.847 232.23 333.803 232.208 333.761 232.187ZM339.876 227.983C338.647 228.22 338.733 228.905 339.933 228.378C339.996 228.349 339.94 227.975 339.876 227.983ZM332.128 230.614C332.24 230.664 332.382 230.743 332.583 230.867C332.572 230.716 332.562 230.535 333.096 230.563C333.147 230.566 333.244 230.581 333.357 230.597L333.354 230.615C333.367 230.611 333.38 230.606 333.393 230.602C333.772 230.654 334.286 230.71 333.857 230.414C334.067 230.267 334.23 230.03 333.814 230.088C333.727 230.102 333.598 230.136 333.449 230.182C333.438 230.176 333.426 230.17 333.415 230.164L333.411 230.194C332.995 230.322 332.436 230.525 332.128 230.614ZM333.449 230.182C333.586 230.255 333.687 230.306 333.701 230.314C333.763 230.351 333.815 230.385 333.857 230.414C333.855 230.415 333.854 230.417 333.852 230.418C333.771 230.475 333.59 230.538 333.393 230.602C333.381 230.6 333.369 230.598 333.357 230.597L333.411 230.194C333.424 230.19 333.436 230.186 333.449 230.182Z" fill="white"/>
<path d="M310.553 133.716C313.281 133.286 315.678 134.496 318.192 134.636C318.394 134.65 318.403 133.956 318.435 133.95C319.184 133.819 318.261 135.475 318.571 136.17C318.824 134.806 319.033 135.11 319.537 135.087C319.779 135.075 319.8 134.524 319.834 134.476C320.397 133.786 320.347 134.871 320.338 135.093C320.326 135.917 320.835 135.098 320.822 135.652C320.796 136.198 320.231 136.829 320.642 136.959C320.924 136.531 321.026 135.194 321.429 135.112C322.542 134.892 323.92 135.872 324.845 136.765C325.196 137.105 325.489 137.412 325.725 137.603C326.549 138.279 326.873 138.419 327.251 138.936C327.912 139.88 328.201 138.879 329.033 139.01C329.864 139.16 328.018 140.685 327.751 141.13C327.478 141.568 327.904 141.249 327.798 141.532C327.69 141.813 327.28 141.903 327.397 142.156C327.511 142.402 328.653 142.259 329.105 141.963C330.055 141.324 330.662 140.244 330.893 141.09C330.901 141.14 330.355 141.463 330.422 141.626C330.967 142.906 331.786 143.958 332.198 145.233C332.253 145.409 331.603 145.693 331.628 145.799C331.87 146.892 332.602 145.913 334.006 145.662C332.509 146.531 331.82 147.384 332.23 148.03C332.476 148.422 333.067 147.949 333.682 147.927C333.866 147.92 333.605 148.477 333.938 148.343C335.03 147.91 335.971 146.955 335.967 147.948C335.965 147.992 335.36 148.218 335.392 148.346C335.593 149.179 336.688 148.651 337.258 149.368C337.704 149.927 337.638 151.375 337.884 152.126C336.151 152.998 336.871 153.435 338.203 153.113C338.382 153.595 338.689 154.053 338.734 154.576C338.749 154.754 338.194 154.897 338.149 154.942C337.428 155.641 338.697 155.282 338.79 155.36C339.742 156.219 339.243 157.509 340.577 158.138C340.625 158.16 341.885 157.676 341.107 158.349C341.05 158.394 340.344 158.305 340.512 158.804C340.682 159.308 340.415 160.505 341.278 160.932C341.485 161.034 342.667 161.017 342.023 161.686C341.935 161.776 341.559 161.88 341.388 162.027C340.844 162.499 342.145 162.079 341.182 162.771C340.699 163.118 340.31 163.502 340.172 163.846C340.174 163.853 340.183 163.872 340.186 163.879C340.061 164.226 340.18 164.519 340.691 164.68C340.721 164.692 341.778 164.406 341.858 164.625C341.983 164.97 341.994 165.547 342.153 165.892C342.23 166.057 342.797 165.683 342.821 165.707C343.664 166.704 343.461 167.763 343.704 169.098C343.748 169.342 344.856 169.684 344.338 170.377C343.77 171.137 340.501 171.753 341.608 172.554C342.042 172.856 346.218 172.187 344.389 173.641C345.368 175.105 344.617 176.8 345.558 178.303C345.603 178.368 346.784 178.491 346.784 178.677C346.782 178.952 346.25 179.141 346.226 179.329C346.109 180.122 346.576 180.849 346.459 181.627C346.414 181.918 345.86 181.778 345.801 182.113C345.741 182.441 346.453 182.761 346.032 183.18C345.994 183.217 345.94 183.251 345.873 183.282L345.876 183.271C345.327 183.406 344.108 183.207 343.818 183.46C345.165 184.106 345.014 184.372 345.094 185.058C345.109 185.192 345.622 185.334 345.654 185.411C345.785 185.732 345.309 185.699 345.459 186.022C345.495 186.101 345.935 186.361 345.988 186.441C346.45 187.141 345.154 187.046 344.936 187.014C344.096 186.918 344.556 187.424 344.146 187.497C343.74 187.562 343.666 187.006 343.333 187.173C342.644 187.518 342.208 188.258 341.776 188.792C341.607 189.005 342.262 189.268 342.25 189.308C342.042 189.87 341.116 189.879 341.989 190.966C338.985 189.104 342.043 191.449 340.978 191.654C340.89 191.666 339.549 190.69 339.512 190.347C339.475 190.005 340.111 190.039 340.021 189.54C340.003 189.419 339.055 188.106 339.017 188.001C338.723 187.179 340.728 188.629 340.857 188.694C342.205 189.353 341.207 187.891 341.195 187.712C341.16 186.866 341.764 186.619 341.753 185.961C341.747 185.532 340.407 184.611 340.587 184.427C341.157 183.843 343.304 184.665 341.92 183.074C341.626 182.753 340.068 182.131 341.301 182.244C341.359 182.138 341.435 182.033 341.347 181.878C341.178 181.586 340.906 181.255 341.09 180.96C341.201 180.784 342.167 180.547 342.403 180.443C343.082 180.155 341.956 179.89 342.77 179.68C343.586 179.447 344.865 179.768 345.366 179.203C344.022 179.276 342.642 179.332 341.291 179.408C341.27 178.474 341.542 177.427 341.25 176.407C341.213 176.283 340.538 176.572 340.48 176.446C340.238 175.917 340.604 175.282 340.231 174.737C339.938 174.314 339.048 174.041 338.703 173.623C340.064 172.838 339.308 172.258 339.24 171.678C339.214 171.471 339.602 171.339 339.677 171.157C339.944 170.469 338.767 171.197 338.514 171.135C337.434 170.884 340.273 169.691 339.906 168.994C339.885 168.952 338.184 169.124 338.06 169.102C337.276 168.96 338.556 168.815 338.561 168.512C338.57 167.97 338.786 167.482 338.107 167.135C337.903 167.03 336.807 167.078 337.387 166.444C337.464 166.361 337.967 166.159 337.981 166.113C338.192 165.302 336.638 166 335.958 165.906C335.924 165.901 335.893 165.894 335.866 165.885C335.852 165.846 335.797 165.736 335.783 165.696C335.279 165.496 336.064 164.589 336.317 164.359C337.002 163.733 336.755 164.428 336.84 164.413C337.86 164.195 337.533 163.873 337.485 163.539C339.004 162.84 338.731 162.457 337.428 163.194C337.286 163.275 337.529 163.448 337.485 163.539C335.862 163.913 335.478 163.546 336.665 162.431C337.222 161.91 338.087 161.8 337.494 161.203C337.225 160.931 336.225 161.516 335.812 161.354C334.872 160.99 335.479 159.714 335.019 159.111C334.853 158.896 334.387 159.39 334.254 159.253C333.903 158.894 334.151 158.304 333.732 157.978C333.693 157.949 333.14 158.324 333.07 158.193C332.524 157.212 332.482 156.155 331.969 155.124C331.721 154.622 330.942 153.926 330.732 153.396C330.374 152.485 330.592 150.964 329.95 150.383C329.537 150.007 329.044 150.462 328.546 150.518C327.59 150.64 328.465 149.157 328.596 148.926C328.606 148.922 328.986 149.199 329.127 148.811C329.623 148.295 328.612 148.92 328.596 148.926C328.687 148.778 328.283 147.961 328.074 147.898C327.96 147.864 327.494 148.281 327.446 148.257C326.299 147.666 325.483 146.954 324.925 145.972C324.92 145.95 325.438 145.479 325.42 145.431C325.175 144.745 324.274 145.078 323.569 145.137C322.859 145.195 322.69 144.848 323.17 143.706C322.773 143.592 322.627 142.843 322.52 142.39C322.411 141.937 321.651 143.065 321.614 143.076C321.407 143.124 321.238 143.139 321.094 143.127C320.553 143.154 320.425 142.474 319.811 142.108C319.46 141.893 318.61 141.802 318.141 141.825C317.77 141.842 317.644 141.48 317.278 141.602C317.228 141.622 317.134 142.216 317.116 142.238C316.618 142.867 317.103 141.461 317.086 141.185C317.019 140.188 316.912 139.641 316.34 140.005C316.196 140.086 315.577 142.15 315.393 142.254C315.141 142.383 315.313 141.634 315.039 141.792C315.016 141.805 314.975 142.274 314.825 142.24C314.13 142.089 313.35 141.804 312.608 141.901C312.508 141.915 312.684 142.649 312.548 142.678C311.906 142.814 311.225 142.887 310.522 142.686C310.347 142.635 310.327 142.104 310.258 141.96C309.821 141.095 309.834 142.501 309.804 142.54C309.698 142.642 309.591 142.723 309.482 142.789C307.124 143.721 305.745 142.872 304.329 143.651C304.233 143.702 303.843 145.251 303.366 144.063C303.337 143.982 302.821 142.773 302.779 143.679C302.779 143.695 302.799 143.755 302.825 143.832C302.625 143.742 302.318 143.625 302.307 143.528C302.254 143.141 302.36 142.929 302.349 142.83C302.337 142.87 302.295 142.95 302.16 143.07C302.03 143.194 301.115 143.177 300.884 143.364C300.82 143.413 300.76 143.484 300.716 143.564C300.712 143.559 300.711 143.559 300.714 143.567C300.6 143.776 300.596 144.045 300.918 144.155C300.967 144.172 301.027 144.179 301.096 144.182C301.089 144.171 301.082 144.16 301.075 144.148C301.084 144.16 301.092 144.171 301.1 144.182C301.168 144.186 301.244 144.185 301.325 144.179C301.35 144.267 301.379 144.367 301.409 144.47C301.529 144.488 301.575 144.326 301.897 144.293C301.878 144.27 301.858 144.246 301.839 144.218C301.826 144.197 301.806 144.164 301.782 144.125C302.25 144.056 302.739 143.97 302.892 144.083C302.918 144.224 302.91 144.346 302.79 144.341C302.742 144.339 302.696 144.355 302.649 144.377C302.74 144.389 302.835 144.398 302.92 144.389C302.969 144.385 303.014 144.373 303.052 144.357C303.619 145.57 303.372 147.348 303.826 149.012C303.899 149.276 304.313 148.89 304.455 149.262C304.981 150.653 306.398 152.918 305.901 154.591C305.502 155.936 304.352 154.922 304.343 155.838C304.346 156.287 306.066 156.023 306.154 156.094C307.022 156.762 306.599 157.667 307.154 158.363C307.27 158.507 307.825 158.073 307.916 158.199C308.235 158.632 308.169 159.237 308.427 159.678C308.541 159.87 309.001 159.619 309.047 159.82C309.161 160.297 309.146 160.8 308.892 161.427C308.869 161.485 308.157 161.485 308.283 161.825C308.493 162.379 308.356 163.245 309.095 163.659C309.316 163.78 310.408 163.297 309.837 164.027C309.719 164.181 308.367 164.676 309.703 164.615C309.925 164.605 311.802 164.681 310.999 165.505C310.788 165.723 309.844 166.475 310.116 166.62C310.159 166.636 310.681 166.245 310.824 166.403C311.252 166.89 311.495 167.471 311.883 168.009C311.943 168.092 312.005 168.174 312.072 168.253C312.208 168.412 312.679 167.857 312.863 168.103C313.359 168.762 313.648 169.772 313.786 170.553C313.843 170.858 313.257 170.904 313.212 170.949C312.483 171.683 313.754 171.308 313.874 171.378C314.58 171.8 314.269 172.589 314.681 173.085C314.797 173.23 315.307 172.85 315.375 172.857C316.032 172.973 314.893 173.193 314.882 173.463C314.842 174.204 315.203 174.858 315.553 175.419C315.687 175.632 316.226 175.072 316.337 175.266C316.999 176.39 317.507 177.649 317.673 178.956C317.702 179.199 317.135 179.302 317.038 179.4C316.375 180.092 317.682 180.017 317.84 180.079C318.54 180.326 318.178 180.718 318.453 181.088C319.808 182.905 320.685 185.457 321.448 187.434C322.438 190.003 322.934 192.155 324.257 194.457C324.342 194.606 324.926 194.115 325.008 194.24C325.323 194.736 325.584 195.225 325.853 195.767C326.407 196.885 326.903 198.046 327.624 199.102C327.709 199.228 328.232 198.709 328.389 198.9C328.715 199.29 328.976 199.867 329.013 200.417C329.032 200.685 328.343 200.677 328.373 200.941C328.444 201.558 328.691 202.129 329.072 202.599C329.235 202.799 329.69 202.122 329.853 202.408C330.973 204.347 332.137 206.22 332.416 208.666C332.435 208.833 331.216 209.66 331.623 209.816C331.992 209.642 332.41 209.409 332.796 209.209C334.588 211.973 335.734 215.064 337.285 218.005C337.352 218.128 337.91 217.539 338.041 217.777C338.795 219.152 339.728 220.383 339.839 222.179C339.851 222.358 338.61 222.937 339.024 223.26C339.099 223.318 339.604 223.856 339.95 223.87C340.002 223.869 340.497 223.449 340.624 223.642C341.357 224.778 341.91 226.102 342.208 227.512C342.252 227.737 341.544 227.844 341.57 228.006C341.772 229.176 342.801 230.049 342.749 231.455C342.73 232.465 341.504 232.584 340.6 233.45C340.537 233.516 340.536 233.647 340.487 233.857C340.438 234.066 340.31 234.28 339.987 234.373C338.348 234.791 336.533 235.164 334.8 235.662C334.614 235.703 334.602 235.697 334.498 235.38C334.45 235.237 334.398 235.038 334.3 235.005C334.203 234.962 334.044 235.159 333.846 235.482C333.816 235.535 333.785 235.885 333.679 235.954C333.581 236.071 333.431 236.111 333.279 236.159C333.069 236.227 332.423 236.453 332.158 236.546C331.893 236.641 332.406 236.376 332.052 236.385C331.689 236.388 331.002 236.755 330.792 236.514C330.28 235.886 329.842 234.547 329.627 233.489C329.555 233.15 330.01 233.103 329.978 232.863C329.914 232.392 329.526 232.11 329.488 231.626C329.476 231.462 330.155 231.307 330.128 231.141C329.976 230.237 329.433 229.602 329.13 228.757C327.64 224.598 325.727 220.691 323.825 216.627C323.197 215.286 322.863 213.419 321.897 212.208C321.783 212.067 321.317 212.443 321.258 212.436C320.35 212.325 321.479 211.91 321.451 211.529C321.34 210.02 320.658 208.646 319.829 207.581C319.476 207.129 318.71 208.181 319.021 207.369C319.041 207.313 319.661 207.144 319.648 206.976C319.615 206.596 319.201 206.058 319.117 205.794C318.959 205.283 318.913 205.21 318.687 204.765C318.383 204.155 318.285 203.297 317.822 202.713C317.721 202.591 317.247 203.068 317.035 202.898C316.824 202.727 316.57 202.116 316.602 201.847C316.635 201.58 317.127 201.434 317.212 201.346C317.79 200.758 316.908 200.603 316.498 200.527C316.396 200.506 316.323 200.492 316.308 200.477C314.999 199.16 314.991 197.443 314.24 195.963C313.666 194.835 312.833 193.746 312.325 192.651C311.719 191.339 311.493 190.101 310.824 188.859C310.753 188.729 310.151 189.214 310.064 189.054C309.142 187.357 308.404 185.582 308.068 183.649C308.038 183.46 308.738 183.397 308.742 183.19C308.749 181.912 309.159 179.691 306.254 180.289C306.017 179.513 305.725 178.613 305.957 177.737C306.102 177.163 306.943 177.257 306.427 176.881C306.313 176.799 305.808 177.211 305.68 177.068C305.135 176.451 304.961 175.595 304.321 175.002C304.194 174.892 303.699 175.17 303.588 175.175C302.685 175.196 303.648 174.035 303.676 173.862C303.818 173.063 303.639 172.555 303.37 172.03C303.219 171.734 303.045 171.447 302.899 171.12C302.806 170.912 302.231 171.479 302.117 171.291C301.535 170.306 301.091 169.198 300.932 168.047C300.899 167.792 301.582 167.725 301.597 167.59C301.649 166.985 300.487 167.386 300.519 166.822C300.524 166.704 301.054 166.527 301.102 166.484C301.849 165.817 300.505 166.137 300.445 166.077C299.664 165.347 300.692 164.184 300.128 163.41C300.058 163.314 299.523 163.838 299.365 163.552C298.316 161.67 297.6 159.524 297.312 157.331C297.267 156.991 297.845 157.012 297.897 156.968C298.71 156.272 297.371 156.59 297.282 156.504C296.618 155.842 297.396 154.698 295.675 154.733C294.959 151.167 292.722 147.874 293.82 143.614C293.834 143.562 294.508 143.613 294.533 143.514C294.713 142.853 294.501 142.635 294.044 142.396C293.688 142.18 293.172 141.977 292.695 141.386C292.422 140.999 294.141 140.553 294.269 140.579C294.74 140.497 295.596 141.065 295.697 141.022C296.466 140.83 293.382 139.508 294.032 138.499C294.056 138.478 294.473 138.937 294.573 138.9C294.874 138.798 294.848 138.447 295.172 138.399C295.942 138.292 297.042 139.442 297.008 138.313C297.014 138.167 295.808 136.694 296.59 136.328C296.899 136.165 298.136 135.581 298.509 135.599C298.882 135.598 298.847 136.245 298.88 136.264C299.97 136.747 299.742 137.173 300.441 138.199C301.101 139.239 300.303 136.552 300.396 136.206C300.493 135.858 301.238 136.367 301.421 136.565C301.608 136.761 301.509 137.171 301.658 137.273C302.633 137.945 301.762 135.836 301.962 135.345C302.456 134.187 303.302 136.159 303.91 136.271C304.076 136.301 303.876 135.853 304.01 135.788C304.534 135.535 304.976 136.125 305.483 135.432C305.573 135.318 305.796 134.006 306.271 134.84C306.341 134.959 306.332 135.493 306.574 135.557C306.777 135.61 307.057 135.621 307.302 135.568C307.534 135.515 307.751 135.433 307.903 135.312C308.157 135.112 307.605 134.374 308.046 134.534C308.24 134.607 308.061 135.166 308.408 135.266C308.747 135.365 309.509 135.183 309.803 135.117C310.093 135.049 309.825 134.438 309.841 134.39C309.943 134.117 310.5 133.72 310.553 133.716ZM339.652 232.143C340.413 231.977 340.193 231.367 339.539 231.832C339.515 231.854 339.615 232.137 339.652 232.143ZM338.4 192.795C339.307 191.898 341.975 193.057 340.839 193.946C340.634 194.105 340.494 192.958 340.095 193.046C339.365 193.209 340.473 194.63 339.361 194.494C339.16 194.465 338.343 192.843 338.399 192.79C338.399 192.791 338.399 192.793 338.4 192.795ZM343.228 185.242C342.751 185.145 342.938 185.839 343.534 185.965C344.018 186.061 343.828 185.353 343.228 185.242ZM341.487 182.261C341.753 182.297 342.789 182.375 342.173 181.928C342.104 181.88 341.779 181.754 341.637 181.683L341.487 182.261ZM344.354 181.645C345.216 181.149 341.827 180.959 342.486 181.479C342.523 181.509 344.304 181.672 344.354 181.645ZM343.294 177.096C344.249 176.454 342.661 176.457 341.925 176.922C341.185 177.368 343.002 177.28 343.294 177.096ZM337.844 152.16C338.68 152.118 338.943 152.442 338.204 153.111C338.1 152.786 337.958 152.486 337.844 152.16ZM294.596 145.256C295.874 145.418 295.801 143.994 294.551 144.458C294.483 144.484 294.527 145.243 294.596 145.256ZM302.825 143.832C302.891 143.862 302.946 143.889 302.973 143.912C303.246 144.152 303.201 144.297 303.052 144.357C303.013 144.275 302.972 144.194 302.925 144.117C302.917 144.104 302.905 144.093 302.892 144.083C302.889 144.067 302.888 144.052 302.884 144.036L302.825 143.832ZM301.25 143.904C301.085 142.988 301.583 143.797 301.782 144.125C301.623 144.148 301.466 144.17 301.325 144.179C301.283 144.029 301.254 143.919 301.25 143.904ZM300.716 143.564C300.745 143.597 300.913 143.873 301.075 144.148C300.976 144.006 300.884 143.858 300.825 143.778C300.756 143.652 300.722 143.587 300.714 143.567C300.715 143.566 300.716 143.565 300.716 143.564ZM321.972 140.395C321.979 139.665 320.886 141.794 321.417 141.422C321.446 141.397 321.967 140.438 321.972 140.395ZM322.828 137.577C322.359 138.193 322.855 138.504 323.1 137.744C323.108 137.712 322.851 137.553 322.828 137.577ZM304.106 137.424C304.095 137.389 303.873 137.391 303.908 137.59C304.023 138.228 304.295 138.001 304.106 137.424Z" fill="white"/>
</svg>