<svg width="429" height="398" viewBox="0 0 429 398" fill="none" xmlns="http://www.w3.org/2000/svg">
<path d="M212.631 28.3455C213.175 28.0513 215.737 26.0867 218.919 27.073C219.411 27.2441 218.412 27.7078 220.096 27.9353C221.261 28.155 222.617 28.3826 224.502 29.5808C225.489 30.2646 225.8 30.5885 226.258 30.9832C226.684 31.3636 227.05 31.704 227.421 32.0564C228.149 32.7486 228.839 33.4333 229.508 34.1306C230.842 35.5228 232.096 36.9704 233.19 38.5828C234.086 39.9271 232.865 39.8344 233.676 41.322C234.291 42.5008 235.472 44.3849 236.514 46.6765C236.73 47.1346 236.953 47.5441 237.178 47.865C238.136 49.2437 238.883 47.056 239.834 49.3435C243.941 59.3445 245.333 70.3852 245.257 81.3035C245.237 82.9279 245.776 81.5804 245.744 83.9861C245.9 92.8887 242.89 108.162 238.887 114.717C238.097 116.114 237.641 116.627 237.392 116.705C237.29 116.736 237.221 116.696 237.171 116.614C236.911 116.174 237.207 114.568 236.282 116.249C236.194 116.406 236.095 116.594 235.981 116.814C234.984 118.77 235.471 121.65 235.267 122.177C233.384 127.179 230.803 129.979 228.313 133.997C227.791 134.825 228.904 134.431 228.447 135.136C226.88 137.553 224.794 139.728 223.089 141.835C222.328 142.774 222.858 142.958 222.097 143.77C220.259 145.729 218.469 147.313 216.307 148.796C216.111 148.928 216.767 147.35 215.37 148.718C213.11 150.922 209.938 153.199 207.529 155.908C206.803 156.72 207.562 157.657 205.245 158.495C204.759 158.665 204.358 157.161 203.039 159.8C202.848 160.229 200.275 164.333 197.861 164.742C197.613 164.786 197.176 164.802 196.677 164.857C195.913 164.93 194.983 165.111 194.429 165.641C194.307 165.764 195.236 165.891 194.419 166.546C191.527 168.844 188.322 170.937 185.331 173.178C184.53 173.779 186.135 173.505 184.931 174.382C182.616 176.067 179.795 177.865 177.139 179.479C177.101 181.257 177.072 182.526 176.942 184.246C176.541 189.519 177.531 187.598 177.919 190.886C178.305 194.18 175.964 192.544 175.448 193.007C174.931 193.461 175.446 193.968 175.156 194.548C174.866 195.118 174.543 193.868 174.413 195.216C174.284 196.569 175.109 200.272 175.627 200.773C176.656 201.736 177.794 200.385 177.523 203.106C177.504 203.302 177.477 203.519 177.443 203.757C177.412 203.964 176.811 203.27 176.723 204.064C176.046 210.333 175.544 216.857 174.324 223.031C174.154 223.881 173.567 223.026 173.46 223.517C172.306 228.602 173.712 226.919 174.532 229.979C172.929 229.055 171.668 230.45 170.89 234.283C170.48 236.238 170.996 236.369 171.278 237.334C171.833 237.743 172.354 238.16 172.853 238.579C182.861 247.204 190.584 258.008 194.57 270.853C197.283 280.021 196.315 290.085 191.858 298.664C191.43 299.474 190.95 300.292 190.381 301.126C184.435 309.621 173.864 309.277 167.12 309.488C166.185 309.499 166.727 310.101 166.547 310.145C163.715 310.79 164.693 309.63 162.91 309.367C159.109 308.777 155.181 308.148 151.333 307.595C151.082 308.406 150.869 309.204 150.72 309.966C150.608 310.552 150.666 311.848 150.275 313.057C150.073 313.681 149.766 314.271 149.274 314.72C149.079 314.895 148.815 314.513 148.49 314.749C147.448 315.509 148.471 316.623 146.926 317.381C145.355 318.205 143.564 320.378 142.966 324.123C142.942 324.251 143.641 325.43 143.203 326.516C142.518 328.207 141.358 330.596 140.671 332.396C140.35 333.241 141.183 332.945 141.137 333.096C139.176 338.98 137.334 343.115 133.625 348.708C133.14 349.411 132.311 351.334 130.945 352.775C130.382 353.379 129.781 353.896 129.136 354.242C126.714 355.465 126.387 351.425 122.68 355.687C121.264 357.241 121.011 362.72 116.04 362.503C112.695 364.175 109.053 364.781 105.459 365.415C101.161 366.142 96.8389 366.337 92.4546 365.395C92.1135 365.329 90.5606 366.006 89.7114 365.554C88.4823 364.898 88.1638 364.01 87.438 363.415C86.933 362.989 86.4535 362.551 85.9966 362.098C83.7139 359.841 81.9173 357.171 81.1108 354.033C80.8258 352.82 81.2462 352.905 81.2212 351.932C80.9802 351.72 80.7449 351.473 80.5181 351.186C80.4149 351.042 80.6875 351.04 81.1275 351.078C80.8781 349.525 80.1224 348.392 80.5269 346.147C80.8738 344.368 82.5648 342.843 83.2036 340.753C82.4387 340.538 82.1761 340.006 82.1753 339.126C82.1741 338.364 82.405 337.335 82.8765 336.073C83.0764 335.554 82.3326 335.82 82.4077 335.556C82.7327 334.441 83.6971 333.863 84.2017 332.902C84.3286 332.667 83.9744 332.3 84.0728 332.081C84.5756 330.91 86.1576 330.073 87.3735 329.829C88.1481 329.654 88.7619 329.672 88.9741 329.678C91.0426 329.811 91.8003 329.111 93.312 329.429C94.7262 329.838 92.6065 330.021 94.1773 330.367C95.0178 330.592 95.8948 330.926 96.5689 331.471C98.7 333.065 99.9147 335.727 99.7817 338.128C99.7189 339.42 100.436 338.589 100.445 338.772C100.396 341.71 98.5432 344.075 99.0825 346.095C95.0465 346.276 98.6661 347.851 95.8472 351.019C95.6173 351.27 94.0142 350.696 94.4653 349.54C94.903 348.404 96.3047 347.091 96.6939 345.453C96.8226 345.043 96.2503 342.472 96.2173 342.218C96.2052 340.058 98.5597 340.372 98.7476 340.252C99.6076 339.74 99.7008 338.656 99.4253 337.776C99.1598 336.878 98.5534 336.259 98.4214 336.006C97.6907 334.569 96.8351 333.578 95.647 332.738C95.1857 332.419 94.3215 332.198 93.4614 332.286C91.9936 332.473 92.0587 334.162 91.187 334.292C90.6592 334.395 90.1975 334.475 89.7798 334.547C87.7494 334.951 85.3266 335.608 85.6841 338.868C85.7921 339.471 86.8548 339.587 86.603 340.303C86.4975 340.645 86.2232 341.108 85.7105 341.808C85.5759 341.943 83.9057 344.078 84.647 345.492C84.7382 345.664 85.2536 345.691 85.2857 345.906C85.5011 347.333 85.1004 348.286 85.4526 349.77C85.6304 350.5 85.8807 351.257 86.1401 352.014C87.3848 352.47 88.52 352.828 89.3774 353.201C91.2583 353.995 91.7437 354.884 89.2544 354.94C88.6949 354.944 87.9586 354.901 87.0317 354.722C87.0087 354.718 86.9881 354.709 86.9683 354.705C87.0751 355.596 86.9023 356.803 86.9741 357.272C87.099 358.351 88.1014 358.887 88.6489 359.441C88.8721 359.67 89.0257 359.914 89.0503 360.251C89.2227 361.45 86.8894 361.262 88.6743 363.262C89.5151 362.208 90.443 361.166 91.2593 360.081C94.5111 362.265 99.5427 362.811 104.702 361.719C104.997 361.657 105.286 361.597 105.573 361.535C106.312 361.374 105.414 360.821 106.191 360.632C109.466 359.83 112.188 359.731 114.843 358.337C116.898 357.256 118.592 355.265 120.409 353.549C122.457 353.8 124.903 351.058 126.919 348.981C127.031 348.869 127.139 348.762 127.244 348.658C127.885 348.014 128.151 348.326 128.665 347.907C130.536 346.248 128.719 346.371 128.913 345.726C129.566 342.927 132.409 344.085 133.937 340.443C134.018 340.257 133.487 337.249 133.513 336.896C133.732 334.552 134.179 336.773 134.821 335.481C135.975 333.151 136.994 331.586 137.658 328.528C137.852 327.628 137.668 325.26 139.045 323.895C139.224 323.721 139.685 324.034 139.781 323.875C141.491 320.931 139.939 320.228 140.102 318.229C140.268 316.225 142.454 313.906 143.001 313.451C144.407 312.294 142.894 314.732 142.947 314.836C143.525 316.156 144.176 314.034 144.856 312.568C145.844 312.81 146.516 312.109 146.53 311.552C146.532 311.201 146.244 310.916 145.576 310.996C145.541 311.001 145.501 311.048 145.459 311.123C145.266 311.468 145.012 312.343 144.856 312.568C144.566 311.992 144.429 311.369 144.447 310.716C144.452 309.453 145.063 308.127 146.288 306.856C144.584 306.565 142.922 306.219 141.331 305.824C138.41 305.053 140.959 307.077 138.241 305.499C138.056 305.388 138.982 305.044 138.224 304.712C136.498 303.981 133.207 302.678 131.947 301.965C129.519 300.612 129.122 300.384 126.899 299.007C123.871 297.094 120.707 294.277 117.826 291.844C117.207 291.324 117.565 292.523 116.538 291.724C115.495 290.931 113.112 288.459 112.454 287.505C111.782 286.558 112.489 286.576 112.436 286.348C112.028 284.493 108.516 282.403 108.176 282.01C105.997 279.624 104.161 277.168 102.515 274.689C99.2492 269.771 97.501 264.322 96.4946 258.627C95.2611 251.95 95.5112 244.622 96.2778 238.678C96.3588 237.982 96.4371 237.321 96.4937 236.725C98.1367 228.104 102.949 224.664 107.171 219.73C107.683 219.19 106.53 219.298 107.165 218.631C114.014 211.523 121.461 205.494 129.235 199.959C130.015 199.408 129.461 200.69 130.266 200.171C132.986 198.405 136.681 196.226 139.641 193.905C142.039 192.022 143.975 190.068 144.489 188.11C147.788 185.88 151.819 183.243 155.076 181.744C157.175 180.778 155.742 182.613 157.892 180.797C158.377 180.389 157.344 180.32 158.099 179.748C161.283 177.337 165.028 175.116 168.134 172.683C168.765 172.187 168.272 171.834 168.405 171.625C168.82 170.992 169.533 170.512 170.303 170.141C169.876 165.454 170.566 162.303 170.787 157.041C170.904 154.264 170.848 148.729 170.802 145.706C170.762 143.304 171.133 141.891 171.023 139.667C171.008 139.37 170.392 139.642 170.371 139.552C169.756 137.041 171.183 138.3 171.47 137.804C171.932 137.018 172.303 136.338 172.547 135.592C172.859 134.621 172.969 133.492 172.83 131.713C172.771 130.978 170.792 128.707 170.773 127.355C170.752 125.613 171.46 126.319 171.428 124.495C171.427 124.339 170.954 124.327 171.074 123.211C171.627 118.017 172.532 112.396 173.22 107.021C173.316 106.286 172.446 107.128 172.575 106.059C173.178 101.065 174.087 95.6064 175.375 90.8093C175.695 89.6277 176.063 90.4785 176.266 90.2498C176.619 89.8527 176.804 89.3433 176.882 88.8455C177.086 87.5562 176.684 86.1638 176.728 85.8884C178.215 76.6897 181.649 70.3237 184.853 61.5134C185.012 61.0379 185.346 56.8089 187.272 55.7908C187.401 55.7171 189.318 54.751 189.251 52.9959C189.248 52.8863 188.153 53.5357 189.1 51.8943C190.043 50.2614 191.151 47.3775 193.118 45.5271C193.222 45.4289 193.367 45.3188 193.54 45.1931C194.469 44.4471 196.04 43.3477 196.772 41.0408C196.731 40.8927 197.931 35.9644 200.28 36.0525C200.671 36.0855 201.507 37.4406 203.555 34.6951C203.973 34.1708 202.785 34.5778 204.042 33.363C206.022 31.4973 209.319 30.0942 212.631 28.3455ZM102.257 362.687C100.646 362.082 99.5149 363.907 100.198 364.199C102.596 365.105 103.955 363.25 102.257 362.687ZM82.9575 352.927C83.0026 355.27 85.4005 354.889 85.1411 353.322C84.3914 353.256 83.6583 353.162 82.9575 352.927ZM86.6255 353.445C86.7224 353.741 86.8158 354.034 86.8989 354.324C86.916 354.388 86.9286 354.457 86.9409 354.527C87.1445 354.469 87.4979 354.407 87.8306 354.325C88.5298 354.155 89.1455 353.927 88.3423 353.729C87.771 353.58 87.1963 353.501 86.6255 353.445ZM88.981 331.545C88.7902 331.523 88.5522 331.572 88.314 331.672C87.3355 332.067 86.536 333.25 87.4458 333.137C87.8319 333.101 88.3311 332.804 88.7358 332.499C89.2485 332.103 89.6481 331.635 88.981 331.545ZM169.625 253.133C168.819 255.957 166.699 260.373 165.185 263.811C164.936 264.378 164.706 264.935 164.509 265.445C162.697 264.717 161.95 268.333 162.811 270.126C162.025 272.48 161.361 275.082 160.543 277.355C160.263 278.137 159.867 277.466 159.78 277.549C158.436 278.848 159.412 280.24 159.322 280.773C158.291 286.549 156.157 290.915 155.545 296.572C155.54 296.625 155.619 296.712 155.714 296.833C162.853 297.728 169.795 298.483 175.494 297.962C176.051 297.899 176.964 299.211 178.01 298.534C177.95 298.122 177.773 297.677 177.65 297.259C179.278 296.576 180.143 295.846 180.792 294.863C184.267 289.283 185.59 281.131 183.503 274.257C182.431 270.577 180.682 266.791 178.548 263.27C178.222 262.737 178.132 264.06 177.495 263.036C175.212 259.429 172.549 256.19 169.637 253.083C169.633 253.099 169.629 253.116 169.625 253.133ZM170.056 183.695C167.539 185.742 165.12 186.701 162.681 188.523C161.968 189.054 162.839 189.223 162.725 189.368C161.51 190.844 162.013 189.149 160.982 189.695C158.091 191.224 155.14 193.313 152.522 195.262C151.561 195.98 153.079 195.794 152.214 196.43C149.948 198.109 147.649 199.805 145.372 201.485C142.452 203.64 139.532 205.736 136.681 207.699C135.71 208.367 135.944 207.471 135.673 207.522C133.816 207.848 132.629 210.366 132.271 210.807C130.599 212.847 129.523 213.094 127.844 214.619C120.087 221.63 108.165 232.39 106.957 237.367C106.936 237.443 106.923 237.506 106.915 237.542C104.923 251.053 104.706 259.987 110.78 269.047C110.809 269.089 110.838 269.131 110.868 269.173C111.329 269.83 111.484 268.743 111.888 269.3C117.068 276.451 122.548 283.156 129.397 287.949C129.956 288.337 129.584 287.196 130.488 287.788C132.344 288.995 134.667 290.47 136.52 291.659C137.428 292.239 135.864 292.131 136.797 292.705C138.981 294.037 141.529 295.085 144.066 295.686C145.143 295.934 143.742 294.802 145.109 295.164C146.579 295.539 148.067 295.832 149.568 296.05C150.414 293.477 151.597 290.813 152.129 288.386C152.42 287.062 151.471 288.174 151.649 287.262C152.118 284.842 153.127 282.855 153.535 280.384C153.571 280.159 152.791 280.523 152.983 279.771C153.217 278.852 153.46 277.954 153.709 277.069C152.99 276.852 151.842 276.498 151.371 276.469C150.897 276.452 151.225 277.428 150.326 277.235C149.41 277.02 148.873 276.04 147.382 275.343C145.869 274.517 145.949 275.902 143.145 273.051C141.925 271.685 140.633 269.812 139.862 267.354C137.801 261.548 138.04 253.242 140.104 247.993C140.856 245.942 140.918 247.125 141.492 245.777C141.712 245.281 141.925 244.795 142.137 244.315C143.439 241.532 144.719 240.584 145.794 239.596C146.892 238.673 147.917 238.007 148.976 237.452C149.836 237.016 149.16 238.197 150.039 237.746C152.56 236.5 154.655 235.548 157.449 234.62C160.015 233.662 163.993 233.697 166.833 234.808C166.687 234.543 166.522 234.308 166.45 233.805C166.085 231.344 168.315 227.507 168.631 226.981C168.646 226.966 168.398 229.429 168.948 228.178C169.767 227.537 168.63 227.008 168.631 226.981C168.863 226.633 169.696 221.761 169.666 220.772C169.659 220.233 169.004 220.457 169.012 220.178C169.183 214.435 169.372 208.718 169.687 202.888C169.734 202.017 169.789 201.098 169.848 200.212C169.865 200.092 170.558 200.29 170.585 200.006C170.987 196.045 170.174 193.489 169.72 190.198C169.361 187.602 169.416 185.439 170.056 183.695ZM154.709 273.713C154.212 274.357 153.749 275.028 153.554 275.828C153.541 275.937 153.718 276.078 153.951 276.229C154.197 275.383 154.449 274.546 154.709 273.713ZM162.35 245.476C162.023 245.503 161.809 245.649 161.689 245.815C161.665 245.866 161.916 246.464 161.643 246.536C161.548 246.562 161.426 246.598 161.272 246.651C160.006 247.088 158.111 247.93 156.669 248.714C155.935 249.11 155.249 249.529 154.779 249.867C154.563 250.02 154.395 250.158 154.332 250.203C153.736 251.534 153.258 252.837 152.911 254.116C152.707 254.891 152.185 253.929 152.037 254.496C151.312 257.333 151.756 260.375 152.629 263.419C152.677 263.734 152.994 264.419 153.625 265.241C155.204 267.074 153.896 267.487 154.625 269.332C154.687 269.493 155.331 269.905 155.804 270.347C156.572 268.054 157.396 265.707 158.282 263.163C158.455 262.669 158.648 262.098 158.853 261.49C159.809 258.662 160.929 254.817 161.767 252.492C162.445 250.646 163.248 248.658 164.025 246.663C164.05 246.265 163.974 245.84 163.279 245.616C163.171 245.585 162.673 245.441 162.35 245.476ZM164.441 265.484C164.623 267.28 164.117 269.149 162.814 270.119C163.345 268.573 163.859 267.015 164.441 265.484ZM150.242 264.983C150.075 264.64 149.786 264.327 149.487 264.669C149.433 264.699 149.915 265.733 149.987 265.739C150.477 265.792 150.402 265.328 150.242 264.983ZM219.837 35.0701C217.449 34.1149 217.951 37.4393 215.448 38.0349C215.36 38.0527 215.551 37.3672 215.302 37.3767C214.525 37.4075 213.896 37.8984 213.12 38.0115C211.382 38.2897 209.867 37.2177 208.06 39.6462C207.865 39.9688 209.327 41.0898 207.273 42.739C206.388 43.3449 203.263 46.9277 202.472 48.0271C201.615 49.0715 201.632 47.9736 201.558 48.0349C200.99 48.5859 200.584 48.9699 200.25 49.2566C198.971 50.3673 198.937 49.6381 197.343 50.5066C195.34 51.6248 198.054 52.5398 197.937 53.3816C197.818 54.2145 195.896 56.3904 195.376 56.9109C194.852 57.4256 194.913 56.4739 194.511 56.9685C191.883 60.2809 194.938 59.2108 194.737 60.615C194.309 63.9093 191.417 65.2942 190.109 67.9402C189.759 68.6537 190.441 68.234 190.218 68.9031C189.35 71.5429 188.148 72.9031 187.699 76.0945C187.619 76.6252 188.032 79.4099 186.699 80.7293C186.507 80.9179 186.194 80.1302 185.753 81.242C185.09 82.8975 184.182 85.9764 183.939 87.8806C183.758 89.2846 184.936 87.8972 184.304 89.5623C184.027 90.3044 183.839 88.7829 183.362 90.1775C183.36 90.1815 183.358 90.1852 183.357 90.1892C182.876 91.5865 182.198 95.3272 181.976 96.7459C181.747 98.1736 182.52 97.5008 182.543 97.6248C182.667 98.3594 182.533 101.118 182.497 101.364C180.719 113.214 178.523 124.19 178.188 135.888C178.181 136.137 178.176 136.387 178.17 136.639C178.151 137.58 178.865 136.989 178.869 137.133C179.003 140.353 177.306 137.738 176.599 139.965C177.998 139.696 177.687 141.019 177.755 143.29C177.79 144.386 178.348 143.809 178.4 143.911C179.157 145.554 178.07 146.648 177.845 146.933C177.019 147.995 177.922 149.175 177.372 149.9C176.826 150.613 176.093 148.913 176.043 151.089C176.523 151.714 177.863 150.128 178.029 151.791C178.414 155.661 178.097 161.597 177.759 166.749C180.424 165.154 182.691 163.48 185.416 161.63C186.348 160.994 184.816 161.124 185.7 160.488C187.407 159.262 189.136 158.029 190.859 156.801C193.734 154.751 196.596 152.685 199.36 150.685C200.347 149.97 199.898 151.182 200.391 150.865C202.544 149.456 202.181 148.153 204.171 146.733C204.586 146.433 204.745 147.036 204.855 147.019C206.609 146.726 206.613 144.859 206.868 144.576C210.016 141.003 213.152 139.768 216.024 136.099C216.358 135.662 215.027 136.158 215.995 134.958C221.231 128.439 225.94 121.107 229.43 113.436C230.248 111.652 231.01 109.886 231.729 108.103C232.316 106.629 232.456 107.866 232.549 107.794C234.036 106.544 233.038 105.118 233.136 104.607C233.939 100.607 235.833 97.0568 234.666 94.0593C237.633 79.0636 234.6 63.7484 229.787 49.3045C229.317 47.8415 228.258 46.1024 227.209 44.4861C227.088 44.3052 227.856 44.1985 227.61 43.8367C224.528 39.5422 224.31 40.9828 221.051 39.4783C220.497 39.2492 219.825 37.6585 219.674 37.0037C219.751 36.8164 219.625 36.5973 219.603 36.5574C219.431 36.2862 219.458 35.9389 219.607 35.6521C219.745 35.3649 219.963 35.1463 219.837 35.0701ZM173.097 165.097C173.783 163.211 171.397 162.888 171.933 164.952C171.962 165.052 173.063 165.195 173.097 165.097ZM176.049 162.46C175.305 161.622 175.188 164.686 175.99 164.055C176.022 164.018 176.08 162.502 176.049 162.46ZM189.298 66.4949C188.668 66.3152 188.254 67.808 188.999 67.572C189.044 67.5513 189.491 66.5531 189.298 66.4949ZM231.638 48.5818C231.166 47.316 230.126 46.3153 229.966 47.2947C229.956 47.3494 230.426 48.1904 230.702 48.947C230.998 49.7422 231.282 50.4979 231.329 50.5398C232.22 51.1731 232.103 49.8499 231.638 48.5818Z" fill="white"/>
</svg>