<svg width="429" height="398" viewBox="0 0 429 398" fill="none" xmlns="http://www.w3.org/2000/svg">
<path d="M212.631 28.3455C213.175 28.0513 215.737 26.0867 218.919 27.073C219.411 27.2441 218.412 27.7078 220.096 27.9353C221.261 28.155 222.617 28.3826 224.502 29.5808C225.489 30.2646 225.8 30.5885 226.258 30.9832C226.684 31.3636 227.05 31.704 227.421 32.0564C228.149 32.7486 228.839 33.4333 229.508 34.1306C230.842 35.5228 232.096 36.9704 233.19 38.5828C234.086 39.9271 232.865 39.8344 233.676 41.322C234.291 42.5008 235.472 44.3849 236.514 46.6765C236.73 47.1346 236.953 47.5441 237.178 47.865C238.136 49.2437 238.883 47.056 239.834 49.3435C243.941 59.3445 245.333 70.3852 245.257 81.3035C245.237 82.9279 245.776 81.5804 245.744 83.9861C245.9 92.8887 242.89 108.162 238.887 114.717C238.097 116.114 237.641 116.627 237.392 116.705C237.29 116.736 237.221 116.696 237.171 116.614C236.911 116.174 237.207 114.568 236.282 116.249C236.194 116.406 236.095 116.594 235.981 116.814C234.984 118.77 235.471 121.65 235.267 122.177C233.384 127.179 230.803 129.979 228.313 133.997C227.791 134.825 228.904 134.431 228.447 135.136C226.88 137.553 224.794 139.728 223.089 141.835C222.328 142.774 222.858 142.958 222.097 143.77C220.259 145.729 218.469 147.313 216.307 148.796C216.111 148.928 216.767 147.35 215.37 148.718C213.11 150.922 209.938 153.199 207.529 155.908C206.803 156.72 207.562 157.657 205.245 158.495C204.759 158.665 204.358 157.161 203.039 159.8C202.848 160.229 200.275 164.333 197.861 164.742C197.613 164.786 197.176 164.802 196.677 164.857C195.913 164.93 194.983 165.111 194.429 165.641C194.307 165.764 195.236 165.891 194.419 166.546C191.527 168.844 188.322 170.937 185.331 173.178C184.53 173.779 186.135 173.505 184.931 174.382C182.616 176.067 179.795 177.865 177.139 179.479C177.101 181.257 177.072 182.526 176.942 184.246C176.541 189.519 177.531 187.598 177.919 190.886C178.305 194.18 175.964 192.544 175.448 193.007C174.931 193.461 175.446 193.968 175.156 194.548C174.866 195.118 174.543 193.868 174.413 195.216C174.284 196.569 175.109 200.272 175.627 200.773C176.656 201.736 177.794 200.385 177.523 203.106C177.504 203.302 177.477 203.519 177.443 203.757C177.412 203.964 176.811 203.27 176.723 204.064C176.046 210.333 175.544 216.857 174.324 223.031C174.154 223.881 173.567 223.026 173.46 223.517C172.306 228.602 173.712 226.919 174.532 229.979C172.929 229.055 171.668 230.45 170.89 234.283C170.48 236.238 170.996 236.369 171.278 237.334C171.833 237.743 172.354 238.16 172.853 238.579C182.861 247.204 190.584 258.008 194.57 270.853C197.283 280.021 196.315 290.085 191.858 298.664C191.43 299.474 190.95 300.292 190.381 301.126C184.435 309.621 173.864 309.277 167.12 309.488C166.185 309.499 166.727 310.101 166.547 310.145C163.715 310.79 164.693 309.63 162.91 309.367C159.109 308.777 155.181 308.148 151.333 307.595C151.082 308.406 150.869 309.204 150.72 309.966C150.608 310.552 150.666 311.848 150.275 313.057C150.073 313.681 149.766 314.271 149.274 314.72C149.079 314.895 148.815 314.513 148.49 314.749C147.448 315.509 148.471 316.623 146.926 317.381C145.355 318.205 143.564 320.378 142.966 324.123C142.942 324.251 143.641 325.43 143.203 326.516C142.518 328.207 141.358 330.596 140.671 332.396C140.35 333.241 141.183 332.945 141.137 333.096C139.176 338.98 137.334 343.115 133.625 348.708C133.14 349.411 132.311 351.334 130.945 352.775C130.382 353.379 129.781 353.896 129.136 354.242C126.714 355.465 126.387 351.425 122.68 355.687C121.264 357.241 121.011 362.72 116.04 362.503C112.695 364.175 109.053 364.781 105.459 365.415C101.161 366.142 96.8389 366.337 92.4546 365.395C92.1135 365.329 90.5606 366.006 89.7114 365.554C88.4823 364.898 88.1638 364.01 87.438 363.415C86.933 362.989 86.4535 362.551 85.9966 362.098C83.7139 359.841 81.9173 357.171 81.1108 354.033C80.8258 352.82 81.2462 352.905 81.2212 351.932C80.9802 351.72 80.7449 351.473 80.5181 351.186C80.4149 351.042 80.6875 351.04 81.1275 351.078C80.8781 349.525 80.1224 348.392 80.5269 346.147C80.8738 344.368 82.5648 342.843 83.2036 340.753C82.4387 340.538 82.1761 340.006 82.1753 339.126C82.1741 338.364 82.405 337.335 82.8765 336.073C83.0764 335.554 82.3326 335.82 82.4077 335.556C82.7327 334.441 83.6971 333.863 84.2017 332.902C84.3286 332.667 83.9744 332.3 84.0728 332.081C84.5756 330.91 86.1576 330.073 87.3735 329.829C88.1481 329.654 88.7619 329.672 88.9741 329.678C91.0426 329.811 91.8003 329.111 93.312 329.429C94.7262 329.838 92.6065 330.021 94.1773 330.367C95.0178 330.592 95.8948 330.926 96.5689 331.471C98.7 333.065 99.9147 335.727 99.7817 338.128C99.7189 339.42 100.436 338.589 100.445 338.772C100.396 341.71 98.5432 344.075 99.0825 346.095C95.0465 346.276 98.6661 347.851 95.8472 351.019C95.6173 351.27 94.0142 350.696 94.4653 349.54C94.903 348.404 96.3047 347.091 96.6939 345.453C96.8226 345.043 96.2503 342.472 96.2173 342.218C96.2052 340.058 98.5597 340.372 98.7476 340.252C99.6076 339.74 99.7008 338.656 99.4253 337.776C99.1598 336.878 98.5534 336.259 98.4214 336.006C97.6907 334.569 96.8351 333.578 95.647 332.738C95.1857 332.419 94.3215 332.198 93.4614 332.286C91.9936 332.473 92.0587 334.162 91.187 334.292C90.6592 334.395 90.1975 334.475 89.7798 334.547C87.7494 334.951 85.3266 335.608 85.6841 338.868C85.7921 339.471 86.8548 339.587 86.603 340.303C86.4975 340.645 86.2232 341.108 85.7105 341.808C85.5759 341.943 83.9057 344.078 84.647 345.492C84.7382 345.664 85.2536 345.691 85.2857 345.906C85.5011 347.333 85.1004 348.286 85.4526 349.77C85.6304 350.5 85.8807 351.257 86.1401 352.014C87.3848 352.47 88.52 352.828 89.3774 353.201C91.2583 353.995 91.7437 354.884 89.2544 354.94C88.6949 354.944 87.9586 354.901 87.0317 354.722C87.0087 354.718 86.9881 354.709 86.9683 354.705C87.0751 355.596 86.9023 356.803 86.9741 357.272C87.099 358.351 88.1014 358.887 88.6489 359.441C88.8721 359.67 89.0257 359.914 89.0503 360.251C89.2227 361.45 86.8894 361.262 88.6743 363.262C89.5151 362.208 90.443 361.166 91.2593 360.081C94.5111 362.265 99.5427 362.811 104.702 361.719C104.997 361.657 105.286 361.597 105.573 361.535C106.312 361.374 105.414 360.821 106.191 360.632C109.466 359.83 112.188 359.731 114.843 358.337C116.898 357.256 118.592 355.265 120.409 353.549C122.457 353.8 124.903 351.058 126.919 348.981C127.031 348.869 127.139 348.762 127.244 348.658C127.885 348.014 128.151 348.326 128.665 347.907C130.536 346.248 128.719 346.371 128.913 345.726C129.566 342.927 132.409 344.085 133.937 340.443C134.018 340.257 133.487 337.249 133.513 336.896C133.732 334.552 134.179 336.773 134.821 335.481C135.975 333.151 136.994 331.586 137.658 328.528C137.852 327.628 137.668 325.26 139.045 323.895C139.224 323.721 139.685 324.034 139.781 323.875C141.491 320.931 139.939 320.228 140.102 318.229C140.268 316.225 142.454 313.906 143.001 313.451C144.407 312.294 142.894 314.732 142.947 314.836C143.525 316.156 144.176 314.034 144.856 312.568C145.844 312.81 146.516 312.109 146.53 311.552C146.532 311.201 146.244 310.916 145.576 310.996C145.541 311.001 145.501 311.048 145.459 311.123C145.266 311.468 145.012 312.343 144.856 312.568C144.566 311.992 144.429 311.369 144.447 310.716C144.452 309.453 145.063 308.127 146.288 306.856C144.584 306.565 142.922 306.219 141.331 305.824C138.41 305.053 140.959 307.077 138.241 305.499C138.056 305.388 138.982 305.044 138.224 304.712C136.498 303.981 133.207 302.678 131.947 301.965C129.519 300.612 129.122 300.384 126.899 299.007C123.871 297.094 120.707 294.277 117.826 291.844C117.207 291.324 117.565 292.523 116.538 291.724C115.495 290.931 113.112 288.459 112.454 287.505C111.782 286.558 112.489 286.576 112.436 286.348C112.028 284.493 108.516 282.403 108.176 282.01C105.997 279.624 104.161 277.168 102.515 274.689C99.2492 269.771 97.501 264.322 96.4946 258.627C95.2611 251.95 95.5112 244.622 96.2778 238.678C96.3588 237.982 96.4371 237.321 96.4937 236.725C98.1367 228.104 102.949 224.664 107.171 219.73C107.683 219.19 106.53 219.298 107.165 218.631C114.014 211.523 121.461 205.494 129.235 199.959C130.015 199.408 129.461 200.69 130.266 200.171C132.986 198.405 136.681 196.226 139.641 193.905C142.039 192.022 143.975 190.068 144.489 188.11C147.788 185.88 151.819 183.243 155.076 181.744C157.175 180.778 155.742 182.613 157.892 180.797C158.377 180.389 157.344 180.32 158.099 179.748C161.283 177.337 165.028 175.116 168.134 172.683C168.765 172.187 168.272 171.834 168.405 171.625C168.82 170.992 169.533 170.512 170.303 170.141C169.876 165.454 170.566 162.303 170.787 157.041C170.904 154.264 170.848 148.729 170.802 145.706C170.762 143.304 171.133 141.891 171.023 139.667C171.008 139.37 170.392 139.642 170.371 139.552C169.756 137.041 171.183 138.3 171.47 137.804C171.932 137.018 172.303 136.338 172.547 135.592C172.859 134.621 172.969 133.492 172.83 131.713C172.771 130.978 170.792 128.707 170.773 127.355C170.752 125.613 171.46 126.319 171.428 124.495C171.427 124.339 170.954 124.327 171.074 123.211C171.627 118.017 172.532 112.396 173.22 107.021C173.316 106.286 172.446 107.128 172.575 106.059C173.178 101.065 174.087 95.6064 175.375 90.8093C175.695 89.6277 176.063 90.4785 176.266 90.2498C176.619 89.8527 176.804 89.3433 176.882 88.8455C177.086 87.5562 176.684 86.1638 176.728 85.8884C178.215 76.6897 181.649 70.3237 184.853 61.5134C185.012 61.0379 185.346 56.8089 187.272 55.7908C187.401 55.7171 189.318 54.751 189.251 52.9959C189.248 52.8863 188.153 53.5357 189.1 51.8943C190.043 50.2614 191.151 47.3775 193.118 45.5271C193.222 45.4289 193.367 45.3188 193.54 45.1931C194.469 44.4471 196.04 43.3477 196.772 41.0408C196.731 40.8927 197.931 35.9644 200.28 36.0525C200.671 36.0855 201.507 37.4406 203.555 34.6951C203.973 34.1708 202.785 34.5778 204.042 33.363C206.022 31.4973 209.319 30.0942 212.631 28.3455ZM102.257 362.687C100.646 362.082 99.5149 363.907 100.198 364.199C102.596 365.105 103.955 363.25 102.257 362.687ZM82.9575 352.927C83.0026 355.27 85.4005 354.889 85.1411 353.322C84.3914 353.256 83.6583 353.162 82.9575 352.927ZM86.6255 353.445C86.7224 353.741 86.8158 354.034 86.8989 354.324C86.916 354.388 86.9286 354.457 86.9409 354.527C87.1445 354.469 87.4979 354.407 87.8306 354.325C88.5298 354.155 89.1455 353.927 88.3423 353.729C87.771 353.58 87.1963 353.501 86.6255 353.445ZM88.981 331.545C88.7902 331.523 88.5522 331.572 88.314 331.672C87.3355 332.067 86.536 333.25 87.4458 333.137C87.8319 333.101 88.3311 332.804 88.7358 332.499C89.2485 332.103 89.6481 331.635 88.981 331.545ZM169.625 253.133C168.819 255.957 166.699 260.373 165.185 263.811C164.936 264.378 164.706 264.935 164.509 265.445C162.697 264.717 161.95 268.333 162.811 270.126C162.025 272.48 161.361 275.082 160.543 277.355C160.263 278.137 159.867 277.466 159.78 277.549C158.436 278.848 159.412 280.24 159.322 280.773C158.291 286.549 156.157 290.915 155.545 296.572C155.54 296.625 155.619 296.712 155.714 296.833C162.853 297.728 169.795 298.483 175.494 297.962C176.051 297.899 176.964 299.211 178.01 298.534C177.95 298.122 177.773 297.677 177.65 297.259C179.278 296.576 180.143 295.846 180.792 294.863C184.267 289.283 185.59 281.131 183.503 274.257C182.431 270.577 180.682 266.791 178.548 263.27C178.222 262.737 178.132 264.06 177.495 263.036C175.212 259.429 172.549 256.19 169.637 253.083C169.633 253.099 169.629 253.116 169.625 253.133ZM170.056 183.695C167.539 185.742 165.12 186.701 162.681 188.523C161.968 189.054 162.839 189.223 162.725 189.368C161.51 190.844 162.013 189.149 160.982 189.695C158.091 191.224 155.14 193.313 152.522 195.262C151.561 195.98 153.079 195.794 152.214 196.43C149.948 198.109 147.649 199.805 145.372 201.485C142.452 203.64 139.532 205.736 136.681 207.699C135.71 208.367 135.944 207.471 135.673 207.522C133.816 207.848 132.629 210.366 132.271 210.807C130.599 212.847 129.523 213.094 127.844 214.619C120.087 221.63 108.165 232.39 106.957 237.367C106.936 237.443 106.923 237.506 106.915 237.542C104.923 251.053 104.706 259.987 110.78 269.047C110.809 269.089 110.838 269.131 110.868 269.173C111.329 269.83 111.484 268.743 111.888 269.3C117.068 276.451 122.548 283.156 129.397 287.949C129.956 288.337 129.584 287.196 130.488 287.788C132.344 288.995 134.667 290.47 136.52 291.659C137.428 292.239 135.864 292.131 136.797 292.705C138.981 294.037 141.529 295.085 144.066 295.686C145.143 295.934 143.742 294.802 145.109 295.164C146.579 295.539 148.067 295.832 149.568 296.05C150.414 293.477 151.597 290.813 152.129 288.386C152.42 287.062 151.471 288.174 151.649 287.262C152.118 284.842 153.127 282.855 153.535 280.384C153.571 280.159 152.791 280.523 152.983 279.771C153.217 278.852 153.46 277.954 153.709 277.069C152.99 276.852 151.842 276.498 151.371 276.469C150.897 276.452 151.225 277.428 150.326 277.235C149.41 277.02 148.873 276.04 147.382 275.343C145.869 274.517 145.949 275.902 143.145 273.051C141.925 271.685 140.633 269.812 139.862 267.354C137.801 261.548 138.04 253.242 140.104 247.993C140.856 245.942 140.918 247.125 141.492 245.777C141.712 245.281 141.925 244.795 142.137 244.315C143.439 241.532 144.719 240.584 145.794 239.596C146.892 238.673 147.917 238.007 148.976 237.452C149.836 237.016 149.16 238.197 150.039 237.746C152.56 236.5 154.655 235.548 157.449 234.62C160.015 233.662 163.993 233.697 166.833 234.808C166.687 234.543 166.522 234.308 166.45 233.805C166.085 231.344 168.315 227.507 168.631 226.981C168.646 226.966 168.398 229.429 168.948 228.178C169.767 227.537 168.63 227.008 168.631 226.981C168.863 226.633 169.696 221.761 169.666 220.772C169.659 220.233 169.004 220.457 169.012 220.178C169.183 214.435 169.372 208.718 169.687 202.888C169.734 202.017 169.789 201.098 169.848 200.212C169.865 200.092 170.558 200.29 170.585 200.006C170.987 196.045 170.174 193.489 169.72 190.198C169.361 187.602 169.416 185.439 170.056 183.695ZM154.709 273.713C154.212 274.357 153.749 275.028 153.554 275.828C153.541 275.937 153.718 276.078 153.951 276.229C154.197 275.383 154.449 274.546 154.709 273.713ZM162.35 245.476C162.023 245.503 161.809 245.649 161.689 245.815C161.665 245.866 161.916 246.464 161.643 246.536C161.548 246.562 161.426 246.598 161.272 246.651C160.006 247.088 158.111 247.93 156.669 248.714C155.935 249.11 155.249 249.529 154.779 249.867C154.563 250.02 154.395 250.158 154.332 250.203C153.736 251.534 153.258 252.837 152.911 254.116C152.707 254.891 152.185 253.929 152.037 254.496C151.312 257.333 151.756 260.375 152.629 263.419C152.677 263.734 152.994 264.419 153.625 265.241C155.204 267.074 153.896 267.487 154.625 269.332C154.687 269.493 155.331 269.905 155.804 270.347C156.572 268.054 157.396 265.707 158.282 263.163C158.455 262.669 158.648 262.098 158.853 261.49C159.809 258.662 160.929 254.817 161.767 252.492C162.445 250.646 163.248 248.658 164.025 246.663C164.05 246.265 163.974 245.84 163.279 245.616C163.171 245.585 162.673 245.441 162.35 245.476ZM164.441 265.484C164.623 267.28 164.117 269.149 162.814 270.119C163.345 268.573 163.859 267.015 164.441 265.484ZM150.242 264.983C150.075 264.64 149.786 264.327 149.487 264.669C149.433 264.699 149.915 265.733 149.987 265.739C150.477 265.792 150.402 265.328 150.242 264.983ZM219.837 35.0701C217.449 34.1149 217.951 37.4393 215.448 38.0349C215.36 38.0527 215.551 37.3672 215.302 37.3767C214.525 37.4075 213.896 37.8984 213.12 38.0115C211.382 38.2897 209.867 37.2177 208.06 39.6462C207.865 39.9688 209.327 41.0898 207.273 42.739C206.388 43.3449 203.263 46.9277 202.472 48.0271C201.615 49.0715 201.632 47.9736 201.558 48.0349C200.99 48.5859 200.584 48.9699 200.25 49.2566C198.971 50.3673 198.937 49.6381 197.343 50.5066C195.34 51.6248 198.054 52.5398 197.937 53.3816C197.818 54.2145 195.896 56.3904 195.376 56.9109C194.852 57.4256 194.913 56.4739 194.511 56.9685C191.883 60.2809 194.938 59.2108 194.737 60.615C194.309 63.9093 191.417 65.2942 190.109 67.9402C189.759 68.6537 190.441 68.234 190.218 68.9031C189.35 71.5429 188.148 72.9031 187.699 76.0945C187.619 76.6252 188.032 79.4099 186.699 80.7293C186.507 80.9179 186.194 80.1302 185.753 81.242C185.09 82.8975 184.182 85.9764 183.939 87.8806C183.758 89.2846 184.936 87.8972 184.304 89.5623C184.027 90.3044 183.839 88.7829 183.362 90.1775C183.36 90.1815 183.358 90.1852 183.357 90.1892C182.876 91.5865 182.198 95.3272 181.976 96.7459C181.747 98.1736 182.52 97.5008 182.543 97.6248C182.667 98.3594 182.533 101.118 182.497 101.364C180.719 113.214 178.523 124.19 178.188 135.888C178.181 136.137 178.176 136.387 178.17 136.639C178.151 137.58 178.865 136.989 178.869 137.133C179.003 140.353 177.306 137.738 176.599 139.965C177.998 139.696 177.687 141.019 177.755 143.29C177.79 144.386 178.348 143.809 178.4 143.911C179.157 145.554 178.07 146.648 177.845 146.933C177.019 147.995 177.922 149.175 177.372 149.9C176.826 150.613 176.093 148.913 176.043 151.089C176.523 151.714 177.863 150.128 178.029 151.791C178.414 155.661 178.097 161.597 177.759 166.749C180.424 165.154 182.691 163.48 185.416 161.63C186.348 160.994 184.816 161.124 185.7 160.488C187.407 159.262 189.136 158.029 190.859 156.801C193.734 154.751 196.596 152.685 199.36 150.685C200.347 149.97 199.898 151.182 200.391 150.865C202.544 149.456 202.181 148.153 204.171 146.733C204.586 146.433 204.745 147.036 204.855 147.019C206.609 146.726 206.613 144.859 206.868 144.576C210.016 141.003 213.152 139.768 216.024 136.099C216.358 135.662 215.027 136.158 215.995 134.958C221.231 128.439 225.94 121.107 229.43 113.436C230.248 111.652 231.01 109.886 231.729 108.103C232.316 106.629 232.456 107.866 232.549 107.794C234.036 106.544 233.038 105.118 233.136 104.607C233.939 100.607 235.833 97.0568 234.666 94.0593C237.633 79.0636 234.6 63.7484 229.787 49.3045C229.317 47.8415 228.258 46.1024 227.209 44.4861C227.088 44.3052 227.856 44.1985 227.61 43.8367C224.528 39.5422 224.31 40.9828 221.051 39.4783C220.497 39.2492 219.825 37.6585 219.674 37.0037C219.751 36.8164 219.625 36.5973 219.603 36.5574C219.431 36.2862 219.458 35.9389 219.607 35.6521C219.745 35.3649 219.963 35.1463 219.837 35.0701ZM173.097 165.097C173.783 163.211 171.397 162.888 171.933 164.952C171.962 165.052 173.063 165.195 173.097 165.097ZM176.049 162.46C175.305 161.622 175.188 164.686 175.99 164.055C176.022 164.018 176.08 162.502 176.049 162.46ZM189.298 66.4949C188.668 66.3152 188.254 67.808 188.999 67.572C189.044 67.5513 189.491 66.5531 189.298 66.4949ZM231.638 48.5818C231.166 47.316 230.126 46.3153 229.966 47.2947C229.956 47.3494 230.426 48.1904 230.702 48.947C230.998 49.7422 231.282 50.4979 231.329 50.5398C232.22 51.1731 232.103 49.8499 231.638 48.5818Z" fill="white"/>
<path d="M311.084 262.532C311.678 262.337 313.402 264.578 312.666 264.638C312.533 264.648 312.444 263.733 312.185 263.592C311.711 263.334 312.429 264.951 311.709 264.278C311.577 264.153 311.05 262.547 311.083 262.529C311.083 262.53 311.084 262.531 311.084 262.532ZM324.214 223.934C324.077 223.088 324.963 224.188 325.067 224.256C325.891 224.711 326.156 224.299 326.672 224.136C326.79 224.1 326.401 223.429 326.509 223.368C327.073 223.057 327.738 222.926 328.409 223.099C328.561 223.139 328.603 223.796 328.682 223.85C329.024 224.072 328.793 222.869 329.119 223.063C329.186 223.103 329.28 223.651 329.304 223.708C329.673 224.604 329.51 223.253 329.547 223.214C329.982 222.702 330.581 224.029 331.025 223.752C331.079 223.716 330.832 223.048 330.995 222.991C332.081 222.619 333.329 222.695 334.43 223.215C334.606 223.295 334.502 223.827 334.516 223.891C334.722 224.899 334.782 223.536 334.835 223.484C335.274 223.103 335.652 224.244 335.958 222.626C336.082 222.669 336.241 222.704 336.356 222.733C339.069 223.117 339.826 224.69 340.398 225.58C340.928 226.585 341.088 227.576 340.682 228.61C340.671 228.638 340.018 228.775 339.998 228.828C339.776 229.459 340.753 229.085 342.087 229.206C342.422 229.245 340.976 229.851 340.868 229.89C340.478 230.058 339.484 230.153 339.408 230.198C338.829 230.541 342.068 229.914 342.13 230.288C342.118 230.3 341.519 230.348 341.464 230.387C341.292 230.508 341.543 230.562 341.35 230.682C340.901 230.959 339.32 231.219 340.279 231.399C340.407 231.424 342.256 231.154 342.202 231.491C342.187 231.576 342.215 231.839 342.204 232.063C342.258 232.289 342.1 232.903 342.062 233.133C342.011 233.237 341.955 233.326 341.896 233.362C341.735 233.459 341.201 233.168 341.17 233.168C340.29 233.268 340.026 233.02 338.852 232.802C337.683 232.581 340.338 233.476 340.608 233.656C340.875 233.835 340.162 233.873 339.924 233.856C339.686 233.842 339.356 233.63 339.213 233.642C338.282 233.725 340.457 234.291 340.827 234.573C341.701 235.244 339.67 234.742 339.378 234.927C339.299 234.979 339.761 235.092 339.779 235.171C339.836 235.491 339.172 235.407 339.608 235.918C339.681 236.001 340.739 236.709 339.829 236.512C339.698 236.483 339.244 236.226 339.092 236.289C338.865 236.382 338.638 236.631 338.724 236.87C338.788 237.047 339.635 237.236 339.323 237.293C339.183 237.318 338.78 236.989 338.557 237.051C338.335 237.112 338.21 237.452 338.167 237.591C338.126 237.726 338.747 237.919 338.784 237.947C338.984 238.112 339.156 238.491 339.145 238.513C338.709 239.665 337.239 240.186 337.011 241.387C336.992 241.482 337.623 241.747 337.628 241.765C337.73 242.182 336.245 241.107 335.607 241.01C336.842 241.638 336.562 241.634 336.59 241.899C336.603 242.029 337.099 242.235 337.145 242.271C337.781 242.806 336.805 242.398 336.603 242.318C335.859 242.026 336.62 242.582 336.123 242.386C335.631 242.19 335.031 241.669 334.937 241.853C335.34 242.148 336.546 242.648 336.649 242.893C337.037 243.829 335.561 244.317 335.212 244.67C334.864 245.028 334.849 245.216 334.545 245.357C333.993 245.608 334.899 245.98 335.083 246.499C335.264 247.019 333.391 245.562 332.943 245.316C332.498 245.068 332.904 245.4 332.642 245.289C332.381 245.176 332.16 244.886 332.003 244.931C331.847 244.973 332.393 245.774 332.801 246.118C333.668 246.845 334.732 247.389 334.186 247.443C334.154 247.445 333.684 247.032 333.588 247.059C332.844 247.281 332.445 247.772 331.737 247.999C331.639 248.028 331.136 247.549 331.073 247.56C330.421 247.679 331.454 248.251 332.297 249.277C330.981 248.159 330.058 247.627 329.821 247.904C329.677 248.072 330.288 248.515 330.605 248.967C330.7 249.103 330.198 248.9 330.452 249.148C331.283 249.961 332.381 250.671 331.723 250.652C331.693 250.65 331.243 250.2 331.175 250.221C330.733 250.356 331.62 251.183 331.447 251.607C331.309 251.941 330.356 251.9 330.007 252.1C328.583 250.783 328.676 251.336 329.552 252.357C329.343 252.499 329.21 252.749 328.914 252.79C328.812 252.804 328.445 252.374 328.395 252.34C327.606 251.786 328.462 252.772 328.46 252.846C328.408 253.607 327.386 253.23 327.658 254.304C327.675 254.349 328.572 255.337 327.789 254.729C327.735 254.685 327.443 254.118 327.224 254.26C327.006 254.402 326.162 254.202 326.321 254.902C326.359 255.071 326.925 256.032 326.225 255.511C326.13 255.44 325.891 255.136 325.723 254.998C325.187 254.559 326.046 255.616 325.184 254.835C324.32 254.054 323.565 253.565 323.824 254.397C323.836 254.429 324.473 255.293 324.378 255.352C324.226 255.445 323.886 255.44 323.752 255.562C323.69 255.623 324.162 256.096 324.16 256.116C323.996 256.622 323.555 256.647 323.074 256.707C323.07 256.712 323.054 256.721 323.049 256.726C322.886 256.735 322.712 256.75 322.543 256.787C322.422 256.814 322.657 257.76 322.062 257.289C321.415 256.77 319.785 253.902 319.77 254.854C319.767 255.235 321.804 258.89 320.279 257.299C320.05 257.83 319.521 257.846 319.074 258.005C319.178 258.186 319.275 258.367 319.3 258.497C319.351 258.791 318.979 258.344 318.963 258.728C318.929 259.123 319.411 259.756 318.966 260.078C318.443 260.406 317.672 260.871 315.897 261.081C315.979 261.211 316.066 261.342 316.072 261.377C316.12 261.66 315.821 261.336 315.887 261.636C315.903 261.709 316.16 262.149 316.187 262.233C316.427 262.964 315.614 262.109 315.473 261.959C314.938 261.393 315.202 262.007 314.935 261.818C314.698 261.649 314.659 261.297 314.495 261.165C314.315 261.154 314.128 261.134 313.938 261.106C313.71 261.165 313.519 261.304 313.337 261.393C313.221 261.454 313.636 261.993 313.631 262.02C313.482 262.307 312.879 261.819 313.428 263.069C311.505 260.126 313.456 263.447 312.765 263.034C312.709 262.999 311.845 261.583 311.825 261.313C311.806 261.043 312.221 261.402 312.172 260.992C312.169 260.963 312.111 260.809 312.034 260.606C310.501 260.045 309.034 259.137 308.417 258.189C307.677 257.22 308.398 257.393 308.049 256.793C307.521 255.766 307.129 255.161 307.015 254.532C307.014 254.492 307.017 254.45 307.023 254.407C307.046 254.266 307.731 254.195 307.742 254.057C307.806 253.314 307.481 252.751 307.488 252.071C307.558 248.757 308.123 246.134 308.959 243.68C309.241 242.866 310.091 242.076 310.091 241.208C310.089 241.106 309.512 240.981 309.47 240.948C308.855 240.435 309.955 240.897 310.165 240.769C310.995 240.257 311.326 239.534 311.383 238.797C311.405 238.483 310.21 238.313 310.934 238.284C310.985 238.283 311.531 238.593 311.624 238.544C311.833 238.431 311.869 238.069 311.972 237.958C312.174 237.747 312.187 237.704 312.301 237.472C312.462 237.156 312.922 236.914 312.96 236.517C312.967 236.43 312.345 236.241 312.305 236.075C312.266 235.909 312.47 235.627 312.658 235.593C312.846 235.559 313.271 235.835 313.383 235.87C314.321 236.174 313.314 235.211 313.305 235.142C313.265 234.47 313.67 234.082 314.081 233.724C314.347 233.482 314.617 233.253 314.802 232.964C315.174 232.377 315.395 231.622 315.839 231.103C316.365 230.497 317.066 230.209 317.553 229.602C317.605 229.538 316.989 229.091 317.054 229.011C317.742 228.155 318.627 227.457 319.789 227.187C319.905 227.161 320.209 227.765 320.347 227.772C321.202 227.787 322.665 228.365 321.429 225.736C321.864 225.588 322.401 225.403 323.023 225.722C323.423 225.928 323.561 226.675 323.674 226.263C323.699 226.17 323.323 225.656 323.387 225.559C323.66 225.15 324.186 225.117 324.437 224.642C324.49 224.542 324.233 224.038 324.214 223.934ZM329.965 252.07C330.416 252.709 330.342 252.919 329.554 252.357C329.701 252.274 329.819 252.16 329.965 252.07ZM312.749 260.839C313.228 261.505 313.241 261.29 313.164 260.952C313.027 260.919 312.888 260.88 312.749 260.839ZM329.796 231.994C329.795 232.029 330.034 232.622 329.988 232.703C329.824 232.977 329.566 232.995 329.414 233.269C329.377 233.344 329.698 233.927 329.637 234.017C329.468 234.263 329.133 234.222 328.824 234.136C328.711 234.103 328.534 233.581 328.503 233.528C327.991 232.695 328.49 233.904 328.497 233.991C328.506 234.497 328.084 234.021 327.983 234.261C327.956 234.325 328.288 234.854 328.307 234.911C328.477 235.44 328.005 234.417 327.882 234.343C327.535 234.134 327.361 234.295 327.23 234.473C327.186 234.539 327.639 235.108 327.596 235.158C327.35 235.462 327.011 235.616 326.472 235.529C326.37 235.511 326.058 235.045 325.968 234.954C325.326 234.323 325.964 235.376 326.015 235.484C326.234 235.992 325.872 235.651 325.826 235.814C325.626 236.598 324.846 236.95 324.263 237.363C323.646 237.796 322.964 238.09 322.545 238.693C322.448 238.836 322.361 238.995 322.292 239.166C322.269 239.229 322.947 239.535 322.933 239.593C322.731 240.318 322.139 240.828 322.022 241.577C322.015 241.638 322.685 241.863 322.691 241.968C322.707 242.186 322.573 242.384 322.29 242.468C322.153 242.51 321.651 242.149 321.523 242.198C321.225 242.312 321.083 242.517 321.101 242.772C321.11 242.881 321.83 243.02 321.793 243.137C321.541 243.947 321.409 244.698 320.294 245.208C320.218 245.242 318.792 244.9 319.03 245.095C319.421 245.21 319.883 245.333 320.302 245.449C320.236 246.594 319.58 247.514 319.49 248.401C319.487 248.436 320.265 248.385 320.262 248.449C320.251 248.829 320.484 249.062 319.772 249.471C319.756 249.48 319.677 249.498 319.567 249.522C319.257 249.051 318.663 248.342 317.297 247.639C316.716 247.394 316.967 248.298 316.584 248.159C315.18 247.673 314.006 247.849 313.622 247.942C313.191 248.053 313.167 248.128 313.357 248.37C313.656 248.683 314.185 249.731 314.863 250.677C314.959 250.81 315.134 250.74 315.48 251.316C316.117 252.382 316.735 253.558 317.389 254.718C317.417 254.7 317.444 254.681 317.47 254.661C317.525 254.616 317.08 254.042 317.128 253.979C317.329 253.716 317.838 254.003 317.996 253.657C318.119 253.385 317.926 252.596 318.029 252.297C319.007 253.494 319.035 252.849 319.338 252.812C319.443 252.799 319.67 253.142 319.803 253.214C320.297 253.475 319.424 252.426 319.359 252.21C319.169 251.597 319.906 252.519 320.491 253.113L320.259 253.291C320.571 253.559 320.84 253.751 320.921 253.652C320.933 253.634 320.076 252.217 320.034 252.118C319.766 251.475 320.425 252.535 320.603 252.545C320.928 252.562 321.312 252.75 321.213 252.205C321.182 252.042 320.668 251.14 321.298 251.64C321.382 251.706 321.724 252.12 321.759 252.136C322.334 252.339 321.226 251.044 320.969 250.501C320.712 249.961 321.683 250.672 321.95 250.888C322.639 251.448 322.119 251.24 322.17 251.309C322.781 252.135 322.813 251.872 322.98 251.838C324.11 253.069 324.203 252.851 323.15 251.798C323.034 251.683 323.053 251.875 322.98 251.838C321.983 250.531 321.999 250.234 323.218 251.194C323.789 251.644 324.274 252.336 324.333 251.864C324.359 251.649 323.528 250.853 323.418 250.526C323.156 249.791 324.201 250.275 324.32 249.921C324.361 249.792 323.838 249.426 323.851 249.323C323.886 249.05 324.35 249.253 324.331 248.928C324.325 248.895 323.826 248.469 323.866 248.416C324.162 248.007 324.767 247.983 325.131 247.605C325.311 247.417 325.336 246.846 325.565 246.695C325.95 246.445 327.047 246.629 327.12 246.173C327.169 245.877 326.62 245.508 326.338 245.142C325.786 244.441 327.232 245.125 327.456 245.23C327.464 245.234 327.449 245.504 327.789 245.62C328.386 246.001 327.458 245.234 327.456 245.23C327.599 245.302 327.985 245.047 327.939 244.9C327.913 244.82 327.402 244.464 327.395 244.429C327.3 243.63 327.501 243.085 328.074 242.774C328.099 242.78 328.653 243.184 328.685 243.177C329.139 243.068 328.554 242.407 328.287 241.895C328.02 241.38 328.273 241.303 329.372 241.812C329.36 241.553 329.974 241.575 330.34 241.596C330.707 241.614 329.563 240.878 329.548 240.851C329.066 239.992 329.868 240.169 330.227 239.792C330.401 239.612 330.457 239.112 330.451 238.812C330.445 238.576 330.782 238.622 330.691 238.362C330.677 238.326 330.135 238.063 330.117 238.045C329.574 237.523 330.833 238.306 331.087 238.394C332.009 238.707 332.512 238.854 332.239 238.398C332.175 238.289 330.364 237.157 330.302 237.004C330.226 236.806 330.882 237.2 330.786 236.981C330.778 236.963 330.356 236.753 330.416 236.679C330.693 236.329 331.141 236.034 331.292 235.597C331.314 235.538 330.603 235.294 330.623 235.205C330.714 234.8 330.927 234.395 331.409 234.165C331.53 234.11 331.985 234.375 332.136 234.417C333.05 234.666 331.881 233.954 331.861 233.912C331.72 233.487 331.919 233.24 332.154 233.012C332.063 232.903 331.962 232.754 331.844 232.554C331.822 232.517 331.798 231.989 331.699 231.879C331.488 231.883 331.321 231.875 331.485 231.808C331.283 231.72 331.043 231.584 330.954 231.997C330.919 232.162 331.214 233.316 330.862 232.556C330.789 232.397 330.455 231.002 330.606 232.245C330.623 232.453 330.823 234.134 330.387 233.142C330.271 232.88 329.825 231.791 329.796 231.994ZM334.617 242.921C334.002 242.467 333.803 242.683 334.513 243.036C334.542 243.049 334.641 242.94 334.617 242.921ZM319.714 249.758C319.768 249.748 319.806 249.744 319.813 249.751C319.879 249.833 319.899 249.917 319.874 250.014C319.83 249.959 319.781 249.871 319.714 249.758ZM318.579 249.811C318.404 249.756 319.18 249.605 319.567 249.522C319.624 249.609 319.673 249.688 319.714 249.758C319.532 249.791 319.162 249.895 319.128 249.9C318.832 249.94 318.62 249.825 318.579 249.811ZM331.995 241.647C332.643 241.835 330.599 240.592 330.999 241.038C331.022 241.062 331.963 241.638 331.995 241.647ZM314.611 251.212C314.323 250.51 314.218 250.488 314.53 251.213C314.541 251.243 314.621 251.243 314.611 251.212ZM338.198 234.367C337.59 234.14 337.71 234.339 338.286 234.513C338.32 234.523 338.387 234.437 338.198 234.367ZM334.191 230.305C334.015 230.146 333.961 231.841 333.936 231.896C333.833 232.09 333.728 232.132 333.623 232.116C333.666 232.139 333.713 232.162 333.761 232.187C333.732 232.183 333.698 232.178 333.659 232.174C333.544 232.164 333.338 232.203 333.142 232.214L333.119 232.386C333.447 232.348 333.812 232.299 333.893 232.252C334.146 232.372 334.454 232.495 334.805 232.598C334.703 232.5 334.607 232.373 334.518 232.207C334.048 231.348 334.544 230.644 334.191 230.305ZM333.761 232.187C333.904 232.207 333.934 232.228 333.893 232.252C333.847 232.23 333.803 232.208 333.761 232.187ZM339.876 227.983C338.647 228.22 338.733 228.905 339.933 228.378C339.996 228.349 339.94 227.975 339.876 227.983ZM332.128 230.614C332.24 230.664 332.382 230.743 332.583 230.867C332.572 230.716 332.562 230.535 333.096 230.563C333.147 230.566 333.244 230.581 333.357 230.597L333.354 230.615C333.367 230.611 333.38 230.606 333.393 230.602C333.772 230.654 334.286 230.71 333.857 230.414C334.067 230.267 334.23 230.03 333.814 230.088C333.727 230.102 333.598 230.136 333.449 230.182C333.438 230.176 333.426 230.17 333.415 230.164L333.411 230.194C332.995 230.322 332.436 230.525 332.128 230.614ZM333.449 230.182C333.586 230.255 333.687 230.306 333.701 230.314C333.763 230.351 333.815 230.385 333.857 230.414C333.855 230.415 333.854 230.417 333.852 230.418C333.771 230.475 333.59 230.538 333.393 230.602C333.381 230.6 333.369 230.598 333.357 230.597L333.411 230.194C333.424 230.19 333.436 230.186 333.449 230.182Z" fill="white"/>
<path d="M310.553 133.716C313.281 133.286 315.678 134.496 318.192 134.636C318.394 134.65 318.403 133.956 318.435 133.95C319.184 133.819 318.261 135.475 318.571 136.17C318.824 134.806 319.033 135.11 319.537 135.087C319.779 135.075 319.8 134.524 319.834 134.476C320.397 133.786 320.347 134.871 320.338 135.093C320.326 135.917 320.835 135.098 320.822 135.652C320.796 136.198 320.231 136.829 320.642 136.959C320.924 136.531 321.026 135.194 321.429 135.112C322.542 134.892 323.92 135.872 324.845 136.765C325.196 137.105 325.489 137.412 325.725 137.603C326.549 138.279 326.873 138.419 327.251 138.936C327.912 139.88 328.201 138.879 329.033 139.01C329.864 139.16 328.018 140.685 327.751 141.13C327.478 141.568 327.904 141.249 327.798 141.532C327.69 141.813 327.28 141.903 327.397 142.156C327.511 142.402 328.653 142.259 329.105 141.963C330.055 141.324 330.662 140.244 330.893 141.09C330.901 141.14 330.355 141.463 330.422 141.626C330.967 142.906 331.786 143.958 332.198 145.233C332.253 145.409 331.603 145.693 331.628 145.799C331.87 146.892 332.602 145.913 334.006 145.662C332.509 146.531 331.82 147.384 332.23 148.03C332.476 148.422 333.067 147.949 333.682 147.927C333.866 147.92 333.605 148.477 333.938 148.343C335.03 147.91 335.971 146.955 335.967 147.948C335.965 147.992 335.36 148.218 335.392 148.346C335.593 149.179 336.688 148.651 337.258 149.368C337.704 149.927 337.638 151.375 337.884 152.126C336.151 152.998 336.871 153.435 338.203 153.113C338.382 153.595 338.689 154.053 338.734 154.576C338.749 154.754 338.194 154.897 338.149 154.942C337.428 155.641 338.697 155.282 338.79 155.36C339.742 156.219 339.243 157.509 340.577 158.138C340.625 158.16 341.885 157.676 341.107 158.349C341.05 158.394 340.344 158.305 340.512 158.804C340.682 159.308 340.415 160.505 341.278 160.932C341.485 161.034 342.667 161.017 342.023 161.686C341.935 161.776 341.559 161.88 341.388 162.027C340.844 162.499 342.145 162.079 341.182 162.771C340.699 163.118 340.31 163.502 340.172 163.846C340.174 163.853 340.183 163.872 340.186 163.879C340.061 164.226 340.18 164.519 340.691 164.68C340.721 164.692 341.778 164.406 341.858 164.625C341.983 164.97 341.994 165.547 342.153 165.892C342.23 166.057 342.797 165.683 342.821 165.707C343.664 166.704 343.461 167.763 343.704 169.098C343.748 169.342 344.856 169.684 344.338 170.377C343.77 171.137 340.501 171.753 341.608 172.554C342.042 172.856 346.218 172.187 344.389 173.641C345.368 175.105 344.617 176.8 345.558 178.303C345.603 178.368 346.784 178.491 346.784 178.677C346.782 178.952 346.25 179.141 346.226 179.329C346.109 180.122 346.576 180.849 346.459 181.627C346.414 181.918 345.86 181.778 345.801 182.113C345.741 182.441 346.453 182.761 346.032 183.18C345.994 183.217 345.94 183.251 345.873 183.282L345.876 183.271C345.327 183.406 344.108 183.207 343.818 183.46C345.165 184.106 345.014 184.372 345.094 185.058C345.109 185.192 345.622 185.334 345.654 185.411C345.785 185.732 345.309 185.699 345.459 186.022C345.495 186.101 345.935 186.361 345.988 186.441C346.45 187.141 345.154 187.046 344.936 187.014C344.096 186.918 344.556 187.424 344.146 187.497C343.74 187.562 343.666 187.006 343.333 187.173C342.644 187.518 342.208 188.258 341.776 188.792C341.607 189.005 342.262 189.268 342.25 189.308C342.042 189.87 341.116 189.879 341.989 190.966C338.985 189.104 342.043 191.449 340.978 191.654C340.89 191.666 339.549 190.69 339.512 190.347C339.475 190.005 340.111 190.039 340.021 189.54C340.003 189.419 339.055 188.106 339.017 188.001C338.723 187.179 340.728 188.629 340.857 188.694C342.205 189.353 341.207 187.891 341.195 187.712C341.16 186.866 341.764 186.619 341.753 185.961C341.747 185.532 340.407 184.611 340.587 184.427C341.157 183.843 343.304 184.665 341.92 183.074C341.626 182.753 340.068 182.131 341.301 182.244C341.359 182.138 341.435 182.033 341.347 181.878C341.178 181.586 340.906 181.255 341.09 180.96C341.201 180.784 342.167 180.547 342.403 180.443C343.082 180.155 341.956 179.89 342.77 179.68C343.586 179.447 344.865 179.768 345.366 179.203C344.022 179.276 342.642 179.332 341.291 179.408C341.27 178.474 341.542 177.427 341.25 176.407C341.213 176.283 340.538 176.572 340.48 176.446C340.238 175.917 340.604 175.282 340.231 174.737C339.938 174.314 339.048 174.041 338.703 173.623C340.064 172.838 339.308 172.258 339.24 171.678C339.214 171.471 339.602 171.339 339.677 171.157C339.944 170.469 338.767 171.197 338.514 171.135C337.434 170.884 340.273 169.691 339.906 168.994C339.885 168.952 338.184 169.124 338.06 169.102C337.276 168.96 338.556 168.815 338.561 168.512C338.57 167.97 338.786 167.482 338.107 167.135C337.903 167.03 336.807 167.078 337.387 166.444C337.464 166.361 337.967 166.159 337.981 166.113C338.192 165.302 336.638 166 335.958 165.906C335.924 165.901 335.893 165.894 335.866 165.885C335.852 165.846 335.797 165.736 335.783 165.696C335.279 165.496 336.064 164.589 336.317 164.359C337.002 163.733 336.755 164.428 336.84 164.413C337.86 164.195 337.533 163.873 337.485 163.539C339.004 162.84 338.731 162.457 337.428 163.194C337.286 163.275 337.529 163.448 337.485 163.539C335.862 163.913 335.478 163.546 336.665 162.431C337.222 161.91 338.087 161.8 337.494 161.203C337.225 160.931 336.225 161.516 335.812 161.354C334.872 160.99 335.479 159.714 335.019 159.111C334.853 158.896 334.387 159.39 334.254 159.253C333.903 158.894 334.151 158.304 333.732 157.978C333.693 157.949 333.14 158.324 333.07 158.193C332.524 157.212 332.482 156.155 331.969 155.124C331.721 154.622 330.942 153.926 330.732 153.396C330.374 152.485 330.592 150.964 329.95 150.383C329.537 150.007 329.044 150.462 328.546 150.518C327.59 150.64 328.465 149.157 328.596 148.926C328.606 148.922 328.986 149.199 329.127 148.811C329.623 148.295 328.612 148.92 328.596 148.926C328.687 148.778 328.283 147.961 328.074 147.898C327.96 147.864 327.494 148.281 327.446 148.257C326.299 147.666 325.483 146.954 324.925 145.972C324.92 145.95 325.438 145.479 325.42 145.431C325.175 144.745 324.274 145.078 323.569 145.137C322.859 145.195 322.69 144.848 323.17 143.706C322.773 143.592 322.627 142.843 322.52 142.39C322.411 141.937 321.651 143.065 321.614 143.076C321.407 143.124 321.238 143.139 321.094 143.127C320.553 143.154 320.425 142.474 319.811 142.108C319.46 141.893 318.61 141.802 318.141 141.825C317.77 141.842 317.644 141.48 317.278 141.602C317.228 141.622 317.134 142.216 317.116 142.238C316.618 142.867 317.103 141.461 317.086 141.185C317.019 140.188 316.912 139.641 316.34 140.005C316.196 140.086 315.577 142.15 315.393 142.254C315.141 142.383 315.313 141.634 315.039 141.792C315.016 141.805 314.975 142.274 314.825 142.24C314.13 142.089 313.35 141.804 312.608 141.901C312.508 141.915 312.684 142.649 312.548 142.678C311.906 142.814 311.225 142.887 310.522 142.686C310.347 142.635 310.327 142.104 310.258 141.96C309.821 141.095 309.834 142.501 309.804 142.54C309.698 142.642 309.591 142.723 309.482 142.789C307.124 143.721 305.745 142.872 304.329 143.651C304.233 143.702 303.843 145.251 303.366 144.063C303.337 143.982 302.821 142.773 302.779 143.679C302.779 143.695 302.799 143.755 302.825 143.832C302.625 143.742 302.318 143.625 302.307 143.528C302.254 143.141 302.36 142.929 302.349 142.83C302.337 142.87 302.295 142.95 302.16 143.07C302.03 143.194 301.115 143.177 300.884 143.364C300.82 143.413 300.76 143.484 300.716 143.564C300.712 143.559 300.711 143.559 300.714 143.567C300.6 143.776 300.596 144.045 300.918 144.155C300.967 144.172 301.027 144.179 301.096 144.182C301.089 144.171 301.082 144.16 301.075 144.148C301.084 144.16 301.092 144.171 301.1 144.182C301.168 144.186 301.244 144.185 301.325 144.179C301.35 144.267 301.379 144.367 301.409 144.47C301.529 144.488 301.575 144.326 301.897 144.293C301.878 144.27 301.858 144.246 301.839 144.218C301.826 144.197 301.806 144.164 301.782 144.125C302.25 144.056 302.739 143.97 302.892 144.083C302.918 144.224 302.91 144.346 302.79 144.341C302.742 144.339 302.696 144.355 302.649 144.377C302.74 144.389 302.835 144.398 302.92 144.389C302.969 144.385 303.014 144.373 303.052 144.357C303.619 145.57 303.372 147.348 303.826 149.012C303.899 149.276 304.313 148.89 304.455 149.262C304.981 150.653 306.398 152.918 305.901 154.591C305.502 155.936 304.352 154.922 304.343 155.838C304.346 156.287 306.066 156.023 306.154 156.094C307.022 156.762 306.599 157.667 307.154 158.363C307.27 158.507 307.825 158.073 307.916 158.199C308.235 158.632 308.169 159.237 308.427 159.678C308.541 159.87 309.001 159.619 309.047 159.82C309.161 160.297 309.146 160.8 308.892 161.427C308.869 161.485 308.157 161.485 308.283 161.825C308.493 162.379 308.356 163.245 309.095 163.659C309.316 163.78 310.408 163.297 309.837 164.027C309.719 164.181 308.367 164.676 309.703 164.615C309.925 164.605 311.802 164.681 310.999 165.505C310.788 165.723 309.844 166.475 310.116 166.62C310.159 166.636 310.681 166.245 310.824 166.403C311.252 166.89 311.495 167.471 311.883 168.009C311.943 168.092 312.005 168.174 312.072 168.253C312.208 168.412 312.679 167.857 312.863 168.103C313.359 168.762 313.648 169.772 313.786 170.553C313.843 170.858 313.257 170.904 313.212 170.949C312.483 171.683 313.754 171.308 313.874 171.378C314.58 171.8 314.269 172.589 314.681 173.085C314.797 173.23 315.307 172.85 315.375 172.857C316.032 172.973 314.893 173.193 314.882 173.463C314.842 174.204 315.203 174.858 315.553 175.419C315.687 175.632 316.226 175.072 316.337 175.266C316.999 176.39 317.507 177.649 317.673 178.956C317.702 179.199 317.135 179.302 317.038 179.4C316.375 180.092 317.682 180.017 317.84 180.079C318.54 180.326 318.178 180.718 318.453 181.088C319.808 182.905 320.685 185.457 321.448 187.434C322.438 190.003 322.934 192.155 324.257 194.457C324.342 194.606 324.926 194.115 325.008 194.24C325.323 194.736 325.584 195.225 325.853 195.767C326.407 196.885 326.903 198.046 327.624 199.102C327.709 199.228 328.232 198.709 328.389 198.9C328.715 199.29 328.976 199.867 329.013 200.417C329.032 200.685 328.343 200.677 328.373 200.941C328.444 201.558 328.691 202.129 329.072 202.599C329.235 202.799 329.69 202.122 329.853 202.408C330.973 204.347 332.137 206.22 332.416 208.666C332.435 208.833 331.216 209.66 331.623 209.816C331.992 209.642 332.41 209.409 332.796 209.209C334.588 211.973 335.734 215.064 337.285 218.005C337.352 218.128 337.91 217.539 338.041 217.777C338.795 219.152 339.728 220.383 339.839 222.179C339.851 222.358 338.61 222.937 339.024 223.26C339.099 223.318 339.604 223.856 339.95 223.87C340.002 223.869 340.497 223.449 340.624 223.642C341.357 224.778 341.91 226.102 342.208 227.512C342.252 227.737 341.544 227.844 341.57 228.006C341.772 229.176 342.801 230.049 342.749 231.455C342.73 232.465 341.504 232.584 340.6 233.45C340.537 233.516 340.536 233.647 340.487 233.857C340.438 234.066 340.31 234.28 339.987 234.373C338.348 234.791 336.533 235.164 334.8 235.662C334.614 235.703 334.602 235.697 334.498 235.38C334.45 235.237 334.398 235.038 334.3 235.005C334.203 234.962 334.044 235.159 333.846 235.482C333.816 235.535 333.785 235.885 333.679 235.954C333.581 236.071 333.431 236.111 333.279 236.159C333.069 236.227 332.423 236.453 332.158 236.546C331.893 236.641 332.406 236.376 332.052 236.385C331.689 236.388 331.002 236.755 330.792 236.514C330.28 235.886 329.842 234.547 329.627 233.489C329.555 233.15 330.01 233.103 329.978 232.863C329.914 232.392 329.526 232.11 329.488 231.626C329.476 231.462 330.155 231.307 330.128 231.141C329.976 230.237 329.433 229.602 329.13 228.757C327.64 224.598 325.727 220.691 323.825 216.627C323.197 215.286 322.863 213.419 321.897 212.208C321.783 212.067 321.317 212.443 321.258 212.436C320.35 212.325 321.479 211.91 321.451 211.529C321.34 210.02 320.658 208.646 319.829 207.581C319.476 207.129 318.71 208.181 319.021 207.369C319.041 207.313 319.661 207.144 319.648 206.976C319.615 206.596 319.201 206.058 319.117 205.794C318.959 205.283 318.913 205.21 318.687 204.765C318.383 204.155 318.285 203.297 317.822 202.713C317.721 202.591 317.247 203.068 317.035 202.898C316.824 202.727 316.57 202.116 316.602 201.847C316.635 201.58 317.127 201.434 317.212 201.346C317.79 200.758 316.908 200.603 316.498 200.527C316.396 200.506 316.323 200.492 316.308 200.477C314.999 199.16 314.991 197.443 314.24 195.963C313.666 194.835 312.833 193.746 312.325 192.651C311.719 191.339 311.493 190.101 310.824 188.859C310.753 188.729 310.151 189.214 310.064 189.054C309.142 187.357 308.404 185.582 308.068 183.649C308.038 183.46 308.738 183.397 308.742 183.19C308.749 181.912 309.159 179.691 306.254 180.289C306.017 179.513 305.725 178.613 305.957 177.737C306.102 177.163 306.943 177.257 306.427 176.881C306.313 176.799 305.808 177.211 305.68 177.068C305.135 176.451 304.961 175.595 304.321 175.002C304.194 174.892 303.699 175.17 303.588 175.175C302.685 175.196 303.648 174.035 303.676 173.862C303.818 173.063 303.639 172.555 303.37 172.03C303.219 171.734 303.045 171.447 302.899 171.12C302.806 170.912 302.231 171.479 302.117 171.291C301.535 170.306 301.091 169.198 300.932 168.047C300.899 167.792 301.582 167.725 301.597 167.59C301.649 166.985 300.487 167.386 300.519 166.822C300.524 166.704 301.054 166.527 301.102 166.484C301.849 165.817 300.505 166.137 300.445 166.077C299.664 165.347 300.692 164.184 300.128 163.41C300.058 163.314 299.523 163.838 299.365 163.552C298.316 161.67 297.6 159.524 297.312 157.331C297.267 156.991 297.845 157.012 297.897 156.968C298.71 156.272 297.371 156.59 297.282 156.504C296.618 155.842 297.396 154.698 295.675 154.733C294.959 151.167 292.722 147.874 293.82 143.614C293.834 143.562 294.508 143.613 294.533 143.514C294.713 142.853 294.501 142.635 294.044 142.396C293.688 142.18 293.172 141.977 292.695 141.386C292.422 140.999 294.141 140.553 294.269 140.579C294.74 140.497 295.596 141.065 295.697 141.022C296.466 140.83 293.382 139.508 294.032 138.499C294.056 138.478 294.473 138.937 294.573 138.9C294.874 138.798 294.848 138.447 295.172 138.399C295.942 138.292 297.042 139.442 297.008 138.313C297.014 138.167 295.808 136.694 296.59 136.328C296.899 136.165 298.136 135.581 298.509 135.599C298.882 135.598 298.847 136.245 298.88 136.264C299.97 136.747 299.742 137.173 300.441 138.199C301.101 139.239 300.303 136.552 300.396 136.206C300.493 135.858 301.238 136.367 301.421 136.565C301.608 136.761 301.509 137.171 301.658 137.273C302.633 137.945 301.762 135.836 301.962 135.345C302.456 134.187 303.302 136.159 303.91 136.271C304.076 136.301 303.876 135.853 304.01 135.788C304.534 135.535 304.976 136.125 305.483 135.432C305.573 135.318 305.796 134.006 306.271 134.84C306.341 134.959 306.332 135.493 306.574 135.557C306.777 135.61 307.057 135.621 307.302 135.568C307.534 135.515 307.751 135.433 307.903 135.312C308.157 135.112 307.605 134.374 308.046 134.534C308.24 134.607 308.061 135.166 308.408 135.266C308.747 135.365 309.509 135.183 309.803 135.117C310.093 135.049 309.825 134.438 309.841 134.39C309.943 134.117 310.5 133.72 310.553 133.716ZM339.652 232.143C340.413 231.977 340.193 231.367 339.539 231.832C339.515 231.854 339.615 232.137 339.652 232.143ZM338.4 192.795C339.307 191.898 341.975 193.057 340.839 193.946C340.634 194.105 340.494 192.958 340.095 193.046C339.365 193.209 340.473 194.63 339.361 194.494C339.16 194.465 338.343 192.843 338.399 192.79C338.399 192.791 338.399 192.793 338.4 192.795ZM343.228 185.242C342.751 185.145 342.938 185.839 343.534 185.965C344.018 186.061 343.828 185.353 343.228 185.242ZM341.487 182.261C341.753 182.297 342.789 182.375 342.173 181.928C342.104 181.88 341.779 181.754 341.637 181.683L341.487 182.261ZM344.354 181.645C345.216 181.149 341.827 180.959 342.486 181.479C342.523 181.509 344.304 181.672 344.354 181.645ZM343.294 177.096C344.249 176.454 342.661 176.457 341.925 176.922C341.185 177.368 343.002 177.28 343.294 177.096ZM337.844 152.16C338.68 152.118 338.943 152.442 338.204 153.111C338.1 152.786 337.958 152.486 337.844 152.16ZM294.596 145.256C295.874 145.418 295.801 143.994 294.551 144.458C294.483 144.484 294.527 145.243 294.596 145.256ZM302.825 143.832C302.891 143.862 302.946 143.889 302.973 143.912C303.246 144.152 303.201 144.297 303.052 144.357C303.013 144.275 302.972 144.194 302.925 144.117C302.917 144.104 302.905 144.093 302.892 144.083C302.889 144.067 302.888 144.052 302.884 144.036L302.825 143.832ZM301.25 143.904C301.085 142.988 301.583 143.797 301.782 144.125C301.623 144.148 301.466 144.17 301.325 144.179C301.283 144.029 301.254 143.919 301.25 143.904ZM300.716 143.564C300.745 143.597 300.913 143.873 301.075 144.148C300.976 144.006 300.884 143.858 300.825 143.778C300.756 143.652 300.722 143.587 300.714 143.567C300.715 143.566 300.716 143.565 300.716 143.564ZM321.972 140.395C321.979 139.665 320.886 141.794 321.417 141.422C321.446 141.397 321.967 140.438 321.972 140.395ZM322.828 137.577C322.359 138.193 322.855 138.504 323.1 137.744C323.108 137.712 322.851 137.553 322.828 137.577ZM304.106 137.424C304.095 137.389 303.873 137.391 303.908 137.59C304.023 138.228 304.295 138.001 304.106 137.424Z" fill="white"/>
</svg>
