<svg width="91" height="91" viewBox="0 0 91 91" fill="none" xmlns="http://www.w3.org/2000/svg">
<g clip-path="url(#clip0_1659_1011)">
<rect width="91" height="91" rx="19.5" fill="#161616"/>
<path d="M42.7715 34.6135C43.172 33.0443 42.9767 31.0953 42.1014 29.2294C40.5019 25.8194 37.2368 23.9785 34.8085 25.1175C32.3802 26.2566 31.7083 29.9441 33.3078 33.3541C34.5395 35.98 36.7589 37.6752 38.8233 37.796C38.8353 37.7967 38.8473 37.7973 38.8594 37.7978C38.9804 37.8038 39.1008 37.8044 39.2205 37.7994L49.3522 37.7994C57.8034 37.7994 64.6551 44.6796 64.6551 53.1659C64.6551 61.6521 57.8034 68.5323 49.3504 68.5323L21.2001 68.5323L21.2001 54.8737L45.6201 54.8737C45.2282 56.4384 45.4256 58.3762 46.296 60.2319C47.8956 63.6419 51.1608 65.4829 53.5892 64.3438C56.0174 63.2047 56.6891 59.5171 55.0897 56.1072C53.7533 53.2582 51.2544 51.5046 49.0521 51.669L38.8233 51.5842C30.4695 51.5145 23.7321 44.6946 23.7321 36.3043C23.7321 27.882 30.5202 21.047 38.9077 21.0244L68.7324 21L68.7324 34.6135L42.7715 34.6135Z" fill="white"/>
</g>
<rect x="1.125" y="1.125" width="88.75" height="88.75" rx="18.375" stroke="#AA3733" stroke-width="2.25"/>
<defs>
<clipPath id="clip0_1659_1011">
<rect width="91" height="91" rx="19.5" fill="white"/>
</clipPath>
</defs>
</svg>
