<svg width="60" height="60" viewBox="0 0 60 60" fill="none" xmlns="http://www.w3.org/2000/svg">
<g clip-path="url(#clip0_279_503)">
<rect width="59.0402" height="59.0402" rx="12.6515" fill="#161616"/>
<path d="M27.7497 22.457C28.0096 21.4389 27.8829 20.1744 27.315 18.9638C26.2773 16.7514 24.1589 15.5571 22.5834 16.2961C21.0079 17.0351 20.572 19.4276 21.6098 21.6399C22.4089 23.3436 23.8488 24.4434 25.1882 24.5218C25.196 24.5223 25.2038 24.5226 25.2116 24.523C25.2901 24.5268 25.3682 24.5272 25.4459 24.524L32.0193 24.524C37.5024 24.524 41.9477 28.9878 41.9477 34.4937C41.9477 39.9995 37.5024 44.4633 32.0181 44.4633L13.7544 44.4633L13.7544 35.6017L29.5979 35.6017C29.3437 36.6168 29.4717 37.8741 30.0364 39.0781C31.0742 41.2905 33.1927 42.4849 34.7682 41.7458C36.3436 41.0068 36.7794 38.6143 35.7417 36.402C34.8747 34.5536 33.2534 33.4159 31.8245 33.5225L25.1882 33.4675C19.7683 33.4223 15.3971 28.9976 15.3971 23.554C15.3971 18.0897 19.8012 13.6552 25.2429 13.6405L44.593 13.6247L44.593 22.457L27.7497 22.457Z" fill="white"/>
</g>
<rect x="0.729893" y="0.729893" width="57.5804" height="57.5804" rx="11.9216" stroke="#AA3733" stroke-width="1.45979"/>
<defs>
<clipPath id="clip0_279_503">
<rect width="59.0402" height="59.0402" rx="12.6515" fill="white"/>
</clipPath>
</defs>
</svg>
