<svg width="236" height="60" viewBox="0 0 236 60" fill="none" xmlns="http://www.w3.org/2000/svg">
<g clip-path="url(#clip0_107_213)">
<rect width="59.0402" height="59.0402" rx="12.6515" fill="#161616"/>
<path d="M27.7497 22.457C28.0096 21.4389 27.8829 20.1744 27.315 18.9638C26.2773 16.7514 24.1589 15.5571 22.5834 16.2961C21.0079 17.0351 20.572 19.4276 21.6098 21.6399C22.4089 23.3436 23.8488 24.4434 25.1882 24.5218C25.196 24.5223 25.2038 24.5226 25.2116 24.523C25.2901 24.5268 25.3682 24.5272 25.4459 24.524L32.0193 24.524C37.5024 24.524 41.9477 28.9878 41.9477 34.4937C41.9477 39.9995 37.5024 44.4633 32.0181 44.4633L13.7544 44.4633L13.7544 35.6017L29.5979 35.6017C29.3437 36.6168 29.4717 37.8741 30.0364 39.0781C31.0742 41.2905 33.1927 42.4849 34.7682 41.7458C36.3436 41.0068 36.7794 38.6143 35.7417 36.402C34.8747 34.5536 33.2534 33.4159 31.8245 33.5225L25.1882 33.4675C19.7683 33.4223 15.3971 28.9976 15.3971 23.554C15.3971 18.0897 19.8012 13.6552 25.2429 13.6405L44.593 13.6247L44.593 22.457L27.7497 22.457Z" fill="white"/>
</g>
<rect x="0.729893" y="0.729893" width="57.5804" height="57.5804" rx="11.9216" stroke="#AA3733" stroke-width="1.45979"/>
<path d="M221.188 38.3334V19H224.312V25.2492C224.312 25.9187 224.256 27.5089 224.228 28.2622H224.256C224.982 25.7513 226.767 24.3285 230.003 24.3285C233.491 24.3285 235.639 26.3093 235.639 29.7129V38.3334H232.514V30.4103C232.514 28.2343 231.287 27.0068 228.804 27.0068C226.042 27.0068 224.312 28.7085 224.312 31.8052V38.3334H221.188Z" fill="white"/>
<path d="M215.99 38.5009C212.224 38.5009 210.745 36.4643 210.745 33.4234V27.0906H208.569V24.5518H210.326C210.856 24.5518 211.052 24.2729 211.135 23.4917L211.275 21.4272H213.869V24.5518H218.612V27.0906H213.869V33.2561C213.869 35.0415 214.539 35.9343 216.436 35.9343C217.217 35.9343 218.11 35.7948 218.501 35.6832V38.1661C218.082 38.3056 217.134 38.5009 215.99 38.5009Z" fill="white"/>
<path d="M192.443 38.3335V24.5518H195.567L195.456 28.2344H195.484C196.237 25.7514 198.022 24.3286 201.231 24.3286C204.718 24.3286 206.866 26.3094 206.866 29.713V38.3335H203.742V30.4104C203.742 28.2344 202.514 27.0068 200.031 27.0068C197.297 27.0068 195.567 28.6528 195.567 31.6658V38.3335H192.443Z" fill="white"/>
<path d="M179.439 44.1641C178.379 44.1641 177.542 43.941 177.152 43.8015V41.3464C177.542 41.458 178.184 41.6254 178.882 41.6254C180.332 41.6254 181.002 40.9001 182.034 38.3334H181.281L175.311 24.5518H178.909L183.289 35.1809H183.345L187.223 24.5518H190.292L185.047 38.6124C183.513 42.7413 182.173 44.1641 179.439 44.1641Z" fill="white"/>
<path d="M166.161 38.6127C160.079 38.6127 158.489 35.4044 158.489 32.0566H161.502C161.502 34.4001 162.618 36.0182 166.133 36.0182C169.871 36.0182 170.82 34.6233 170.82 33.1168C170.82 32.1124 170.401 31.5266 169.537 31.2197C168.616 30.857 166.635 30.6059 165.045 30.3827C163.204 30.1317 161.251 29.7132 160.246 29.0715C159.131 28.3741 158.433 27.1187 158.433 25.389C158.433 22.0412 161.307 19.6978 166.105 19.6978C171.545 19.6978 173.526 22.097 173.526 26.2817H170.513C170.513 23.5756 169.034 22.2923 166.161 22.2923C163.399 22.2923 161.753 23.4361 161.753 25.11C161.753 26.1422 162.116 26.756 162.841 27.0908C163.65 27.4813 165.715 27.8161 167.305 28.0393C169.23 28.3462 171.015 28.6531 172.159 29.2668C173.414 29.9085 174.14 31.1918 174.14 32.8936C174.14 35.8508 172.41 38.6127 166.161 38.6127Z" fill="white"/>
<path d="M156.106 30.9405V32.0564H145.783C145.951 34.7067 147.429 36.1295 149.773 36.1295C151.781 36.1295 153.148 35.2368 153.288 33.6187H156.106C155.994 36.6875 153.483 38.5567 149.717 38.5567C145.365 38.5567 142.631 35.8784 142.631 31.5542C142.631 27.0905 145.365 24.3286 149.717 24.3286C153.623 24.3286 156.106 26.6442 156.106 30.9405ZM153.288 30.1593V29.964C153.288 27.8996 152.005 26.7558 149.745 26.7558C147.597 26.7558 146.23 27.8717 145.867 30.1593H153.288Z" fill="white"/>
<path d="M127.792 38.3335V24.5518H130.917L130.805 28.5133H130.833C131.475 26.0304 132.898 24.3286 135.743 24.3286C138.729 24.3286 140.375 26.2815 140.375 29.713C140.375 30.5778 140.291 31.6937 140.235 32.2796H137.389C137.445 31.7495 137.501 31.0521 137.501 30.4104C137.501 28.0949 136.608 27.0068 134.767 27.0068C132.396 27.0068 130.917 29.0155 130.917 32.3075V38.3335H127.792Z" fill="white"/>
<path d="M117.898 38.5567C113.518 38.5567 110.7 35.8505 110.7 31.4705C110.7 27.0626 113.518 24.3286 117.898 24.3286C122.306 24.3286 125.124 27.0626 125.124 31.4705C125.124 35.8505 122.306 38.5567 117.898 38.5567ZM117.898 35.99C120.437 35.99 121.999 34.2603 121.999 31.4705C121.999 28.6528 120.437 26.8952 117.898 26.8952C115.359 26.8952 113.825 28.6528 113.825 31.4705C113.825 34.2603 115.359 35.99 117.898 35.99Z" fill="white"/>
<path d="M101.786 38.5567C97.7408 38.5567 95.0347 35.8505 95.0347 31.4426C95.0347 27.0347 97.7966 24.3286 101.953 24.3286C105.803 24.3286 108.314 26.5605 108.314 30.2151H105.496C105.469 28.1507 104.129 26.8952 102.037 26.8952C99.6379 26.8952 98.1593 28.597 98.1593 31.4426C98.1593 34.2603 99.61 35.99 101.926 35.99C104.129 35.99 105.496 34.7625 105.524 32.726H108.342C108.342 36.4085 105.72 38.5567 101.786 38.5567Z" fill="white"/>
<path d="M84.7278 38.6127C78.646 38.6127 77.0558 35.4044 77.0558 32.0566H80.0688C80.0688 34.4001 81.1847 36.0182 84.6999 36.0182C88.4382 36.0182 89.3868 34.6233 89.3868 33.1168C89.3868 32.1124 88.9683 31.5266 88.1035 31.2197C87.1828 30.857 85.202 30.6059 83.6119 30.3827C81.7706 30.1317 79.8177 29.7132 78.8134 29.0715C77.6975 28.3741 77 27.1187 77 25.389C77 22.0412 79.8735 19.6978 84.672 19.6978C90.1121 19.6978 92.0929 22.097 92.0929 26.2817H89.0799C89.0799 23.5756 87.6013 22.2923 84.7278 22.2923C81.9659 22.2923 80.3199 23.4361 80.3199 25.11C80.3199 26.1422 80.6826 26.756 81.4079 27.0908C82.2169 27.4813 84.2814 27.8161 85.8716 28.0393C87.7966 28.3462 89.5821 28.6531 90.7259 29.2668C91.9813 29.9085 92.7066 31.1918 92.7066 32.8936C92.7066 35.8508 90.977 38.6127 84.7278 38.6127Z" fill="white"/>
<defs>
<clipPath id="clip0_107_213">
<rect width="59.0402" height="59.0402" rx="12.6515" fill="white"/>
</clipPath>
</defs>
</svg>
