<svg width="70" height="70" viewBox="0 0 70 70" fill="none" xmlns="http://www.w3.org/2000/svg">
<path d="M26.3524 52.0078C26.7072 51.8661 27.1114 51.8243 27.5185 51.8955C27.5846 51.9075 27.5959 52.2116 27.6435 52.2227C27.9785 52.2992 28.2464 51.9996 28.5946 52.1924C28.8261 52.3233 28.8778 52.8394 29.0956 53.3067C29.1266 53.3722 29.244 53.3565 29.3183 53.6406C29.4172 54.0192 29.5011 54.4214 29.5888 54.8291C29.5878 54.8218 29.5877 54.814 29.5868 54.8067C29.9562 54.7746 30.3388 54.9206 30.7069 54.8604C30.7526 54.8523 30.6767 54.5413 30.7255 54.5244C30.933 54.4553 31.1353 54.6664 31.3515 54.5635C31.5171 54.4828 31.6943 54.1388 31.8778 54.0488C32.0112 54.7179 32.2705 54.4852 32.4716 54.5479C32.5405 54.5695 32.5346 54.7492 32.5819 54.8086C32.7611 55.028 32.687 54.4335 32.7401 54.3399C32.9761 53.946 32.9522 55.2925 33.1972 55.2715C33.2079 55.2696 33.4167 54.5673 33.4462 54.5215C33.6165 54.2413 33.4534 54.7723 33.5409 54.832C33.7015 54.9419 33.7962 55.1217 34.0155 54.9346C34.0787 54.8789 34.2748 54.4524 34.3446 54.8115C34.3532 54.8592 34.3133 55.0921 34.3231 55.1074C34.5001 55.3662 34.6167 54.631 34.789 54.4033C34.9621 54.1767 35.0717 54.721 35.079 54.874C35.1052 55.2706 34.969 55.0195 34.956 55.0557C34.8086 55.4838 34.9589 55.4338 35.0526 55.4922C34.919 56.2105 35.0612 56.1962 35.1513 55.5498C35.1604 55.4795 35.0662 55.5284 35.0526 55.4922C35.2871 54.8083 35.4907 54.7583 35.5067 55.4531C35.5118 55.7788 35.3445 56.1123 35.6151 56.0469C35.7387 56.0187 35.8344 55.5223 35.9735 55.4199C36.3002 55.1896 36.4552 55.7371 36.7089 55.7568C36.8031 55.7645 36.8204 55.4756 36.8895 55.4727C37.0775 55.4663 37.1343 55.7141 37.3329 55.6875C37.3514 55.685 37.4347 55.4064 37.4862 55.4258C37.8022 55.5407 38.0194 55.7804 38.2772 55.9863C38.9289 56.4856 39.5577 57.446 39.3065 58.2275C39.2658 58.38 39.2192 58.5279 39.1728 58.6699C39.0679 59.0195 38.9492 59.5878 38.7606 59.8076C38.4324 60.2128 37.784 60.301 37.6308 60.5967C37.5244 60.7932 37.7586 60.9658 37.8241 61.1748C37.9458 61.5847 37.256 61.2797 37.161 61.2197C37.1582 61.218 37.2469 61.0521 37.08 61C36.8401 60.7996 37.1617 61.2174 37.161 61.2197C37.0978 61.1855 36.7945 61.3466 36.7743 61.4297C36.7638 61.4759 36.9465 61.6793 36.9384 61.7002C36.7266 62.1723 36.3854 62.4907 35.9462 62.6182C35.9368 62.6176 35.7823 62.3538 35.7626 62.3555C35.4817 62.3722 35.5431 62.7721 35.4765 63.0693C35.4114 63.3647 35.2287 63.3822 34.869 62.9824C34.7688 63.1144 34.4662 63.0148 34.2948 62.9463C34.1232 62.8789 34.3804 63.4079 34.3788 63.4287C34.3163 63.6661 34.2095 63.7385 34.0731 63.7637C33.9423 63.7826 33.7797 63.747 33.6181 63.7979C33.471 63.8428 33.2355 64.0577 33.1161 64.1904C33.0207 64.297 32.8883 64.208 32.8183 64.3428C32.8096 64.3621 32.9417 64.5893 32.9423 64.6016C32.9612 64.9466 32.7311 64.337 32.6542 64.2461C32.3756 63.9151 32.2189 63.7437 32.1513 63.9981C32.1365 64.0586 32.4419 64.9429 32.4003 65.0264C32.3441 65.1312 32.2293 64.8156 32.1737 64.9326C32.1688 64.9424 32.2612 65.1272 32.2011 65.1465C31.922 65.2392 31.5838 65.2693 31.3173 65.419C31.2807 65.4389 31.469 65.7107 31.4179 65.7442C31.1781 65.9009 30.8883 66.023 30.5702 66C30.4915 65.9934 30.4352 65.7678 30.3935 65.7119C30.1403 65.3751 30.2692 65.9728 30.2538 65.9922C29.9005 66.4653 29.3219 66.1276 28.9247 66.5684C28.9056 66.5941 28.9287 67.2735 28.6317 66.8008C28.6111 66.7696 28.3126 66.2824 28.369 66.6729C28.3734 66.6986 28.5358 66.9444 28.4228 66.957C28.3086 66.9695 28.2069 67.2139 27.9501 66.9688C27.868 66.8914 27.575 66.4021 27.5849 66.8721C27.5899 66.9048 27.6928 67.9369 27.3905 67.3027C27.3406 67.1981 27.1255 66.4922 27.0722 66.9072C27.062 66.9877 27.1725 67.1253 27.1161 67.251C27.0292 67.4449 26.7912 67.3105 26.704 67.6768C26.69 67.7413 26.6879 68.2619 26.4765 67.9238C26.4443 67.8701 26.4144 67.625 26.3505 67.6123C26.304 67.6035 26.2587 67.6015 26.2147 67.6035C26.011 67.6044 25.8287 67.7469 25.5995 67.6514C25.5037 67.6115 25.4554 67.214 25.3485 67.1289C25.2417 67.0439 25.0478 66.9827 24.9989 67.1797C24.9501 67.3772 25.1819 67.975 25.0585 68.0547C24.5132 68.3979 23.8478 68.1474 23.2421 68.1924C23.1518 68.199 23.2623 68.4108 23.1308 68.4365C22.6508 68.5341 21.8053 68.8597 21.3134 68.419C20.9262 68.0667 21.3377 67.7331 21.0595 67.6006C20.9282 67.537 20.849 68.2839 20.8173 68.3096C20.5219 68.5677 20.2817 68.2531 20.0009 68.3633C19.9414 68.3864 20.0105 68.6842 19.9589 68.7002C19.7814 68.7574 19.593 68.6266 19.4179 68.6504C19.3397 68.6618 19.3522 68.8904 19.2792 68.8721C19.105 68.8305 18.944 68.7298 18.7831 68.5078C18.7689 68.4876 18.8868 68.2085 18.7577 68.1914C18.5455 68.1644 18.3043 67.9347 18.0282 68.1211C17.9468 68.1772 17.8719 68.6954 17.7489 68.3145C17.7225 68.2341 17.8639 67.6222 17.5849 68.126C17.5438 68.2119 17.0406 68.8633 16.9462 68.3545C16.9231 68.2215 16.933 67.6947 16.8124 67.7442C16.7938 67.7528 16.7775 68.0393 16.6776 68.0391C16.3263 68.0314 15.9826 67.8786 15.5468 67.7539C15.4297 67.7198 15.4563 68.0623 15.2792 67.9981C14.7823 67.8212 14.1613 67.2722 13.8026 66.6611C13.6721 66.4378 13.9724 66.4331 13.9813 66.4014C14.1595 65.9327 13.6045 66.1138 13.5185 66.0352C13.3805 65.9106 13.2861 65.7664 13.2216 65.6172C12.9936 65.0859 13.0455 64.6166 12.9638 64.2842C12.9341 64.1544 12.6695 64.2674 12.6425 64.2432C12.3872 63.9865 12.89 64.155 12.9374 64.001C13.0793 63.5938 13.0811 63.3229 13.0653 63.0811C13.0596 62.9948 12.7351 63.0627 12.7333 62.9844C12.7318 62.9329 12.7322 62.8821 12.7333 62.832C12.7442 62.4098 12.8513 61.9704 13.0888 61.5869C13.1397 61.5066 13.3669 61.6108 13.4257 61.6045C13.8323 61.5657 13.3553 61.2729 13.3163 61.2149C13.1386 60.9659 13.3686 60.9421 13.3778 60.7617C13.4159 59.8642 14.0229 58.8334 14.5976 58.1416C15.3483 57.2248 16.1609 56.739 16.9989 56.0654C17.0534 56.023 16.8096 55.7961 16.8554 55.7549C16.9906 55.6403 17.1302 55.5408 17.2782 55.4483C17.6854 55.1921 18.1215 55.0193 18.4999 54.7393C18.54 54.7104 18.3351 54.469 18.3954 54.4131C18.5191 54.2962 18.7103 54.219 18.9003 54.2354C18.9925 54.2429 19.0138 54.5263 19.1034 54.5303C19.3101 54.5397 19.4965 54.4752 19.6435 54.3525C19.7048 54.2988 19.4648 54.0634 19.5575 54.0166C20.1845 53.6933 20.803 53.3773 21.5907 53.5108C21.6454 53.5212 21.9121 54.1021 21.9608 53.9541C21.9045 53.7851 21.8301 53.5891 21.7655 53.4102C22.6541 52.9626 23.64 52.8641 24.5692 52.6123C24.6082 52.6012 24.4408 52.298 24.5165 52.2754C24.9547 52.1455 25.3568 51.9283 25.8944 52.127C25.9478 52.1462 26.0883 52.7277 26.1923 52.6045C26.212 52.5811 26.383 52.4508 26.3993 52.3125C26.401 52.2917 26.2917 52.0338 26.3524 52.0078ZM32.3056 56.8379C32.1606 56.4931 32.2969 55.0504 31.9452 55.4004C31.7986 55.542 31.7156 57.3733 31.4286 56.4424C30.9825 56.7049 30.5013 56.267 30.077 56.6611C30.0581 56.6834 30.0606 57.1928 30.0136 57.1924C29.9883 57.1917 29.9641 57.1617 29.9394 57.124C29.921 57.1186 29.9052 57.1279 29.8964 57.1777C29.8695 57.3351 29.9771 57.6592 29.8642 57.7285C29.6019 57.8865 29.209 57.8851 28.8935 57.8291C28.7951 57.8118 28.7926 57.6207 28.7226 57.6006C28.5848 57.5621 28.4965 57.6795 28.3573 57.6279C28.3109 57.61 28.2832 57.314 28.2362 57.3008C28.2295 57.2991 28.2224 57.2983 28.2157 57.2969C28.2341 57.3686 28.2603 57.4492 28.2558 57.4668C28.2247 57.594 28.1297 57.4227 28.1034 57.5586C28.0969 57.5915 28.1452 57.8104 28.1425 57.8496C28.1205 58.1908 27.8595 57.7356 27.8153 57.6543C27.6461 57.3509 27.6597 57.6439 27.5565 57.5322C27.5145 57.4861 27.5048 57.4277 27.4989 57.3711C27.2662 57.3754 27.0363 57.389 26.8085 57.4082C26.8167 57.439 26.8237 57.4607 26.8212 57.4629C26.6801 57.5659 26.4679 57.2819 26.4862 57.8818C26.4381 57.6909 26.4003 57.5517 26.372 57.4531C26.3398 57.4571 26.3074 57.4597 26.2753 57.4639C26.2718 57.6566 26.261 57.8935 26.1435 57.7813C26.1344 57.7724 26.1049 57.6458 26.0761 57.4922C25.9346 57.5126 25.7937 57.5342 25.6532 57.5586C25.888 57.892 26.0291 58.4964 25.7362 58.4443C25.6634 58.4312 25.8194 58.0339 25.7138 57.9395C25.5208 57.7677 25.5412 58.5448 25.3104 58.165C25.2855 58.1234 25.3043 57.8403 25.327 57.6182C24.9073 57.699 24.4901 57.7932 24.0712 57.8926C23.6966 57.9813 23.1627 57.8993 22.8397 58.1563C22.8021 58.1865 22.9244 58.4148 22.9247 58.4385C22.9216 58.7912 22.7662 58.2926 22.6571 58.2627C22.2243 58.146 21.8469 58.2844 21.581 58.5176C21.4684 58.6176 21.8152 59.0203 21.5644 58.8213C21.547 58.808 21.4631 58.5457 21.4149 58.5352C21.3055 58.5141 21.1727 58.6313 21.1015 58.6426C20.9616 58.6632 20.9424 58.6757 20.829 58.7295C20.6716 58.8017 20.4259 58.7773 20.2938 58.9199C20.266 58.9512 20.4451 59.1724 20.414 59.2442C20.3823 59.3157 20.2313 59.3735 20.1503 59.3438C20.07 59.3133 19.9809 59.1107 19.9472 59.0713C19.6624 58.7421 19.7948 59.3511 19.7841 59.375C19.766 59.4071 19.7465 59.4362 19.7265 59.4629C19.5399 59.7604 19.1528 59.6946 18.9218 59.918C18.7382 60.0979 18.6497 60.3764 18.5019 60.5625C18.3244 60.7838 18.0659 60.9329 17.9638 61.2188C17.9553 61.2486 18.2687 61.3513 18.2577 61.3858C18.1365 61.7529 17.9865 62.107 17.6796 62.4785C17.6484 62.5159 17.3762 62.4012 17.328 62.4365C17.0563 62.6319 16.4829 63.018 17.4306 63.3027C17.4952 63.3228 17.567 63.3419 17.6464 63.3604C17.5781 63.5488 17.5143 63.7449 17.2636 63.8447C17.1024 63.9109 16.7834 63.8729 16.9237 63.9414C16.9551 63.9518 17.2281 63.909 17.2538 63.917C17.3016 63.9299 17.3052 63.8939 17.2909 63.8447C17.3007 63.8469 17.3132 63.8488 17.3769 63.8047C17.3925 63.7938 17.4745 63.7225 17.5409 63.666C17.4864 63.7253 17.4383 63.7824 17.4364 63.8008C17.2975 64.104 17.4967 64.0736 17.6395 64.1318C17.676 64.1465 17.7466 63.8198 17.7811 63.8203C17.9579 63.8319 18.1609 63.9066 18.3769 64.0859C18.4252 64.1265 18.3381 64.3984 18.3593 64.4346C18.4668 64.5811 18.5499 64.0523 18.6503 64.1777C18.6721 64.2034 18.6369 64.4419 18.6386 64.4707C18.6769 64.8944 18.7872 64.3078 18.8046 64.2959C19.0416 64.1329 19.1741 64.7561 19.4179 64.6699C19.4462 64.6587 19.3837 64.3523 19.4618 64.3389C19.9859 64.2538 20.5517 64.3005 21.1259 64.4863C21.215 64.5147 21.1792 64.7501 21.1874 64.7783C21.325 65.2102 21.3172 64.613 21.3417 64.5869C21.5405 64.4015 21.8144 64.8683 21.8661 64.1455C22.8312 64.2582 23.6727 63.6908 24.7313 64.0996C24.7452 64.1068 24.7895 64.3948 24.8163 64.4024C25.1394 64.4958 24.979 64.0648 25.0341 63.4785C25.0431 63.3796 25.1819 63.629 25.2792 63.8154C25.3244 63.9058 25.3612 63.9813 25.369 63.9961C25.4572 64.1613 25.5194 64.5956 25.5429 64.626C25.7422 64.8599 25.3549 63.471 25.5058 63.4277C25.5114 63.4286 25.5623 63.6889 25.5829 63.7119C25.6475 63.7798 25.6614 63.6664 25.7274 63.7422C25.8792 63.9182 26.1249 64.5753 26.1522 64.1397C26.1547 64.0832 25.8796 63.312 26.0321 63.3027C26.0939 63.2998 26.3394 63.2018 26.4286 63.2256C26.5167 63.251 26.5575 63.5154 26.5663 63.5244C26.8781 63.7825 26.855 63.9445 27.1347 64.3916C27.4156 64.8355 26.9584 63.699 26.9491 63.5547C26.9406 63.4123 27.1855 63.6257 27.2577 63.7051C27.3295 63.7846 27.346 63.9586 27.3983 63.999C27.7458 64.2595 27.2682 63.3953 27.2645 63.1875C27.2515 62.6973 27.7145 63.4891 27.8993 63.5098C27.9483 63.5154 27.8371 63.339 27.8642 63.3057C27.9751 63.1791 28.1717 63.404 28.2284 63.0967C28.2385 63.0462 28.1469 62.4899 28.3905 62.8213C28.4256 62.8701 28.4834 63.0912 28.5634 63.1113C28.683 63.1419 28.8643 63.115 28.9286 63.0029C28.9758 62.9198 28.7418 62.6159 28.8778 62.6817C28.9385 62.7112 28.9557 62.943 29.0624 62.9815C29.169 63.02 29.3542 62.9249 29.4228 62.8848C29.4899 62.8439 29.3325 62.6063 29.33 62.5859C29.319 62.4713 29.3963 62.2857 29.4091 62.2783C29.9981 61.9643 30.7666 62.1198 31.286 61.6846C31.3259 61.65 31.163 61.3985 31.1679 61.3906C31.2695 61.202 31.4992 61.9742 31.7294 62.1563C31.4423 61.6224 31.5568 61.6868 31.6376 61.5723C31.6766 61.5163 31.542 61.3209 31.536 61.2969C31.4562 60.938 31.7186 61.3213 31.7753 61.3984C31.983 61.6819 31.8572 61.2873 31.997 61.4756C32.1364 61.6629 32.2074 62.009 32.3124 61.9512C32.2443 61.7422 31.9101 61.2762 31.9491 61.1533C32.0313 60.8997 32.297 60.8171 32.5663 60.7803C32.7871 60.7517 33.0073 60.7528 33.1249 60.7139C33.3836 60.6276 33.4379 60.5507 33.6132 60.542C33.9273 60.5261 33.6316 60.2109 33.6786 59.96C33.7269 59.7072 34.188 60.6373 34.3241 60.8154C34.4607 60.9927 34.3669 60.7825 34.4569 60.8701C34.5476 60.958 34.567 61.1237 34.6552 61.124C34.7457 61.123 34.7132 60.6764 34.6083 60.4668C34.3893 60.0214 34.0381 59.6326 34.2909 59.6856C34.3074 59.693 34.4256 59.9359 34.4745 59.9365C34.8656 59.9312 35.1565 59.7416 35.5331 59.6797C35.5854 59.6717 35.7413 59.9342 35.7743 59.9317C36.1236 59.898 35.7211 59.5658 35.4628 59.041C35.9294 59.6342 36.2981 59.9305 36.4745 59.7744C36.5802 59.6791 36.3332 59.4588 36.2313 59.2334C36.1999 59.1663 36.4242 59.2605 36.3251 59.1397C35.9956 58.7501 35.5348 58.415 35.8231 58.4346C35.8371 58.4359 36.0249 58.6402 36.0575 58.6299C36.268 58.5559 35.8753 58.1972 35.9149 58.0322C35.9273 57.98 36.0011 57.9495 36.0878 57.9209C35.9245 57.8204 35.7976 57.6623 35.5194 57.8721C35.503 57.8864 35.3083 58.4371 35.371 58.0068C35.3745 57.9769 35.5457 57.7497 35.4237 57.6895C35.3049 57.6295 35.1337 57.2538 34.8817 57.4756C34.8201 57.5285 34.6092 57.9713 34.5976 57.5879C34.5958 57.5357 34.6433 57.3722 34.6444 57.2764C34.6447 56.9708 34.5001 57.5494 34.5253 57.0391C34.5514 56.529 34.4495 56.125 34.1903 56.4404C34.1818 56.4495 34.0678 56.9093 34.0067 56.8945C33.9097 56.8691 33.7765 56.7544 33.6708 56.7471C33.6207 56.7451 33.6243 57.0389 33.6151 57.044C33.2703 57.1764 33.0563 56.9009 32.6933 56.7783C32.6236 56.7558 32.4355 57.1528 32.3056 56.8379ZM24.581 64.4268C24.5695 64.3994 24.3768 64.4141 24.3759 64.4414C24.3924 64.9943 24.79 64.9654 24.581 64.4268ZM28.0995 63.9805C28.0922 63.9667 28.0308 63.9769 28.0653 64.0576C28.1777 64.3185 28.2258 64.2121 28.0995 63.9805ZM17.6239 63.5977C17.6119 63.6086 17.5782 63.6343 17.5409 63.666C17.6513 63.5461 17.7881 63.4192 17.6239 63.5977ZM33.4911 62.6123C33.3597 62.5381 33.7328 63.2983 33.747 63.1192C33.7478 63.1126 33.7481 63.1047 33.7479 63.0957C33.7462 63.0791 33.5357 62.6466 33.5243 62.6367C33.511 62.6248 33.5 62.6169 33.4911 62.6123ZM32.9032 61.542C32.895 61.5308 32.8156 61.5561 32.8192 61.5693C32.9288 61.8863 33.0907 61.8346 32.9032 61.542ZM36.3134 57.8438C36.3553 57.8267 36.3904 57.8091 36.4101 57.7852C36.4402 57.7954 36.4694 57.8038 36.497 57.8125C36.449 57.8705 36.3949 57.9393 36.37 57.9668L36.704 58.6943C36.7013 58.6444 36.7244 58.5532 36.7763 58.415C36.7954 58.4339 36.8156 58.451 36.8358 58.4678L36.7978 58.3858C36.7907 58.395 36.7834 58.4044 36.7763 58.4141C36.6792 58.3316 36.5455 58.2987 36.4726 58.1729C36.45 58.1345 36.5509 57.9649 36.579 57.9092L36.5399 57.8252C36.5593 57.8311 36.5776 57.8377 36.5956 57.8428C36.6277 57.6882 36.5821 57.7146 36.5204 57.7832L36.4843 57.7031C36.4696 57.7303 36.4562 57.7611 36.4325 57.79C36.3491 57.7488 36.2859 57.7174 36.246 57.6963L36.3134 57.8438ZM36.5399 57.8252C36.526 57.821 36.5116 57.8171 36.497 57.8125C36.5052 57.8025 36.5124 57.7921 36.5204 57.7832L36.5399 57.8252ZM30.5058 55.1231C30.3639 54.7797 30.3657 55.5749 30.4257 55.709C30.6164 56.1512 30.6443 55.4673 30.5058 55.1231ZM28.7597 53.5508C28.7244 53.217 28.5523 53.2318 28.6708 53.5586C28.6771 53.571 28.7591 53.5642 28.7597 53.5508Z" fill="white"/>
<path d="M30.2494 4.31445C30.3914 4.07345 30.5612 3.98233 30.5453 4.30078C30.5447 4.31729 30.5419 4.33475 30.5404 4.35351C30.6024 4.3638 30.6635 4.37401 30.7221 4.38476C30.8977 4.4218 31.0563 4.46032 31.1195 4.5664C31.1312 4.58906 31.1363 4.61566 31.1371 4.64746C31.247 4.72883 31.3561 4.81296 31.473 4.88379C31.4308 4.91849 31.41 4.95259 31.4223 4.98632C31.4239 4.99162 31.5503 4.99058 31.7016 4.99023C31.7761 5.01236 31.8561 5.02422 31.9447 5.02246C31.9477 5.01226 31.9498 5.00206 31.9525 4.99218C31.9679 4.99212 31.9829 4.99223 31.9975 4.99218C32.0895 4.90107 32.3279 4.62951 32.3686 4.66113C32.438 4.71671 32.3527 4.944 32.3949 4.99023C32.5699 5.18717 32.8805 5.15495 33.0619 5.33593C33.1302 5.40461 32.9503 5.57623 33.0268 5.65625C33.0998 5.73404 33.3719 5.53968 33.3793 5.75976C33.3849 5.92848 32.9923 6.47306 33.0092 6.60742C33.4971 6.17284 33.5529 6.24816 33.8002 6.28906C33.8483 6.29786 34.0067 6.13254 34.0404 6.1289C34.1807 6.12152 34.0656 6.28553 34.2113 6.27929C34.2468 6.27833 34.4377 6.16289 34.4789 6.15722C34.5844 6.14171 34.6336 6.17824 34.6439 6.23339C34.6714 6.27352 34.7065 6.40532 34.7201 6.45214C34.7088 6.61579 34.4441 6.75942 34.3832 6.7832C34.0521 6.92173 34.335 6.98813 34.1928 7.0791C34.0502 7.1551 33.907 6.99803 33.8139 7.08691C33.6221 7.25899 33.585 7.50927 33.5023 7.71191C33.4723 7.79175 33.7718 7.83685 33.7738 7.85058C33.7776 7.93444 33.7147 7.9951 33.6801 8.05859C33.6319 8.14794 33.6392 8.23575 33.9291 8.43164C32.4733 7.91896 34.0299 8.60141 33.5863 8.72949C33.5495 8.73853 32.9573 8.32198 32.8939 8.22265C32.8288 8.12975 33.062 8.17758 32.9447 8.0332C32.931 8.01372 32.7557 7.90463 32.5902 7.80273C32.574 7.97212 32.4854 8.16907 32.5668 8.29296C32.6174 8.3701 32.8571 8.21075 32.9008 8.26074C33.0172 8.39239 32.8585 8.58643 33.0053 8.71093C33.0189 8.72214 33.2862 8.60644 33.3041 8.65332C33.3618 8.80089 33.3768 8.95163 33.3871 9.10449C33.6394 9.27113 33.7922 9.49491 33.5473 9.63574C33.4956 9.66193 33.4619 9.49446 33.4057 9.3623C33.4138 9.49422 33.427 9.62802 33.4643 9.76367C33.5157 9.94992 33.7642 10.239 33.7885 10.4424C33.8323 10.794 33.5431 11.321 33.7191 11.5859C33.8335 11.7608 34.1011 11.6448 34.3129 11.6768C34.724 11.7415 34.137 12.1997 34.0434 12.2617C34.0404 12.2638 33.9319 12.114 33.8109 12.2393C33.526 12.3659 34.0383 12.2607 34.0434 12.2617C34.0107 12.285 34.0025 12.4029 34.0121 12.5107C34.0208 12.6021 34.0414 12.6873 34.0727 12.7119C34.1106 12.7413 34.3719 12.6579 34.3871 12.6748C34.7349 13.0801 34.9072 13.5665 34.8646 14.0811C34.8571 14.0909 34.5605 14.1288 34.5521 14.1504C34.465 14.4517 34.8611 14.5734 35.1137 14.7734C35.3656 14.9736 35.3142 15.1665 34.81 15.3652C34.8962 15.524 34.6944 15.7891 34.5697 15.9434C34.4445 16.0915 35.0382 16.048 35.0512 16.0586C35.4654 16.391 35.1488 16.6475 35.1332 17.0293C35.1251 17.2141 35.2452 17.5606 35.3285 17.751C35.3955 17.9035 35.2646 18.0021 35.3666 18.1387C35.3803 18.157 35.643 18.1132 35.6537 18.1182C35.9833 18.2503 35.3335 18.2309 35.2201 18.2744C34.812 18.4288 34.595 18.522 34.8109 18.709C34.8602 18.7497 35.8014 18.7972 35.8637 18.8779C35.9428 18.9826 35.6064 18.973 35.6977 19.0811C35.7067 19.0898 35.9102 19.0693 35.9076 19.1396C35.8985 19.4722 35.8128 19.8453 35.8646 20.1826C35.872 20.2282 36.1903 20.1393 36.2055 20.2051C36.2738 20.5237 36.293 20.8661 36.1693 21.1904C36.1371 21.2682 35.9054 21.2431 35.8393 21.2656C35.4407 21.4027 36.0423 21.4912 36.0609 21.5146C36.3996 22.0513 35.9019 22.5317 36.2133 23.0859C36.2347 23.1156 36.8899 23.293 36.3549 23.4541C36.3209 23.4644 35.8215 23.6107 36.1117 23.6768C36.1263 23.6798 36.1428 23.6829 36.1615 23.6855C36.1743 23.6872 36.2534 23.664 36.3256 23.6562C36.3294 23.6558 36.3336 23.6556 36.3373 23.6553C36.4022 23.6498 36.4582 23.6592 36.4496 23.7129C36.4313 23.8289 36.6413 23.9953 36.3402 24.1865C36.2452 24.2456 35.6986 24.4254 36.1576 24.5273C36.1896 24.5337 37.2181 24.6658 36.5316 24.8164C36.4176 24.8411 35.6831 24.8984 36.0766 25.043C36.153 25.0706 36.311 24.9916 36.4223 25.0732C36.5937 25.2002 36.4142 25.3948 36.7582 25.5342C36.819 25.5581 37.3299 25.636 36.9613 25.7754C36.903 25.7971 36.6553 25.7909 36.6332 25.8477C36.5268 26.1165 36.7157 26.3601 36.5717 26.6387C36.521 26.7369 36.1208 26.7289 36.0238 26.8359C35.9269 26.9406 35.843 27.1405 36.0336 27.2227C36.2247 27.3046 36.8462 27.1336 36.9115 27.2783C37.1954 27.9096 36.8886 28.5862 36.8988 29.2422C36.9004 29.34 37.1184 29.2374 37.1371 29.3799C37.2054 29.8973 37.5065 30.78 37.0717 31.2852C36.7229 31.6849 36.3853 31.2597 36.2563 31.5518C36.195 31.6924 36.9403 31.7637 36.9701 31.7939C37.2367 32.0872 36.9339 32.3409 37.0619 32.6143C37.0885 32.6709 37.3805 32.5843 37.3998 32.6328C37.4682 32.7983 37.3532 32.9917 37.3939 33.1533C37.4132 33.2256 37.6391 33.1888 37.6283 33.2578C37.6051 33.4224 37.5238 33.5742 37.3266 33.7529C37.3086 33.7692 37.0173 33.7014 37.018 33.8213C37.0212 34.0162 36.8345 34.279 37.0736 34.4785C37.1456 34.5378 37.6662 34.4882 37.3217 34.666C37.2497 34.7033 36.6215 34.7279 37.1771 34.8389C37.2695 34.8574 38.0249 35.0622 37.5697 35.2451C37.4499 35.2934 36.9499 35.4366 37.0365 35.5078C37.0504 35.5173 37.3255 35.4462 37.3598 35.5088C37.4742 35.731 37.469 35.9778 37.5805 36.207C37.6115 36.2674 37.8903 36.1445 37.9262 36.2363C38.0253 36.4891 37.984 36.8221 37.9193 37.0859C37.8943 37.1823 37.6512 37.1423 37.6244 37.1514C37.2126 37.3038 37.7878 37.3118 37.8266 37.3447C38.0491 37.5513 37.7988 37.7514 37.891 37.9531C37.9168 38.0082 38.1839 37.9402 38.2094 37.9492C38.4589 38.0442 37.961 38.0052 37.9145 38.0859C37.7831 38.3127 37.8287 38.546 37.8852 38.7559C37.9063 38.8329 38.2132 38.713 38.2289 38.7822C38.3255 39.1921 38.3386 39.631 38.2055 40.0537C38.1798 40.1333 37.9328 40.1104 37.8783 40.1318C37.5006 40.2817 38.0476 40.3899 38.102 40.4219C38.349 40.5671 38.1407 40.6544 38.1957 40.7988C38.4696 41.5059 38.4191 42.4205 38.4008 43.1143C38.3787 44.0227 38.2172 44.7372 38.3646 45.5879C38.3739 45.6414 38.6925 45.5539 38.7045 45.5996C38.8442 46.1963 38.778 46.8051 38.933 47.3984C38.9456 47.4465 39.2446 47.3448 39.2748 47.4209C39.3379 47.5776 39.3432 47.7918 39.2621 47.9658C39.2231 48.0511 38.9484 47.9705 38.9145 48.0557C38.8349 48.2536 38.8334 48.4563 38.9027 48.6484C38.9329 48.7292 39.2338 48.5722 39.2484 48.6797C39.3535 49.4004 39.4823 50.1245 39.1508 50.9004C39.1281 50.9545 38.4949 51.065 38.6273 51.1602C38.8052 51.1502 39.0139 51.1281 39.2035 51.1123C39.2686 51.4338 39.3049 51.7836 39.3217 52.1055C39.3616 52.8412 39.3236 53.5795 39.3744 54.3144C39.3798 54.3574 39.7072 54.2483 39.7152 54.333C39.7619 54.8425 39.9051 55.3201 39.6215 55.8701C39.5939 55.9253 38.996 55.9608 39.101 56.1016C39.1198 56.124 39.2228 56.3467 39.3578 56.3926C39.3806 56.3977 39.6511 56.3297 39.6664 56.4014C39.7514 56.8236 39.7334 57.2765 39.6059 57.7178C39.5848 57.7918 39.282 57.7453 39.2641 57.7978C39.1416 58.1627 39.4031 58.5176 39.1664 58.8828C39.0067 59.1271 38.4881 59.091 37.9955 59.2588C37.926 59.2813 37.9263 59.4324 37.6332 59.4639C36.8965 59.5302 36.0846 59.5308 35.3002 59.6123C35.2156 59.6167 35.2211 59.6635 35.1928 59.6309C35.1787 59.6103 35.1579 59.5923 35.1146 59.6006C35.0717 59.6011 35.0055 59.5905 34.9047 59.6436C34.88 59.6958 34.738 59.6181 34.5961 59.5967C34.4986 59.5855 34.2039 59.646 34.0775 59.6162C33.9517 59.5894 34.1966 59.5197 34.0463 59.46C33.8935 59.3999 33.5576 59.4655 33.5033 59.3193C33.38 58.9821 33.431 58.5073 33.5287 58.1387C33.5587 58.0205 33.7493 58.0575 33.7787 57.9795C33.8355 57.8244 33.7306 57.6918 33.8012 57.5342C33.826 57.481 34.1244 57.5145 34.143 57.459C34.2441 57.167 34.1419 56.9017 34.1752 56.6094C34.3274 55.2656 34.3118 53.9661 34.2973 52.6172C34.2965 52.5176 34.2952 52.4162 34.2943 52.3135C34.2888 51.826 34.497 51.2298 34.3314 50.7559C34.3114 50.7001 34.0578 50.7607 34.0355 50.7519C33.6949 50.6133 34.2185 50.6172 34.2758 50.4971C34.5032 50.0357 34.4764 49.536 34.3344 49.124C34.2729 48.9463 33.7819 49.181 34.0492 48.9678C34.0684 48.9532 34.3447 48.9711 34.3686 48.918C34.4219 48.7964 34.352 48.5938 34.3646 48.5039C34.3905 48.3321 34.3847 48.304 34.3715 48.1436C34.3557 47.9214 34.465 47.6576 34.3793 47.4287C34.3587 47.3813 34.0884 47.4747 34.0326 47.4004C33.977 47.3255 33.9787 47.1106 34.0375 47.0352C34.0961 46.9585 34.3177 46.9656 34.3676 46.9482C34.782 46.8029 34.1695 46.6199 34.1518 46.5898C33.8458 46.0429 34.1306 45.5204 34.0756 44.9893C34.0328 44.5833 33.8782 44.1613 33.8539 43.7734C33.8258 43.3076 33.9384 42.9076 33.8666 42.46C33.8582 42.414 33.5371 42.5017 33.5268 42.4453C33.4265 41.839 33.4002 41.2269 33.56 40.5937C33.5763 40.5302 33.8731 40.5798 33.9066 40.5146C34.1059 40.1185 34.6143 39.4667 33.3363 39.373C33.3597 39.1152 33.3797 38.8022 33.6098 38.5498C33.758 38.3877 34.0861 38.4977 33.934 38.332C33.9 38.2946 33.6301 38.3746 33.6 38.3164C33.4737 38.0713 33.535 37.7832 33.3676 37.5449C33.3328 37.4965 33.0875 37.5354 33.0414 37.5254C32.6695 37.4392 33.2429 37.1748 33.2816 37.126C33.5694 36.7552 33.4179 36.5215 33.3939 36.2051C33.3885 36.1319 33.0675 36.2511 33.0492 36.1826C32.965 35.8225 32.9549 35.4409 33.0658 35.0684C33.0913 34.9856 33.3807 35.0302 33.4076 34.9893C33.5215 34.8087 32.9854 34.8251 33.0844 34.6533C33.1053 34.6175 33.3463 34.6123 33.3734 34.6035C33.779 34.4652 33.1849 34.4395 33.1664 34.416C32.9567 34.1184 33.5524 33.8558 33.435 33.5615C33.4203 33.5261 33.1234 33.6388 33.1 33.5381C32.9471 32.8637 32.959 32.1354 33.1361 31.4365C33.1637 31.3281 33.4005 31.3805 33.4281 31.3711C33.8578 31.2198 33.2651 31.2084 33.2348 31.1768C33.0473 30.9233 33.5185 30.624 32.7943 30.5088C32.9257 29.3428 32.4178 28.2458 32.9389 27.0508C32.9448 27.0355 33.2389 27.0323 33.2494 27.0019C33.3788 26.6372 32.9318 26.7489 32.3549 26.5752C32.2108 26.5309 32.8619 26.2955 32.9105 26.2725C33.0859 26.1973 33.5258 26.2141 33.559 26.1914C33.8186 26.0058 32.3848 26.171 32.3637 25.959C32.367 25.9522 32.6327 25.9548 32.6576 25.9346C32.7348 25.8714 32.6246 25.827 32.7104 25.7646C32.9089 25.6204 33.6027 25.5146 33.1781 25.3603C33.1231 25.3414 32.3114 25.4567 32.3314 25.2627C32.3399 25.1837 32.2944 24.8562 32.3383 24.7588C32.382 24.6592 32.6485 24.6988 32.6615 24.6914C32.9841 24.4026 33.1373 24.4855 33.6391 24.3096C34.139 24.1346 32.9209 24.287 32.7797 24.249C32.6589 24.216 32.8415 24.0558 32.9555 23.9785C32.9736 23.9656 32.9902 23.955 33.0033 23.9473C33.0985 23.8914 33.2712 23.9333 33.3236 23.8867C33.6659 23.5802 32.7056 23.8254 32.5033 23.7549C32.0251 23.5879 32.9149 23.3524 32.9857 23.1475C33.0048 23.0931 32.8037 23.1546 32.7797 23.1103C32.6887 22.9341 32.961 22.7993 32.683 22.6221C32.6375 22.5912 32.0768 22.473 32.4662 22.3281C32.5224 22.3075 32.752 22.3287 32.7953 22.2471C32.8604 22.1253 32.8904 21.9176 32.8031 21.7969C32.7387 21.7099 32.3775 21.8497 32.4818 21.7236C32.5286 21.6677 32.7546 21.7416 32.8246 21.6387C32.8945 21.5364 32.8625 21.2958 32.8461 21.2002C32.8297 21.1074 32.5523 21.1845 32.5326 21.1787C32.4195 21.1425 32.2671 20.9789 32.266 20.9639C32.1584 20.1764 32.5663 19.3926 32.3373 18.6367C32.3184 18.5796 32.033 18.6446 32.0209 18.6377C31.8774 18.4463 32.6825 18.5337 32.934 18.3623C32.3326 18.4402 32.4336 18.3409 32.3539 18.2031C32.3147 18.1374 32.0845 18.1974 32.06 18.1934C31.6961 18.1257 32.1458 18.0044 32.2387 17.9775C32.5772 17.8751 32.1628 17.8393 32.3891 17.7715C32.6135 17.7031 32.9636 17.7796 32.9457 17.6387C32.7258 17.6193 32.1707 17.7791 32.0688 17.6797C31.6851 17.3116 32.0526 16.5285 32.0619 16.2031C32.0718 15.8782 32.0204 15.7847 32.0746 15.5879C32.1722 15.2374 31.7711 15.4143 31.5521 15.2383C31.3328 15.0658 32.3713 15.0131 32.5873 14.9512C32.8026 14.8885 32.5716 14.8892 32.6869 14.834C32.8022 14.7786 32.9636 14.8359 32.9955 14.7412C33.0274 14.6453 32.5974 14.4683 32.3627 14.4785C31.8656 14.4988 31.3737 14.6896 31.5141 14.4414C31.5236 14.4269 31.7986 14.4195 31.8168 14.3662C31.9527 13.9428 31.8765 13.5353 31.9623 13.1035C31.9746 13.0435 32.2811 13.0204 32.2914 12.9844C32.297 12.9646 32.3006 12.9463 32.3031 12.9297C32.3487 12.635 31.8993 12.8455 31.3363 12.8125C32.0779 12.6657 32.5014 12.4524 32.4398 12.2002C32.4032 12.0501 32.0906 12.1605 31.8402 12.124C31.7656 12.1123 31.9553 11.9509 31.8012 11.9717C31.2949 12.042 30.7736 12.287 30.9232 11.9775C30.9346 11.9634 31.2076 11.9251 31.2133 11.8828C31.2507 11.6062 30.7326 11.7181 30.5961 11.4707C30.4892 11.2765 30.6938 10.8159 30.6752 10.5625C31.4919 10.3323 31.2393 10.1594 30.6508 10.2314C30.6287 10.07 30.5486 9.91162 30.5824 9.73925C30.5947 9.68025 30.8382 9.64485 30.8627 9.63086C31.2333 9.41401 30.6673 9.50661 30.6361 9.47949C30.322 9.17773 30.6488 8.76095 30.143 8.53222C30.1249 8.52444 29.5527 8.66876 29.9389 8.45507C29.9666 8.44103 30.2564 8.48025 30.2289 8.31152C30.2011 8.14187 30.4153 7.7464 30.0873 7.59375C30.0082 7.55802 29.5082 7.5472 29.8363 7.33398C29.8815 7.30538 30.048 7.27551 30.1322 7.22851C30.4009 7.07661 29.817 7.19968 30.2816 6.98144C30.6267 6.81839 30.8902 6.62848 30.8393 6.48632C30.8445 6.48158 30.8495 6.47648 30.8549 6.47168C30.7265 6.3413 30.5907 6.21362 30.4184 6.14648C30.3894 6.13707 30.3275 6.2983 30.2797 6.38086C30.2187 6.37848 30.1739 6.37163 30.1703 6.34961C30.151 6.23063 30.2028 6.04049 30.1693 5.92187C30.1531 5.86516 29.8783 5.97349 29.8705 5.96484C29.7905 5.85489 29.7528 5.74564 29.7406 5.63671C29.7125 5.38408 29.8058 5.12353 29.8383 4.8125C29.8487 4.74155 29.4173 4.51926 29.7436 4.33691C29.8468 4.28676 30.0381 4.29141 30.2494 4.31445ZM37.8002 58.7178C37.7867 58.7225 37.7821 58.8174 37.7963 58.8213C38.1322 58.8418 38.1401 58.6432 37.8002 58.7178ZM33.2426 27.5254C33.795 27.5902 33.8076 27.1282 33.2494 27.2842C33.2206 27.2922 33.215 27.5192 33.2426 27.5254ZM33.56 23.1611C33.8417 23.1293 33.7525 23.0365 33.4945 23.0937C33.4792 23.0971 33.4723 23.1709 33.56 23.1611ZM32.7641 16.8135C32.7508 16.8183 32.7483 16.9168 32.7621 16.918C33.0977 16.9376 33.1036 16.7366 32.7641 16.8135ZM34.517 16.5723C34.5031 16.5672 34.0215 16.6085 34.0082 16.6162C33.7365 16.7665 34.7787 16.6793 34.517 16.5723ZM30.6508 10.2324C30.659 10.3406 30.6859 10.4447 30.6957 10.5527C30.3449 10.5431 30.2714 10.4314 30.6508 10.2324ZM32.5287 6.83593C32.5229 6.85581 32.5084 6.87767 32.4857 6.90332L32.5785 7.17285C32.5449 7.1893 32.5065 7.20832 32.4643 7.23144C32.3679 7.28218 32.1382 7.48041 32.0385 7.54785C32.1876 7.5213 32.3457 7.49067 32.4262 7.5205C32.4514 7.52989 32.4729 7.54174 32.4916 7.55371C32.7382 7.60723 33.0919 7.72802 33.1264 7.73535C33.7626 7.8678 33.1328 7.45747 33.0922 7.4082C32.9278 7.16333 33.1061 7.06498 32.9584 6.93261C32.9105 6.89162 32.7135 6.85802 32.5287 6.83593ZM32.1576 7.14843C32.1398 7.15913 32.1204 7.16714 32.102 7.17675C32.0486 7.22943 31.9905 7.28668 31.9789 7.29101C31.9256 7.31045 31.9098 7.29448 31.9008 7.26953C31.7072 7.34753 31.5645 7.40305 31.7045 7.5498C31.7455 7.59255 31.8651 7.57567 31.9984 7.55273C32.0118 7.52636 32.0503 7.47037 32.1283 7.37597C32.1508 7.35665 32.3368 7.09671 32.3109 7.04785C32.2664 7.07863 32.2161 7.11316 32.1576 7.14843ZM32.5785 7.17285C32.9426 6.99444 32.8161 7.18681 32.6264 7.31152L32.5785 7.17285ZM33.3305 6.70312C33.1923 6.73439 33.2722 6.77331 33.4193 6.77734L33.3881 6.6875C33.3692 6.69219 33.3496 6.69748 33.3305 6.70312ZM33.518 6.66406L33.5551 6.77148C33.5759 6.76894 33.5973 6.76779 33.6186 6.76367C33.7643 6.72493 33.671 6.6466 33.518 6.66406ZM32.2064 6.49511C32.1362 6.50601 32.0818 6.51872 32.0395 6.53222C31.9501 6.67365 31.9123 6.7744 32.0141 6.72461C32.0225 6.71928 32.1068 6.61598 32.2064 6.49511ZM29.7855 6.13281C29.9961 6.12857 30.0537 6.39707 30.2367 6.42871C30.2483 6.43021 30.2628 6.41001 30.2797 6.38086C30.423 6.38643 30.6572 6.35619 30.6654 6.35937C30.7675 6.3938 30.8217 6.43731 30.8393 6.48632C30.8058 6.5165 30.774 6.54475 30.7455 6.57226C30.2536 6.67237 29.9872 6.5881 29.8422 6.52734C29.696 6.46004 29.6539 6.38992 29.6381 6.33203C29.6147 6.21565 29.7071 6.13946 29.7816 6.13281C29.7829 6.13272 29.7842 6.13287 29.7855 6.13281ZM31.0961 5.57421C31.1769 5.09578 30.7819 5.65854 30.7104 6.02148C30.6331 6.38102 31.0683 5.71777 31.0961 5.57421ZM32.5336 6.06738C32.5467 5.97641 32.4937 5.99989 32.4105 6.07519C32.4521 6.07177 32.4936 6.06984 32.5336 6.06738ZM31.9428 5.58496C31.9569 5.59446 31.9718 5.60589 31.9896 5.61523C31.9984 5.61946 32.0131 5.62104 32.0307 5.625C32.1033 5.49898 32.1533 5.37942 32.1459 5.27343C32.0791 5.37713 32.0105 5.48054 31.9428 5.58496ZM32.0131 4.72461C32.0025 4.79099 31.9834 4.88086 31.9525 4.99218C31.8723 4.99252 31.7833 4.99004 31.7016 4.99023C31.6187 4.96565 31.5447 4.92714 31.473 4.88379C31.5792 4.79648 31.8213 4.70713 32.0219 4.63379C32.0189 4.66073 32.0166 4.69117 32.0131 4.72461ZM32.2523 4.45703C32.4426 4.47937 32.2624 4.54583 32.0219 4.63379C32.0297 4.56298 32.0356 4.51335 32.0395 4.47851C32.1334 4.46679 32.2203 4.45376 32.2523 4.45703ZM32.0316 4.39453C32.0467 4.39617 32.0488 4.39378 32.0395 4.47851C31.8531 4.50177 31.6399 4.5253 31.7758 4.44629C31.8325 4.42075 32.011 4.40376 32.0316 4.39453Z" fill="white"/>
<path d="M51.4823 45.2195C51.6021 44.9427 52.8372 45.0431 52.6317 45.323C52.5945 45.374 52.2773 45.1144 52.1532 45.1619C51.9276 45.25 52.6582 45.506 52.2265 45.5505C52.1475 45.5586 51.4763 45.2363 51.4804 45.2185L51.4823 45.2195ZM32.7343 7.32301C33.0107 7.32128 33.3102 7.52772 33.5204 7.74391C33.5863 7.81122 33.4847 7.97177 33.5273 8.02613C33.6108 8.13227 33.7412 8.08322 33.8192 8.20289C33.8441 8.24412 33.7006 8.50379 33.7294 8.53981C33.8868 8.73482 34.1048 8.73607 34.289 8.87281C35.1955 9.54696 36.1456 10.0812 37.0692 10.7078C37.3754 10.9143 37.635 11.358 38.0146 11.4412C38.0596 11.4509 38.1657 11.2143 38.1835 11.2C38.4586 10.9835 38.1623 11.4116 38.2001 11.5144C38.3552 11.92 38.6554 12.1297 38.9804 12.2166C39.1188 12.2525 39.2764 11.747 39.2401 12.0642C39.2367 12.0869 39.0622 12.297 39.0771 12.3425C39.1148 12.4441 39.2732 12.4885 39.3173 12.5427C39.3999 12.6481 39.4197 12.6576 39.5165 12.7254C39.6487 12.8209 39.732 13.0415 39.9101 13.0886C39.9488 13.0982 40.0669 12.8385 40.1435 12.8328C40.2212 12.8283 40.3354 12.9362 40.3417 13.0213C40.3474 13.106 40.2019 13.2742 40.1806 13.3211C40.0929 13.5106 40.1603 13.52 40.2577 13.4802C40.3612 13.4366 40.5003 13.3368 40.5146 13.3377C41.0085 13.3847 41.1007 13.8712 41.4159 14.1091C41.6552 14.2889 41.9774 14.3982 42.1913 14.5867C42.4459 14.8125 42.5735 15.1112 42.8427 15.2976C42.8714 15.3167 43.0488 15.0363 43.0839 15.0603C43.4571 15.3165 43.7777 15.6325 43.9716 16.0916C43.9908 16.1378 43.7587 16.3213 43.7665 16.3806C43.8199 16.7398 43.7633 17.4478 44.7177 16.6072C44.8244 16.7665 44.9584 16.9541 44.912 17.2537C44.8821 17.4466 44.5954 17.613 44.7821 17.5994C44.8246 17.5953 44.9804 17.3652 45.0292 17.3767C45.2352 17.4258 45.3254 17.6287 45.5575 17.6472C45.6051 17.6505 45.7643 17.4617 45.8026 17.4353C46.1128 17.2291 45.8191 17.7702 45.8134 17.824C45.7759 18.2292 45.9937 18.257 46.1562 18.4197C46.1939 18.4565 46.374 18.1729 46.4189 18.199C46.6459 18.3463 46.827 18.5571 46.914 18.8445C46.9326 18.9089 46.6984 19.0777 46.6972 19.1189C46.6946 19.2968 47.0843 18.9297 47.0888 19.0945C47.0901 19.1287 46.9122 19.2934 46.8964 19.3162C46.6573 19.6646 47.108 19.2848 47.1337 19.2849C47.4225 19.3159 47.0964 19.8617 47.3134 19.9529C47.3399 19.9634 47.5136 19.7037 47.5751 19.7468C47.9878 20.0348 48.3001 20.469 48.4648 20.992C48.4902 21.0729 48.2865 21.1943 48.2694 21.2175C48.0042 21.5817 48.4655 21.2054 48.4999 21.2068C48.754 21.238 48.516 21.7114 49.1239 21.322C49.4089 21.882 49.9327 22.2201 50.2265 22.7654C50.3412 22.9771 50.4198 23.2163 50.4315 23.5047C50.4328 23.5176 50.1958 23.6917 50.1991 23.7166C50.2356 24.0171 50.5507 23.684 51.0927 23.4666C51.2298 23.4131 50.788 23.9375 50.7558 23.9763C50.6396 24.1219 50.2734 24.3613 50.2538 24.3943C50.1066 24.653 51.2266 23.743 51.3261 23.8689C51.3232 23.8768 51.1074 24.0201 51.0927 24.0476C51.0527 24.131 51.1594 24.0979 51.1122 24.1863C51.0019 24.3903 50.4645 24.8393 50.871 24.7009C50.9252 24.6816 51.5613 24.1688 51.6171 24.3084C51.6387 24.3636 51.8002 24.5622 51.7978 24.6511C51.795 24.7395 51.5521 24.8522 51.5458 24.863C51.3689 25.2172 51.2093 25.2423 50.8358 25.6091C50.461 25.9719 51.4598 25.2598 51.5946 25.2146C51.73 25.171 51.5682 25.4461 51.5019 25.5281C51.4363 25.6103 51.2741 25.6684 51.2421 25.7234C51.036 26.0853 51.7999 25.465 51.9999 25.4158C52.4749 25.3039 51.7706 25.8927 51.7616 26.0545C51.7603 26.0994 51.922 25.9684 51.9569 25.9871C52.0902 26.0682 51.8835 26.2782 52.1855 26.2879C52.2354 26.2865 52.7783 26.1482 52.4618 26.407C52.4157 26.4437 52.2001 26.5193 52.1806 26.5935C52.153 26.7062 52.1752 26.8637 52.2831 26.9158C52.3629 26.954 52.6675 26.7242 52.5995 26.8533C52.5685 26.9101 52.341 26.9371 52.2987 27.0349C52.2571 27.1329 52.3377 27.2927 52.371 27.3543C52.4044 27.4147 52.652 27.2725 52.6718 27.2703C52.786 27.2599 52.9646 27.3393 52.9687 27.3513C53.2302 27.9304 52.9216 28.5981 53.1962 29.1179C53.2175 29.1597 53.5034 29.0673 53.5097 29.073C53.6647 29.2017 52.8624 29.2462 52.623 29.4021C53.2131 29.2651 53.1192 29.3485 53.205 29.4422C53.2469 29.487 53.4725 29.4147 53.497 29.4148C53.8615 29.4248 53.4192 29.5653 53.329 29.5955C52.9976 29.7087 53.4099 29.6896 53.1884 29.7644C52.9678 29.8379 52.618 29.8211 52.6396 29.9187C52.8583 29.9098 53.4046 29.7364 53.5087 29.7986C53.6151 29.863 53.6667 29.9538 53.6855 30.0603C53.7361 30.3459 53.5389 30.718 53.5273 30.8923C53.5117 31.1323 53.5599 31.2022 53.498 31.3474C53.3853 31.6075 53.7928 31.4721 54.0009 31.6052C54.2087 31.7405 53.1715 31.7713 52.9521 31.8162C52.7329 31.8601 52.9627 31.8598 52.8437 31.8982C52.7248 31.9363 52.5691 31.8958 52.5292 31.9607C52.4897 32.0254 52.9 32.1562 53.1337 32.157C53.6289 32.1586 54.1366 32.0337 53.9706 32.2185C53.9574 32.2288 53.687 32.2225 53.663 32.2615C53.48 32.571 53.4894 32.8734 53.3231 33.1746C53.2981 33.2153 52.9962 33.1995 52.9784 33.2234C52.8 33.4739 53.3046 33.3571 53.8788 33.4578C53.1233 33.4711 52.6662 33.5698 52.6708 33.7488C52.6733 33.8568 53.0017 33.8219 53.2372 33.8816C53.3082 33.8998 53.0861 33.9877 53.2411 33.9949C53.7496 34.0192 54.3135 33.9203 54.0956 34.1218C54.0804 34.1301 53.8093 34.1154 53.7919 34.1443C53.6892 34.3345 54.2194 34.3383 54.2899 34.5408C54.3453 34.7 54.0286 34.9917 53.9784 35.1726C53.1303 35.1821 53.3266 35.3447 53.912 35.4089C53.8891 35.5261 53.9234 35.6534 53.8427 35.7664C53.8151 35.8053 53.5685 35.78 53.5419 35.7849C53.128 35.8586 53.6898 35.9096 53.7167 35.9353C53.9324 36.2111 53.4985 36.4265 53.914 36.697C53.9379 36.7067 54.5138 36.737 54.0858 36.7957C54.0561 36.7992 53.7898 36.7062 53.7655 36.8279C53.7414 36.9514 53.418 37.1696 53.6835 37.3504C53.7475 37.394 54.2205 37.5228 53.8427 37.5886C53.791 37.5971 53.6228 37.5764 53.5282 37.5877C53.2271 37.6238 53.8199 37.6842 53.3114 37.7175C52.8025 37.7508 52.4172 37.8493 52.7548 38.0379C52.7704 38.0444 53.2314 38.1149 53.2216 38.1677C53.2109 38.2173 53.1698 38.2775 53.1366 38.3357C53.1134 38.3769 53.0944 38.4174 53.0927 38.4539C53.0909 38.4957 53.3766 38.4934 53.3896 38.5007C53.5294 38.803 53.2499 38.9851 53.1034 39.2771C53.0761 39.33 53.4544 39.5393 53.1269 39.6101C52.7678 39.6855 51.3558 39.3865 51.662 39.6892C51.7862 39.8077 53.5739 40.2045 52.6083 40.2644C52.7827 40.6798 52.2462 40.9467 52.5058 41.3826C52.5194 41.4026 53.0066 41.549 52.994 41.5886C52.9716 41.6467 52.7321 41.6352 52.7079 41.6746C52.6031 41.8389 52.7702 42.0419 52.704 42.2078C52.6793 42.2707 52.4425 42.1986 52.413 42.2732C52.3846 42.3476 52.69 42.4663 52.5146 42.5388C52.3806 42.5936 51.7151 42.5327 51.6171 42.6199C52.2553 42.7628 52.2269 42.8315 52.3671 42.9968C52.3944 43.0287 52.623 43.0515 52.6474 43.0691C52.7511 43.1419 52.558 43.1449 52.6718 43.2175C52.6992 43.2351 52.9161 43.2841 52.9521 43.3015C53.2561 43.4502 52.7376 43.4672 52.6474 43.4695C52.3046 43.4794 52.5794 43.5814 52.4374 43.616C52.2955 43.6503 52.1576 43.5198 52.0634 43.5759C51.8686 43.6924 51.8591 43.8963 51.8134 44.0496C51.7976 44.1104 52.0946 44.1349 52.1005 44.1453C52.1449 44.2902 51.8063 44.3487 52.369 44.5525C50.852 44.2985 52.4952 44.6623 52.1552 44.7771C52.1276 44.786 51.4155 44.6427 51.3241 44.5632C51.233 44.4837 51.4732 44.4511 51.329 44.3367C51.2952 44.3097 50.655 44.0534 50.6181 44.03C50.3306 43.847 51.3912 44.0733 51.4511 44.0808C52.0935 44.1579 51.4079 43.8668 51.3661 43.822C51.1748 43.6176 51.3532 43.5215 51.2206 43.3572C51.1351 43.25 50.4435 43.0853 50.4794 43.0252C50.598 42.826 51.5832 42.9641 50.788 42.5759C50.6181 42.4932 49.8501 42.3704 50.4804 42.3464C50.5201 42.3452 51.0913 42.3482 50.7597 42.2078C50.7175 42.1901 50.4966 42.1426 50.4804 42.1277C50.3757 42.0291 50.562 42.0178 50.494 41.9207C50.4261 41.8236 50.32 41.7031 50.413 41.6287C50.469 41.5839 50.8972 41.5968 51.0038 41.5906C51.31 41.5741 50.8474 41.4005 51.2099 41.4236C51.5745 41.4456 52.0967 41.643 52.3505 41.5623C51.7736 41.4468 51.1823 41.323 50.6024 41.2048C50.6727 40.9477 50.9059 40.7236 50.9237 40.4568C50.9232 40.424 50.6078 40.4052 50.6015 40.3689C50.5759 40.2161 50.8182 40.1239 50.7519 39.9597C50.6991 39.8324 50.3863 39.6586 50.3183 39.5291C50.9956 39.5452 50.7927 39.3327 50.869 39.2097C50.8958 39.1665 51.0735 39.1901 51.1356 39.1638C51.3654 39.0633 50.7687 39.0554 50.6786 39.0115C50.297 38.8259 51.6374 38.955 51.622 38.7742C51.6081 38.7608 50.9198 38.5837 50.8749 38.5652C50.5934 38.4421 51.1251 38.5719 51.1835 38.5154C51.29 38.4116 51.4672 38.3472 51.2685 38.198C51.2662 38.1963 51.263 38.1941 51.2597 38.1922C51.176 38.1442 50.7834 38.0291 51.12 37.9802C51.1662 37.9736 51.3979 37.9946 51.4159 37.988C51.6568 37.8582 50.9131 37.8066 50.6659 37.7107C50.4191 37.6158 50.939 37.5191 51.0888 37.4998C51.4737 37.4514 51.2524 37.5597 51.287 37.5662C51.7317 37.634 51.661 37.5357 51.7021 37.4656C52.4328 37.4915 52.394 37.3855 51.7421 37.3923C51.6709 37.3932 51.7361 37.4527 51.7021 37.4656C50.9888 37.3665 50.9025 37.2567 51.5771 37.1619C51.8931 37.1169 52.2573 37.1852 52.1298 37.0027C52.0716 36.9204 51.5674 36.935 51.4325 36.8611C51.1248 36.6934 51.5981 36.4992 51.5273 36.3318C51.5013 36.2715 51.2255 36.325 51.1981 36.2839C51.1249 36.1757 51.3318 36.0826 51.2265 35.9734C51.2116 35.9643 50.9304 35.9854 50.9247 35.9529C50.8924 35.6998 51.0768 35.4775 51.078 35.2107C51.0785 35.0818 50.9142 34.8558 50.9423 34.7224C50.9898 34.4919 51.3982 34.1894 51.287 33.9949C51.2155 33.8687 50.9283 33.9118 50.7294 33.867C50.3442 33.7822 51.0152 33.5586 51.119 33.5261C51.1261 33.5305 51.2004 33.6298 51.3407 33.5642C51.6434 33.5123 51.1319 33.5268 51.119 33.5261C51.1863 33.5055 51.2375 33.2794 51.1796 33.239C51.1482 33.2173 50.881 33.2479 50.8651 33.2371C50.6013 32.9601 50.5083 32.6773 50.6083 32.3718C50.6133 32.3662 50.9183 32.3459 50.9267 32.3328C51.0458 32.1477 50.6632 32.0745 50.4276 31.9597C50.1922 31.8449 50.2533 31.7298 50.7646 31.5857C50.6871 31.4881 50.8982 31.3097 51.0263 31.2039C51.154 31.0988 50.5677 31.1641 50.5507 31.1589C50.16 30.983 50.4425 30.8092 50.4755 30.574C50.4766 30.5656 50.477 30.5571 50.4774 30.5486C50.4851 30.4292 50.3624 30.2237 50.2763 30.1199C50.2076 30.0388 50.3336 29.9566 50.2294 29.8923C50.2149 29.8839 49.9578 29.9483 49.9472 29.947C49.6194 29.9237 50.2618 29.8325 50.371 29.7898C50.7677 29.6339 50.9764 29.5379 50.7558 29.4627C50.703 29.4439 49.7806 29.5864 49.7167 29.5584C49.6353 29.5188 49.9642 29.4576 49.87 29.4177C49.8597 29.4151 49.6638 29.4673 49.663 29.4295C49.6568 29.2539 49.7173 29.0426 49.6405 28.8865C49.6288 28.8665 49.3324 29.0014 49.3134 28.9744C49.2263 28.845 49.1793 28.695 49.2587 28.4968C49.2791 28.4475 49.4977 28.3749 49.5565 28.3396C49.9098 28.1213 49.3348 28.3035 49.3202 28.2996C48.9442 28.1775 49.3133 27.7255 48.9257 27.5838C48.8973 27.5765 48.2964 27.8078 48.7255 27.4636C48.7574 27.4392 49.1906 27.0831 48.8407 27.2488C48.8177 27.2605 48.5976 27.4492 48.5868 27.3797C48.5748 27.3084 48.3585 27.3331 48.5663 27.0759C48.6321 26.9951 49.0488 26.6115 48.6317 26.7976C48.5975 26.8107 47.7075 27.2957 48.2392 26.8445C48.3267 26.7699 48.9256 26.3372 48.5546 26.4734C48.4833 26.5006 48.3743 26.6294 48.2597 26.6482C48.0844 26.679 48.1696 26.4654 47.8476 26.5877C47.7897 26.6091 47.3508 26.8599 47.6093 26.575C47.6497 26.5303 47.8532 26.3918 47.8554 26.3484C47.8607 26.1429 47.6266 26.1162 47.6513 25.8797C47.6591 25.7956 47.9829 25.5632 48.0253 25.447C48.0675 25.3312 48.0622 25.166 47.8798 25.2332C47.6991 25.3028 47.2643 25.769 47.163 25.7302C47.0887 25.7012 47.0262 25.6605 46.9726 25.6111C46.7136 25.3733 46.672 24.9321 46.4579 24.6336C46.4201 24.5813 46.2903 24.7738 46.2226 24.7078C45.9715 24.4609 45.398 24.1692 45.5273 23.6111C45.6305 23.1634 46.0601 23.1813 46.0399 22.9353C46.0287 22.8165 45.4325 23.2608 45.3993 23.2625C45.0793 23.274 45.2052 22.9375 44.996 22.8699C44.9528 22.8563 44.7686 23.0966 44.7343 23.0828C44.6158 23.0375 44.6216 22.8556 44.5253 22.7947C44.4816 22.7679 44.3281 22.9366 44.3075 22.8923C44.257 22.7872 44.2539 22.65 44.3261 22.4216C44.3326 22.4008 44.5779 22.2434 44.5273 22.1785C44.4439 22.0746 44.4701 21.8057 44.2089 21.8572C44.1305 21.873 43.7681 22.2487 43.9472 21.9207C43.9862 21.8506 44.4353 21.4177 43.9794 21.7302C43.9021 21.7818 43.2628 22.181 43.5185 21.7752C43.5858 21.6682 43.892 21.2516 43.7968 21.2722C43.7825 21.2765 43.6113 21.5012 43.5595 21.49C43.3811 21.4476 43.2792 21.3113 43.0995 21.2644C43.0509 21.2534 42.9012 21.5096 42.8358 21.4851C42.6557 21.418 42.5421 21.2135 42.4745 21.0291C42.4499 20.9606 42.6449 20.8123 42.6591 20.7898C42.8897 20.424 42.4695 20.8188 42.4286 20.8269C42.1793 20.8711 42.272 20.5925 42.1181 20.5496C42.076 20.5373 41.9137 20.7602 41.8915 20.7732C41.6723 20.8966 42.044 20.5714 42.0429 20.4959C42.0373 20.2848 41.9015 20.1934 41.7685 20.1228C41.7193 20.0982 41.5556 20.374 41.5136 20.3504C41.2643 20.2037 41.0621 19.9879 40.9657 19.6746C40.9483 19.615 41.132 19.4506 41.1601 19.4011C41.3569 19.0549 40.9268 19.3893 40.8749 19.4119C40.6375 19.5141 40.7426 19.3207 40.6396 19.2859C40.1321 19.1205 39.7557 18.6259 39.4481 18.2693C39.048 17.8068 38.8169 17.3375 38.3241 17.0515C38.2932 17.0334 38.1309 17.3165 38.1015 17.3054C37.963 17.2416 37.8392 17.1517 37.7235 17.0623C37.5317 16.9141 37.3494 16.757 37.1181 16.6716C37.0865 16.6629 36.9535 16.9416 36.8993 16.9314C36.7863 16.9119 36.6896 16.8277 36.6542 16.6873C36.6372 16.6196 36.838 16.4361 36.8183 16.3718C36.7709 16.2228 36.6724 16.1335 36.5409 16.1091C36.4849 16.0996 36.3833 16.4086 36.3241 16.3757C35.9153 16.1567 35.5087 15.9795 35.2978 15.3982C35.2835 15.3584 35.5649 14.7813 35.4452 14.8562C35.3559 15.0103 35.2564 15.1948 35.164 15.3611C34.5278 15.1338 34.0334 14.6491 33.4179 14.3474C33.3919 14.3366 33.3041 14.6654 33.2538 14.6433C32.9622 14.5133 32.6417 14.4854 32.4501 14.0496C32.4314 14.0055 32.6611 13.4551 32.5351 13.5037C32.5115 13.5129 32.3422 13.5339 32.2606 13.6414C32.2487 13.6585 32.1768 13.9289 32.1288 13.9197C31.8515 13.8613 31.5937 13.7009 31.3759 13.4441C31.3408 13.4021 31.4861 13.1376 31.4618 13.1052C31.2885 12.8776 30.966 13.0054 30.8319 12.6746C30.7427 12.4518 30.9631 11.9846 31.0468 11.4793C31.0585 11.4079 30.9696 11.3657 31.0595 11.0857C31.2855 10.3812 31.5914 9.62945 31.8271 8.87672C31.8778 8.7147 31.6946 8.84534 31.9003 8.48219C31.9143 8.45793 32.0489 8.35929 32.1161 8.23512C32.1627 8.14896 32.2312 7.85646 32.3026 7.75074C32.3739 7.64562 32.3281 7.89407 32.4276 7.77516C32.5279 7.65432 32.6148 7.32474 32.7343 7.32301ZM51.6591 43.1043C51.4541 43.1005 51.6541 43.2667 51.9091 43.2713C52.1136 43.2746 51.9137 43.1087 51.6591 43.1043ZM51.7968 42.0574C52.1784 42.0013 50.7303 41.6863 50.995 41.8806C51.01 41.8918 51.7745 42.0606 51.7968 42.0574ZM51.1356 40.658C50.7718 40.6721 51.5389 40.8696 51.6825 40.8611C52.1561 40.8308 51.5001 40.6422 51.1356 40.658ZM53.956 35.1755C54.2914 35.2483 54.3321 35.3433 53.913 35.4089C53.9346 35.3315 53.9366 35.2535 53.956 35.1755ZM52.8349 30.4158C52.5008 30.4285 52.4945 30.5694 52.8319 30.49C52.8452 30.4862 52.8482 30.4173 52.8349 30.4158ZM51.248 26.3054C51.0061 26.4537 51.1098 26.4709 51.3241 26.3181C51.3366 26.3087 51.3226 26.2592 51.248 26.3054ZM49.9989 23.3914C49.5311 23.6804 49.7015 23.9682 50.0898 23.5437C50.11 23.5218 50.0223 23.3767 49.9989 23.3914ZM31.3964 11.4324C31.2537 11.7347 31.3769 11.805 31.4608 11.4685C31.4639 11.4549 31.4024 11.4199 31.3964 11.4324Z" fill="white"/>
<path d="M51.8243 44.3396C51.8817 44.1219 53.105 43.9837 52.9678 44.2253C52.9429 44.2689 52.5766 44.1319 52.4659 44.1873C52.2647 44.2884 53.0343 44.3558 52.6221 44.4587C52.5466 44.4774 51.8181 44.3524 51.8223 44.3396H51.8243ZM33.6427 16.2908C33.8874 16.2789 34.1311 16.4716 34.2891 16.6755C34.3383 16.7387 34.24 16.899 34.2696 16.9509C34.3291 17.0512 34.4423 16.9985 34.4952 17.1121C34.5121 17.1505 34.3696 17.4081 34.3887 17.4431C34.4981 17.6267 34.6718 17.6177 34.8057 17.7419C35.4567 18.3528 36.1252 18.798 36.7852 19.2976C37.0049 19.4633 37.1586 19.8504 37.4552 19.8836C37.4898 19.8868 37.5996 19.653 37.6153 19.6375C37.8589 19.4015 37.5757 19.8396 37.5958 19.9304C37.6772 20.2904 37.8974 20.4468 38.1524 20.4832C38.2614 20.498 38.4376 20.0059 38.378 20.3054C38.3739 20.326 38.2111 20.5474 38.2198 20.5867C38.2392 20.6748 38.3655 20.6943 38.3956 20.738C38.4524 20.823 38.4668 20.829 38.5401 20.8777C38.6403 20.9471 38.6883 21.1371 38.8302 21.1531C38.8609 21.1557 38.9792 20.8992 39.0421 20.8816C39.1049 20.8648 39.1917 20.9481 39.1895 21.0252C39.1873 21.1023 39.0546 21.2795 39.0333 21.3259C38.8512 21.716 39.2817 21.2903 39.3048 21.2878C39.706 21.2508 39.7466 21.6813 39.9913 21.8455C40.1773 21.9693 40.4368 22.0131 40.6036 22.1482C40.7995 22.3086 40.8887 22.5581 41.1016 22.6794C41.124 22.6926 41.2925 22.4079 41.3204 22.4236C41.6175 22.591 41.8667 22.8196 42.0011 23.2C42.0141 23.2382 41.8053 23.4439 41.8077 23.4959C41.8274 23.809 41.7298 24.4556 42.5987 23.533C42.6782 23.6569 42.7799 23.8014 42.7198 24.0779C42.681 24.2559 42.4251 24.4561 42.585 24.4109C42.6211 24.4003 42.7694 24.1673 42.8106 24.1677C42.9826 24.175 43.0457 24.3404 43.2432 24.3162C43.2839 24.3107 43.4336 24.1134 43.4678 24.0837C43.7481 23.8455 43.4592 24.3807 43.4503 24.4294C43.3891 24.7966 43.5732 24.7828 43.7012 24.8992C43.731 24.9254 43.9064 24.6403 43.9425 24.657C44.1265 24.7477 44.2674 24.9038 44.3214 25.1433C44.3323 25.197 44.1205 25.3862 44.1153 25.4236C44.0992 25.5824 44.4616 25.1887 44.4532 25.3337C44.4503 25.365 44.2869 25.5402 44.2716 25.5632C44.0392 25.9151 44.4596 25.4949 44.4786 25.4939C44.7259 25.4707 44.4042 26.0111 44.585 26.0525C44.6086 26.0542 44.7753 25.7966 44.8253 25.823C45.1608 26.0035 45.3993 26.3288 45.505 26.7566C45.5215 26.8227 45.3359 26.9665 45.3194 26.99C45.0631 27.3575 45.4917 26.9422 45.5206 26.9382C45.7375 26.9179 45.4996 27.3776 46.0538 26.9246C46.3404 27.5242 47.0656 27.666 47.0587 28.5496C47.0559 28.563 46.8432 28.7598 46.8448 28.78C46.8465 28.8035 46.851 28.8215 46.8575 28.8347C46.8632 28.8384 46.8753 28.8555 46.8809 28.8601C46.9348 28.9929 47.2406 28.703 47.7012 28.4666C47.8299 28.4019 47.379 28.9102 47.3458 28.948C47.2264 29.0881 46.8725 29.3424 46.8507 29.3738C46.6912 29.6144 47.7931 28.6828 47.8702 28.7761C47.8685 28.782 47.6552 28.9361 47.6407 28.9607C47.5961 29.0371 47.6975 28.9948 47.6456 29.0759C47.5248 29.2635 46.9927 29.7192 47.3751 29.5447C47.4264 29.5205 48.052 28.9974 48.0889 29.1043C48.1027 29.1474 48.2289 29.2885 48.2188 29.363C48.2082 29.4372 47.9765 29.5679 47.9698 29.5779C47.7764 29.8995 47.6291 29.9446 47.2569 30.3084C46.8846 30.6692 47.8566 29.9211 47.9835 29.8621C48.1102 29.8035 47.9387 30.056 47.8721 30.1345C47.8057 30.2133 47.6531 30.2878 47.6202 30.3386C47.405 30.6717 48.1497 30.0315 48.336 29.9568C48.7782 29.7827 48.0918 30.384 48.0753 30.5183C48.0715 30.5549 48.2287 30.4181 48.2589 30.4275C48.3756 30.4669 48.176 30.6759 48.4542 30.6228C48.4992 30.6136 49.0054 30.3863 48.7052 30.6589C48.6617 30.6979 48.4601 30.8038 48.4405 30.8669C48.4118 30.9614 48.432 31.0827 48.5323 31.0984C48.6068 31.1095 48.8893 30.8591 48.8262 30.9753C48.7974 31.027 48.5861 31.1016 48.5479 31.1882C48.5096 31.2746 48.5872 31.3811 48.6202 31.4197C48.653 31.4577 48.8759 31.2875 48.8975 31.2781C49.0034 31.241 49.1724 31.2526 49.1768 31.2605C49.4395 31.6222 49.2241 32.2061 49.5626 32.5007C49.5889 32.5243 49.842 32.3629 49.8487 32.365C50.0125 32.4073 49.2703 32.7036 49.0723 32.8972C49.6021 32.602 49.5273 32.6949 49.6231 32.7341C49.67 32.753 49.8674 32.6253 49.8907 32.6169C50.2329 32.5032 49.8459 32.7515 49.7657 32.8044C49.4754 32.9976 49.8574 32.8464 49.6632 32.9753C49.4702 33.1028 49.1414 33.207 49.1788 33.2712C49.3817 33.1913 49.8597 32.8838 49.9688 32.8933C50.3805 32.9334 50.1647 33.5058 50.1954 33.6834C50.2282 33.8628 50.2879 33.898 50.2589 34.0232C50.2051 34.2495 50.5616 34.0166 50.7852 34.0457C51.009 34.076 50.0373 34.4383 49.8399 34.5427C49.6424 34.6462 49.8591 34.5707 49.755 34.6375C49.6505 34.704 49.4948 34.7259 49.4708 34.7859C49.4469 34.8453 49.8591 34.803 50.0802 34.7283C50.5478 34.5684 51.0014 34.3127 50.8839 34.5007C50.8767 34.5116 50.6168 34.5953 50.6016 34.6316C50.4932 34.915 50.5658 35.1299 50.4718 35.3992C50.4572 35.4361 50.1706 35.5205 50.1563 35.5437C50.0395 35.7787 50.4925 35.5353 51.0587 35.4275C50.3454 35.6748 49.9332 35.8896 49.9747 36.0154C49.9998 36.0914 50.3048 35.9642 50.5411 35.9334C50.6112 35.9247 50.4195 36.0558 50.5684 36.0125C51.0563 35.8717 51.5707 35.6257 51.4083 35.8386C51.4003 35.8482 51.1316 35.9238 51.1231 35.95C51.0678 36.118 51.5723 35.9571 51.6837 36.0808C51.7711 36.1786 51.5337 36.487 51.5255 36.6306C50.7191 36.8938 50.9421 36.9501 51.5147 36.8201C51.519 36.9112 51.5794 36.9918 51.5274 37.0964C51.5096 37.1323 51.2694 37.1876 51.2452 37.199C50.8644 37.3755 51.4194 37.243 51.4464 37.2546C51.7147 37.3884 51.348 37.6676 51.8077 37.738C51.8268 37.7396 52.3924 37.589 51.9942 37.7586C51.9639 37.7698 51.691 37.7826 51.6964 37.8757C51.7016 37.9695 51.4445 38.2207 51.7413 38.2703C51.8131 38.282 52.295 38.2318 51.9503 38.3894C51.9034 38.4106 51.7383 38.4463 51.6505 38.4822C51.3708 38.5968 51.9518 38.4645 51.4747 38.6384C50.9971 38.8127 50.6534 38.9966 51.0225 39.0291C51.0416 39.0287 51.4966 38.9412 51.5001 38.9812C51.504 39.0465 51.4314 39.1582 51.4503 39.2214C51.4597 39.2513 51.7342 39.1634 51.7452 39.1658C51.9558 39.3325 51.7392 39.547 51.6798 39.7927C51.6685 39.8384 52.0856 39.8684 51.795 40.0173C51.4766 40.1801 50.052 40.4065 50.4298 40.5261C50.5807 40.5734 52.3889 40.2882 51.4942 40.6316C51.7832 40.8653 51.3615 41.2183 51.7452 41.4353C51.768 41.4442 52.27 41.3877 52.2696 41.4187C52.2672 41.4653 52.0379 41.5348 52.0284 41.5691C51.9836 41.7161 52.2067 41.8004 52.1993 41.9334C52.1972 41.9849 51.952 42.0131 51.9493 42.074C51.9473 42.1344 52.2725 42.1145 52.1329 42.2205C52.1072 42.2397 52.0506 42.2648 51.9786 42.2927C51.7495 42.3761 51.3633 42.4765 51.3116 42.5339C51.9603 42.4493 51.9547 42.5027 52.1368 42.5808C52.1723 42.5959 52.3965 42.5522 52.4249 42.5584C52.5451 42.5844 52.3611 42.637 52.4913 42.6609C52.5226 42.6668 52.7444 42.6472 52.7833 42.6511C53.117 42.6874 52.6236 42.831 52.5372 42.8523C52.2105 42.9387 52.5009 42.9496 52.3741 43.0066C52.246 43.0621 52.0784 42.9995 52.002 43.0593C51.8444 43.1822 51.8853 43.3257 51.878 43.4431C51.8764 43.4897 52.174 43.4513 52.1807 43.4578C52.2581 43.5547 51.9429 43.6578 52.5372 43.7048C51.0023 43.7911 52.6867 43.7624 52.3809 43.907C52.3561 43.9184 51.6295 43.9361 51.5225 43.8953C51.4161 43.8547 51.642 43.7896 51.4757 43.7341C51.4365 43.7205 50.7544 43.6533 50.713 43.6443C50.3902 43.5709 51.4747 43.5389 51.5343 43.533C52.1751 43.4692 51.4436 43.3904 51.3897 43.3689C51.1546 43.2652 51.3024 43.1669 51.1329 43.0857C51.0229 43.0328 50.3134 43.0699 50.3311 43.0281C50.3944 42.8966 51.3767 42.7438 50.5089 42.7146C50.3236 42.711 49.5554 42.8287 50.1514 42.6775C50.1866 42.6706 50.6563 42.5476 50.4434 42.5486L50.4473 42.572C50.4303 42.5711 50.4088 42.571 50.3829 42.572C50.338 42.5738 50.1161 42.6146 50.0948 42.6101C49.9638 42.5776 50.1342 42.5084 50.0382 42.4636C49.9422 42.4193 49.8021 42.3683 49.8643 42.2878C49.9018 42.2387 50.3065 42.1074 50.4044 42.0681C50.686 41.9564 50.1954 41.9865 50.5421 41.8836C50.891 41.7804 51.4443 41.7448 51.6563 41.6082C51.078 41.7162 50.4834 41.8235 49.9014 41.9304C49.8834 41.7278 50.0317 41.4964 49.9649 41.3005C49.9543 41.2773 49.6522 41.3655 49.6339 41.3425C49.5622 41.2438 49.7627 41.1008 49.6505 41.0037C49.5625 40.9304 49.214 40.906 49.1114 40.8328C49.7561 40.6308 49.504 40.5446 49.5411 40.4324C49.5539 40.393 49.7299 40.3552 49.7813 40.3171C49.9708 40.1743 49.4009 40.3518 49.3038 40.3474C48.8901 40.3301 50.1986 40.0144 50.1348 39.8904C50.117 39.8854 49.4177 39.9666 49.3682 39.9666C49.0673 39.9625 49.6081 39.896 49.6485 39.8377C49.7226 39.7324 49.874 39.6325 49.6456 39.5857C49.578 39.5721 49.127 39.6137 49.4483 39.4734C49.4908 39.4549 49.7215 39.4006 49.7335 39.3914C49.9303 39.2281 49.2081 39.4115 48.9483 39.4168C48.6888 39.4222 49.1618 39.1992 49.2999 39.1414C49.6572 38.9923 49.4689 39.1367 49.5059 39.1296C49.947 39.0464 49.8544 38.9968 49.877 38.9353C50.5804 38.7379 50.5179 38.6748 49.8975 38.8718C49.83 38.8934 49.9056 38.9162 49.877 38.9353C49.1721 39.076 49.063 39.0254 49.6846 38.7586C49.9758 38.6333 50.3397 38.5743 50.1749 38.4822C50.1003 38.4407 49.6218 38.5998 49.4757 38.5877C49.1434 38.5613 49.5512 38.2826 49.4454 38.1863C49.4071 38.1518 49.1544 38.2723 49.1192 38.2517C49.0255 38.1977 49.2024 38.0708 49.0782 38.0252C49.0666 38.0212 48.7984 38.1215 48.7852 38.1003C48.6984 37.9326 48.8256 37.7232 48.7696 37.5359C48.7426 37.4462 48.5378 37.3381 48.5362 37.2361C48.5333 37.0624 48.8578 36.7239 48.712 36.6228C48.6183 36.5571 48.3553 36.6764 48.1573 36.7078C47.7742 36.7704 48.3646 36.4027 48.4561 36.3464C48.46 36.3451 48.5525 36.3963 48.6749 36.3035C48.9539 36.1698 48.4577 36.3467 48.4561 36.3464C48.5156 36.3107 48.5183 36.1374 48.4552 36.1277C48.4195 36.1234 48.1723 36.2308 48.1573 36.2273C47.8515 36.1178 47.7097 35.9539 47.7432 35.7068C47.7468 35.7012 48.0259 35.5884 48.0352 35.575C48.1112 35.4067 47.736 35.4806 47.4923 35.4783C47.2483 35.4753 47.2846 35.3747 47.7374 35.1023C47.6455 35.0597 47.8095 34.8617 47.9093 34.7429C48.0071 34.6256 47.4734 34.8678 47.4542 34.8709C47.0403 34.8772 47.304 34.6418 47.2706 34.4558C47.2561 34.3679 47.1023 34.256 47.002 34.2048C46.9228 34.1646 47.0249 34.0616 46.9151 34.0447C46.8973 34.0444 46.674 34.1736 46.6612 34.1775C46.3474 34.2627 46.9343 33.988 47.0294 33.9197C47.3735 33.6715 47.5528 33.5311 47.3321 33.5398C47.2812 33.5411 46.4344 33.9353 46.3673 33.9294C46.2823 33.9191 46.5829 33.7726 46.4864 33.7654C46.4784 33.7647 46.2997 33.8662 46.2911 33.8337C46.251 33.6825 46.2702 33.4773 46.171 33.3523C46.1581 33.3349 45.8927 33.5261 45.8692 33.5046C45.7617 33.4011 45.6897 33.2626 45.7432 33.0623C45.7573 33.0122 45.9624 32.907 46.0157 32.864C46.3345 32.6041 45.8044 32.8646 45.7823 32.866C45.4026 32.8088 45.7384 32.3416 45.3751 32.2732C45.3537 32.2691 44.7705 32.5553 45.1876 32.1941C45.2166 32.1696 45.6402 31.7989 45.3048 31.991C45.2839 32.0032 45.0678 32.1984 45.0606 32.1394C45.0532 32.0796 44.8501 32.1287 45.0606 31.8796C45.1284 31.8007 45.5381 31.4173 45.1417 31.6336C45.1129 31.6473 44.2522 32.187 44.7784 31.7293C44.8651 31.6538 45.4496 31.2024 45.1016 31.3709C45.0344 31.4041 44.9224 31.5283 44.8165 31.5603C44.6539 31.6105 44.7551 31.4213 44.4522 31.5701C44.3983 31.5961 43.9776 31.8738 44.2423 31.5974C44.2836 31.554 44.4815 31.4059 44.4874 31.3699C44.5136 31.2091 44.3389 31.2117 44.3585 31.0505L44.5137 31.2166C44.5135 31.2045 44.514 31.1915 44.5157 31.1775C44.5244 31.1021 44.8216 30.834 44.8614 30.7234C44.9011 30.6129 44.901 30.4706 44.7374 30.5652C44.5735 30.6605 44.171 31.1533 44.0811 31.1375C43.6927 31.0677 43.7152 30.5743 43.5118 30.3084C43.4817 30.269 43.3552 30.4626 43.2999 30.4168C43.0953 30.2479 42.6179 30.0975 42.7716 29.5867C42.8932 29.1757 43.2638 29.1133 43.2637 28.9011C43.2624 28.799 42.7157 29.2964 42.6866 29.3044C42.4097 29.3733 42.5446 29.0564 42.3692 29.0349C42.333 29.0308 42.1565 29.2742 42.128 29.2683C42.0293 29.2499 42.0488 29.0902 41.9708 29.0544C41.9347 29.0402 41.7904 29.2157 41.7764 29.1804C41.7415 29.0975 41.7505 28.9777 41.8302 28.7634C41.8385 28.7431 42.06 28.5613 42.0216 28.5134C41.9579 28.437 42.002 28.1969 41.7745 28.2898C41.7057 28.3191 41.3681 28.7141 41.547 28.3933C41.5861 28.3243 42.0023 27.8611 41.5889 28.2195C41.5185 28.2795 40.943 28.7478 41.1934 28.3435C41.2594 28.2368 41.5526 27.8134 41.4698 27.8494C41.4557 27.8583 41.2938 28.085 41.2511 28.0847C41.1032 28.0802 41.0275 27.9789 40.879 27.9705C40.839 27.9688 40.6913 28.2233 40.6378 28.2136C40.4904 28.1874 40.4122 28.029 40.3692 27.8777C40.3539 27.8216 40.5302 27.6541 40.544 27.6316C40.7678 27.2652 40.3819 27.692 40.3468 27.7068C40.1327 27.7921 40.2337 27.5285 40.1075 27.5193C40.0733 27.5163 39.9206 27.7406 39.8995 27.7586C39.7049 27.9086 40.0441 27.5519 40.0489 27.4851C40.0607 27.299 39.9534 27.2429 39.8477 27.2048C39.8087 27.1912 39.6486 27.4673 39.6153 27.4539C39.4188 27.3703 39.2651 27.2141 39.21 26.9529C39.2003 26.903 39.367 26.7232 39.3946 26.6736C39.586 26.3284 39.1997 26.704 39.1544 26.7341C38.9481 26.869 39.0511 26.6772 38.9678 26.6648C38.558 26.6103 38.2815 26.2339 38.0528 25.9656C37.7552 25.6178 37.598 25.2302 37.211 25.0476C37.1865 25.0357 37.0306 25.3218 37.0069 25.3162C36.7156 25.2189 36.5375 24.9544 36.2374 24.8787C36.2132 24.8721 36.0808 25.1501 36.0362 25.1502C35.9439 25.1481 35.8676 25.0815 35.8507 24.9558C35.8425 24.8947 36.0245 24.6961 36.0128 24.6394C35.9854 24.5067 35.9123 24.437 35.8048 24.4304C35.759 24.4284 35.6492 24.7313 35.6026 24.7078C35.2821 24.5536 34.9622 24.432 34.8458 23.9021C34.8402 23.8622 35.1264 23.2937 35.0216 23.3757C34.933 23.5302 34.8327 23.7143 34.7403 23.8806C34.2424 23.7264 33.8973 23.3013 33.4522 23.0544C33.4335 23.0441 33.3219 23.3676 33.2852 23.3494C33.0729 23.2447 32.8306 23.2378 32.7452 22.8337C32.7376 22.7918 32.9822 22.2498 32.88 22.3044C32.8601 22.3148 32.7309 22.3466 32.6563 22.4548C32.6454 22.4715 32.5562 22.7351 32.5216 22.7312C32.3248 22.6955 32.1569 22.5607 32.0352 22.3328C32.0152 22.2953 32.1514 22.029 32.1378 21.9998C32.0377 21.7939 31.7994 21.9476 31.7393 21.6423C31.6992 21.4366 31.9012 20.9625 32.0069 20.4646C32.0217 20.3943 31.9602 20.3613 32.0489 20.0808C32.2714 19.3754 32.5605 18.6181 32.794 17.865C32.8443 17.7027 32.6848 17.8426 32.8731 17.4724C32.886 17.4475 33.0036 17.3431 33.0665 17.2175C33.1101 17.1307 33.181 16.8392 33.2471 16.7312C33.3135 16.6238 33.2635 16.8705 33.3546 16.7498C33.4469 16.6266 33.5374 16.2977 33.6427 16.2908ZM51.7735 42.8816C51.9717 42.8372 51.7342 42.7705 51.4884 42.8269C51.2904 42.8704 51.5268 42.9347 51.7735 42.8816ZM51.3009 42.1287C51.6405 41.964 50.1792 42.223 50.4932 42.2703C50.5203 42.2714 51.2798 42.1384 51.3009 42.1287ZM50.8057 41.3406C51.2411 41.1678 50.5643 41.2464 50.2266 41.3748C49.8894 41.502 50.6735 41.3927 50.8057 41.3406ZM51.505 36.6394C51.8405 36.5894 51.9007 36.6469 51.5157 36.8201C51.5191 36.7581 51.5035 36.7005 51.505 36.6394ZM49.4532 33.5691C49.1426 33.6903 49.1638 33.7947 49.4649 33.6238C49.4768 33.6166 49.4661 33.5644 49.4532 33.5691ZM47.5889 30.8171C47.3582 30.9823 47.4529 30.9781 47.6583 30.8142C47.6705 30.8045 47.6607 30.7658 47.5889 30.8171ZM46.6856 28.5437C46.2617 28.8888 46.3965 29.1003 46.7569 28.655C46.7755 28.6319 46.7074 28.527 46.6856 28.5437ZM32.2706 20.3884C32.1361 20.6933 32.2205 20.7514 32.3155 20.4187C32.3193 20.4053 32.2763 20.3758 32.2706 20.3884Z" fill="white"/>
<ellipse cx="26.1197" cy="60.4729" rx="11.3141" ry="4.5" transform="rotate(-16.1705 26.1197 60.4729)" fill="white"/>
</svg>
